<?xml version="1.0" standalone="no"?>
<!DOCTYPE svg PUBLIC "-//W3C//DTD SVG 1.1//EN" "http://www.w3.org/Graphics/SVG/1.1/DTD/svg11.dtd" >
<svg xmlns="http://www.w3.org/2000/svg" xmlns:xlink="http://www.w3.org/1999/xlink" version="1.1">
<metadata>
Created by FontForge 20160407 at Thu Aug 25 17:20:57 2016
 By Jimmy Wärting
Spaced and kerned with iKern.
</metadata>
<defs>
<font id="MuseoSlab-900" horiz-adv-x="820" >
  <font-face 
    font-family="Museo Slab 900"
    font-weight="400"
    font-stretch="normal"
    units-per-em="1000"
    panose-1="2 0 0 0 0 0 0 0 0 0"
    ascent="750"
    descent="-250"
    x-height="515"
    cap-height="715"
    bbox="-129 -248 1230 931"
    underline-thickness="50"
    underline-position="-100"
    stemh="75"
    stemv="97"
    unicode-range="U+0020-FB04"
  />
<missing-glyph horiz-adv-x="510" 
d="M5 0v700h500v-700h-500zM255 395l170 255h-340zM285 350l170 -255v510zM55 95l170 255l-170 255v-510zM85 50h340l-170 255z" />
    <glyph glyph-name="fi" unicode="fi" horiz-adv-x="752" 
d="M42 0v125h65v265h-70v125h70v21c0 169 148 191 228 191c19 0 33 -1 44 -2l17 -2v-136l-10 2c-7 1 -17 1 -32 1c-25 0 -74 -1 -74 -50v-25h382v-390h65v-125h-303v125h65v265h-209v-265h76v-125h-314zM491 580v135h169v-135h-169z" />
    <glyph glyph-name="fl" unicode="fl" horiz-adv-x="747" 
d="M42 0v125h65v265h-70v125h70v11c0 156 138 210 294 210c67 0 128 -8 173 -16c27 -5 51 -10 74 -16v-504c0 -49 9 -66 48 -66c7 0 11 1 15 1h6v-137l-15 -2c-11 -1 -23 -1 -40 -1c-88 0 -187 22 -187 195v408c-7 2 -15 4 -24 5c-15 3 -36 4 -60 4c-71 0 -111 -26 -111 -77
v-15h106v-125h-106v-265h76v-125h-314z" />
    <glyph glyph-name="f_f" unicode="ff" horiz-adv-x="795" 
d="M42 0v125h65v265h-70v125h70v21c0 169 148 191 228 191c19 0 33 -1 44 -2l17 -2v-136l-10 2c-7 1 -17 1 -32 1c-25 0 -74 -1 -74 -50v-25h209v21c0 169 148 191 228 191c19 0 33 -1 44 -2l17 -2v-136l-10 2c-7 1 -17 1 -32 1c-25 0 -74 -1 -74 -50v-25h106v-125h-106
v-265h76v-125h-314v125h65v265h-209v-265h76v-125h-314z" />
    <glyph glyph-name="f_f_i" unicode="ffi" horiz-adv-x="1134" 
d="M42 0v125h65v265h-70v125h70v21c0 169 148 191 228 191c19 0 33 -1 44 -2l17 -2v-136l-10 2c-7 1 -17 1 -32 1c-25 0 -74 -1 -74 -50v-25h209v21c0 169 148 191 228 191c19 0 33 -1 44 -2l17 -2v-136l-10 2c-7 1 -17 1 -32 1c-25 0 -74 -1 -74 -50v-25h382v-390h65v-125
h-303v125h65v265h-209v-265h76v-125h-314v125h65v265h-209v-265h76v-125h-314zM873 580v135h169v-135h-169z" />
    <glyph glyph-name="f_f_l" unicode="ffl" horiz-adv-x="1129" 
d="M42 0v125h65v265h-70v125h70v21c0 169 148 191 228 191c19 0 33 -1 44 -2l17 -2v-136l-10 2c-7 1 -17 1 -32 1c-25 0 -74 -1 -74 -50v-25h209v11c0 156 138 210 294 210c67 0 128 -8 173 -16c27 -5 51 -10 74 -16v-504c0 -49 9 -66 48 -66c7 0 11 1 15 1h6v-137l-15 -2
c-11 -1 -23 -1 -40 -1c-88 0 -187 22 -187 195v408c-7 2 -15 4 -24 5c-15 3 -36 4 -60 4c-71 0 -111 -26 -111 -77v-15h106v-125h-106v-265h76v-125h-314v125h65v265h-209v-265h76v-125h-314z" />
    <glyph glyph-name="f_j" unicode="fj" horiz-adv-x="728" 
d="M42 0v125h65v265h-70v125h70v21c0 169 148 191 228 191c19 0 33 -1 44 -2l17 -2v-136l-10 2c-7 1 -17 1 -32 1c-25 0 -74 -1 -74 -50v-25h381v-523c0 -173 -162 -200 -242 -200c-15 0 -25 0 -33 1l-13 2v135c1 -1 3 -1 6 -1h16c35 0 93 10 93 71v390h-208v-265h76v-125
h-314zM490 580v135h169v-135h-169z" />
    <glyph glyph-name=".notdef" horiz-adv-x="510" 
d="M5 0v700h500v-700h-500zM255 395l170 255h-340zM285 350l170 -255v510zM55 95l170 255l-170 255v-510zM85 50h340l-170 255z" />
    <glyph glyph-name=".null" horiz-adv-x="0" 
 />
    <glyph glyph-name="CR" horiz-adv-x="250" 
 />
    <glyph glyph-name="space" unicode=" " horiz-adv-x="250" 
 />
    <glyph glyph-name="numbersign" unicode="#" horiz-adv-x="704" 
d="M102 0l31 180h-101l20 120h101l17 95h-99l20 120h99l35 200h134l-35 -200h108l35 200h134l-35 -200h105l-20 -120h-105l-17 -95h103l-20 -120h-103l-31 -180h-134l31 180h-108l-31 -180h-134zM287 300h108l17 95h-108z" />
    <glyph glyph-name="dollar" unicode="$" horiz-adv-x="577" 
d="M31 105l88 123c17 -13 35 -26 54 -37c32 -19 76 -37 117 -37s79 19 79 58c0 91 -325 72 -325 291c0 104 79 182 191 203v109h109v-106c61 -7 106 -25 137 -44c18 -11 33 -22 46 -34l-70 -133c-15 12 -32 23 -49 32c-31 16 -69 31 -108 31c-44 0 -81 -16 -81 -55
c0 -98 325 -72 325 -284c0 -101 -71 -196 -200 -215v-106h-109v106c-67 11 -116 33 -151 56c-21 13 -38 27 -53 42z" />
    <glyph glyph-name="percent" unicode="%" horiz-adv-x="854" 
d="M214 382c-101 0 -181 76 -181 172c0 93 80 173 181 173c100 0 181 -80 181 -173c0 -96 -81 -172 -181 -172zM73 0l552 715h152l-552 -715h-152zM214 502c31 0 55 22 55 53c0 28 -24 52 -55 52s-55 -24 -55 -52c0 -31 24 -53 55 -53zM460 160c0 93 80 173 181 173
c100 0 181 -80 181 -173c0 -96 -81 -172 -181 -172c-101 0 -181 76 -181 172zM586 161c0 -31 24 -53 55 -53s55 22 55 53c0 28 -24 52 -55 52s-55 -24 -55 -52z" />
    <glyph glyph-name="ampersand" unicode="&#x26;" horiz-adv-x="698" 
d="M34 205c0 79 49 145 124 173v2c-17 9 -33 20 -47 34c-24 24 -47 61 -47 120c0 139 122 193 243 193c29 0 55 -3 74 -6l32 -6l-40 -137l-12 2c-7 1 -16 2 -27 2c-51 0 -93 -24 -93 -73c0 -41 25 -75 73 -75h107v93h172v-93h89v-140h-89v-74c0 -127 -103 -232 -281 -232
c-171 0 -278 97 -278 217zM213 221c0 -48 40 -78 101 -78c67 0 107 36 107 87v64h-118c-46 0 -90 -20 -90 -73z" />
    <glyph glyph-name="quotesingle" unicode="'" horiz-adv-x="227" 
d="M51 490v240h125v-240h-125z" />
    <glyph glyph-name="parenleft" unicode="(" horiz-adv-x="351" 
d="M319 -95h-142c-77 123 -124 273 -124 442c0 145 44 280 124 403h142c-75 -125 -113 -262 -113 -403c0 -151 38 -301 113 -442z" />
    <glyph glyph-name="parenright" unicode=")" horiz-adv-x="351" 
d="M174 -95h-142c75 141 113 291 113 442c0 141 -38 278 -113 403h142c80 -123 124 -258 124 -403c0 -169 -47 -319 -124 -442z" />
    <glyph glyph-name="asterisk" unicode="*" horiz-adv-x="490" 
d="M189 309l-122 88l75 83v2l-110 23l46 143l102 -45l-11 112h152l-12 -112l103 46l47 -143l-111 -23v-2l76 -83l-122 -89l-56 97h-2z" />
    <glyph glyph-name="plus" unicode="+" horiz-adv-x="630" 
d="M42 222v130h205v223h136v-223h205v-130h-205v-222h-136v222h-205z" />
    <glyph glyph-name="comma" unicode="," horiz-adv-x="291" 
d="M7 -111l75 277h165l-113 -277h-127z" />
    <glyph glyph-name="hyphen" unicode="-" horiz-adv-x="452" 
d="M69 212v150h314v-150h-314z" />
    <glyph glyph-name="period" unicode="." horiz-adv-x="284" 
d="M60 0v164h164v-164h-164z" />
    <glyph glyph-name="slash" unicode="/" horiz-adv-x="464" 
d="M32 -42l256 792h144l-256 -792h-144z" />
    <glyph glyph-name="zero" unicode="0" horiz-adv-x="628" 
d="M314 -12c-203 0 -269 166 -269 371s66 368 269 368s269 -163 269 -368s-66 -371 -269 -371zM314 143c69 0 89 96 89 216c0 119 -20 213 -89 213s-89 -94 -89 -213c0 -120 20 -216 89 -216z" />
    <glyph glyph-name="one" unicode="1" horiz-adv-x="542" 
d="M49 0v140h152v308c0 15 1 27 1 38v17h-2c-2 -4 -4 -8 -7 -12c-5 -7 -10 -17 -21 -26l-43 -39l-101 108l193 181h151v-575h153v-140h-476z" />
    <glyph glyph-name="two" unicode="2" horiz-adv-x="608" 
d="M560 0h-515c-5 28 -8 53 -8 77c0 263 321 301 321 421c0 58 -41 74 -77 74c-35 0 -63 -20 -83 -41c-12 -12 -23 -26 -32 -41l-121 83c14 29 33 54 56 77c40 39 103 77 196 77c117 0 246 -67 246 -219c0 -210 -309 -257 -313 -368h180v85h150v-225z" />
    <glyph glyph-name="three" unicode="3" horiz-adv-x="591" 
d="M53 500v215h472v-124l-134 -164c96 -23 157 -96 157 -195c0 -122 -86 -244 -270 -244c-80 0 -141 23 -182 47c-24 14 -45 30 -62 47l81 125c13 -12 28 -23 44 -32c27 -16 65 -32 106 -32c65 0 102 36 102 81c0 48 -38 81 -113 81c-11 0 -23 -1 -35 -2l-37 80l125 159
c7 9 15 17 23 24l11 10v2c-5 0 -10 0 -15 -1c-9 -1 -19 -2 -30 -2h-93v-75h-150z" />
    <glyph glyph-name="four" unicode="4" horiz-adv-x="632" 
d="M20 173v106l276 436h214v-407h85v-135h-85v-173h-173v173h-317zM309 489l-115 -179v-2h143v173c0 15 1 33 4 48l3 26h-4l-8 -22c-5 -13 -12 -29 -23 -44z" />
    <glyph glyph-name="five" unicode="5" horiz-adv-x="591" 
d="M31 79l77 128c13 -12 28 -23 45 -32c28 -16 66 -32 109 -32c60 0 110 32 110 91c0 49 -37 88 -118 88c-33 0 -57 -6 -76 -13c-11 -4 -20 -8 -27 -13l-93 35l29 384h419v-215h-150v75h-117l-6 -93c0 -6 -1 -12 -2 -19l-2 -9h2c4 1 9 3 16 4c11 2 27 3 48 3
c165 0 257 -100 257 -226c0 -140 -111 -247 -278 -247c-77 0 -139 23 -180 46c-24 13 -45 28 -63 45z" />
    <glyph glyph-name="six" unicode="6" horiz-adv-x="617" 
d="M330 -12c-151 0 -289 110 -289 334c0 211 119 405 349 405c47 0 84 -7 111 -15c16 -5 30 -10 42 -16l-46 -145c-9 5 -19 8 -30 11c-19 5 -43 10 -70 10c-85 0 -133 -54 -156 -123h2c20 13 64 25 108 25c146 0 236 -122 236 -242c0 -123 -100 -244 -257 -244zM221 270
c0 -60 49 -127 109 -127c45 0 77 37 77 90c0 48 -29 100 -121 100c-39 0 -65 -15 -65 -63z" />
    <glyph glyph-name="seven" unicode="7" horiz-adv-x="568" 
d="M71 0l267 532c8 15 15 26 20 33c3 4 5 8 8 11v2c-5 0 -10 0 -15 -1c-9 -1 -22 -2 -37 -2h-130v-75h-150v215h519v-122l-300 -593h-182z" />
    <glyph glyph-name="eight" unicode="8" horiz-adv-x="614" 
d="M39 204c0 93 76 157 103 178c-45 35 -75 77 -75 141c0 100 75 204 238 204c138 0 248 -75 248 -199c0 -83 -56 -148 -74 -169c55 -35 93 -84 93 -155c0 -106 -89 -216 -266 -216c-175 0 -267 108 -267 216zM238 519c0 -49 48 -71 120 -100c12 19 26 46 26 86
c0 47 -28 72 -77 72s-69 -25 -69 -58zM214 224c0 -51 37 -86 94 -86c49 0 85 28 85 72c0 46 -48 63 -138 102c-19 -19 -41 -47 -41 -88z" />
    <glyph glyph-name="nine" unicode="9" horiz-adv-x="618" 
d="M31 483c0 123 100 244 257 244c151 0 289 -110 289 -334c0 -205 -116 -405 -350 -405c-47 0 -85 8 -112 16c-16 5 -30 10 -43 15l46 145c9 -4 20 -7 31 -10c19 -5 44 -11 71 -11c88 0 135 54 158 126h-2c-20 -15 -65 -25 -109 -25c-146 0 -236 122 -236 239zM211 483
c0 -48 30 -98 116 -98c37 0 70 17 70 66c0 67 -58 121 -110 121c-43 0 -76 -40 -76 -89z" />
    <glyph glyph-name="colon" unicode=":" horiz-adv-x="304" 
d="M70 351v164h164v-164h-164zM70 0v164h164v-164h-164z" />
    <glyph glyph-name="semicolon" unicode=";" horiz-adv-x="307" 
d="M84 351v164h158v-164h-158zM14 -111l65 277h166l-103 -277h-128z" />
    <glyph glyph-name="less" unicode="&#x3c;" horiz-adv-x="630" 
d="M53 234v107l504 223v-145l-330 -131v-2l330 -130v-145z" />
    <glyph glyph-name="equal" unicode="=" horiz-adv-x="630" 
d="M62 337v130h506v-130h-506zM62 107v130h506v-130h-506z" />
    <glyph glyph-name="greater" unicode="&#x3e;" horiz-adv-x="630" 
d="M73 11v145l330 130v2l-330 131v145l504 -223v-107z" />
    <glyph glyph-name="question" unicode="?" horiz-adv-x="506" 
d="M131 221v50c0 135 157 159 157 243c0 35 -32 59 -71 59c-24 0 -46 -10 -65 -21c-11 -7 -21 -14 -30 -22l-96 117c15 16 33 30 54 42c36 21 87 41 155 41c112 0 233 -67 233 -196c0 -164 -171 -188 -171 -277v-36h-166zM135 0v150h158v-150h-158z" />
    <glyph glyph-name="at" unicode="@" horiz-adv-x="834" 
d="M29 240c0 211 162 375 407 375c199 0 284 -109 284 -240v-198h74v-119h-283c-149 0 -227 90 -227 182c0 88 74 176 227 176h49c0 43 -74 64 -132 64c-135 0 -230 -118 -230 -245c0 -121 88 -235 252 -235v-130c-261 0 -421 162 -421 370zM455 241c0 -32 22 -64 66 -64h39
v134h-37c-47 0 -68 -30 -68 -70z" />
    <glyph glyph-name="A" unicode="A" horiz-adv-x="732" 
d="M10 0v130h59l195 585h204l195 -585h59v-130h-299v130h62l-27 95h-184l-27 -95h62v-130h-299zM312 361h107l-37 132c-7 23 -8 41 -11 54l-3 21h-4c0 -7 -1 -14 -2 -21c-3 -13 -5 -31 -12 -54z" />
    <glyph glyph-name="B" unicode="B" horiz-adv-x="707" 
d="M49 0v130h80v455h-80v130h334c56 0 91 -2 131 -15c76 -27 125 -87 125 -171c0 -63 -29 -122 -85 -153v-2c84 -26 114 -95 114 -164c0 -107 -75 -179 -159 -200c-39 -9 -68 -10 -107 -10h-353zM308 438h88c44 0 63 30 63 69c0 25 -10 51 -33 62c-13 5 -25 6 -44 6h-74
v-137zM308 140h103c13 0 24 2 33 6c28 12 43 45 43 78c0 43 -24 74 -75 74h-104v-158z" />
    <glyph glyph-name="C" unicode="C" horiz-adv-x="748" 
d="M34 359c0 213 165 368 374 368c87 0 289 -27 289 -143v-113h-160v55c0 40 -73 51 -121 51c-116 0 -197 -76 -197 -208c0 -148 88 -231 207 -231c32 0 119 8 119 51v55h160v-115c0 -109 -193 -141 -292 -141c-219 0 -379 162 -379 371z" />
    <glyph glyph-name="D" unicode="D" horiz-adv-x="788" 
d="M49 0v130h80v455h-80v130h315c56 0 102 -2 147 -15c142 -40 240 -162 240 -342c0 -165 -83 -286 -215 -334c-52 -19 -106 -24 -171 -24h-316zM308 140h52c44 0 77 5 109 20c61 31 97 101 97 197c0 107 -43 175 -110 203c-31 13 -60 15 -96 15h-52v-435z" />
    <glyph glyph-name="E" unicode="E" horiz-adv-x="659" 
d="M49 0v130h80v455h-80v130h551v-211h-150v71h-142v-145h209v-140h-209v-150h154v71h150v-211h-563z" />
    <glyph glyph-name="F" unicode="F" horiz-adv-x="607" 
d="M49 0v130h80v455h-80v130h533v-211h-150v61h-124v-155h210v-140h-210v-140h90v-130h-349z" />
    <glyph glyph-name="G" unicode="G" horiz-adv-x="768" 
d="M34 362c0 215 159 365 383 365c131 0 288 -49 288 -140v-116h-160v52c0 36 -53 54 -118 54c-131 0 -208 -72 -208 -207c0 -133 77 -232 218 -232c48 0 124 12 124 52v49h-115v130h275v-238c0 -107 -202 -143 -306 -143c-220 0 -381 158 -381 374z" />
    <glyph glyph-name="H" unicode="H" horiz-adv-x="872" 
d="M49 0v130h80v455h-80v130h339v-130h-80v-160h256v160h-80v130h339v-130h-80v-455h80v-130h-339v130h80v155h-256v-155h80v-130h-339z" />
    <glyph glyph-name="I" unicode="I" horiz-adv-x="437" 
d="M49 0v130h80v455h-80v130h339v-130h-80v-455h80v-130h-339z" />
    <glyph glyph-name="J" unicode="J" horiz-adv-x="582" 
d="M14 210v62h170v-48c0 -40 6 -81 61 -81c37 0 56 27 56 81v361h-90v130h339v-130h-70v-365c0 -157 -119 -232 -236 -232c-115 0 -230 67 -230 222z" />
    <glyph glyph-name="K" unicode="K" horiz-adv-x="751" 
d="M49 0v130h80v455h-80v130h311v-130h-52v-151h60l105 151h-54v130h294v-130h-60l-152 -205v-2c5 -3 11 -7 18 -13c11 -11 25 -26 37 -51l81 -161c8 -15 23 -23 44 -23h31v-130h-122c-60 0 -82 17 -101 53l-107 218c-9 19 -23 23 -50 23h-24v-164h75v-130h-334z" />
    <glyph glyph-name="L" unicode="L" horiz-adv-x="634" 
d="M50 0v130h80v445h-80v140h339v-140h-80v-435h154v105h150v-245h-563z" />
    <glyph glyph-name="M" unicode="M" horiz-adv-x="986" 
d="M35 0v130h78l38 455h-80v130h281l120 -354c8 -23 13 -40 16 -53c2 -7 3 -14 4 -21h2c1 7 2 14 4 21c3 13 9 30 16 53l120 354h281v-130h-80l38 -455h78v-130h-324v130h71l-17 257c-1 15 0 35 1 51l3 29h-4c-1 -9 -3 -18 -5 -27c-3 -15 -7 -34 -14 -49l-94 -261h-150
l-94 261c-5 15 -11 34 -14 49c-2 9 -4 18 -5 27h-4l3 -29c1 -16 2 -36 1 -51l-17 -257h71v-130h-324z" />
    <glyph glyph-name="N" unicode="N" horiz-adv-x="859" 
d="M49 0v130h80v455h-80v130h261l224 -379c9 -15 16 -32 21 -47l9 -26h4l-3 28c-3 16 -3 36 -3 52v242h-84v130h343v-130h-80v-585h-180l-225 377c-8 15 -16 32 -21 47l-9 26h-4l3 -28c3 -16 3 -36 3 -52v-240h84v-130h-343z" />
    <glyph glyph-name="O" unicode="O" 
d="M34 362c0 205 157 365 376 365s376 -160 376 -365c0 -210 -157 -374 -376 -374s-376 164 -376 374zM219 362c0 -125 86 -219 191 -219s191 94 191 219c0 120 -86 210 -191 210s-191 -90 -191 -210z" />
    <glyph glyph-name="P" unicode="P" horiz-adv-x="681" 
d="M49 0v130h80v455h-80v130h356c41 0 84 -1 120 -16c85 -32 138 -119 138 -225c0 -104 -56 -199 -141 -228c-33 -11 -69 -15 -112 -15h-102v-101h80v-130h-339zM308 371h76c28 0 44 4 63 15c27 17 38 49 38 88s-12 69 -35 85c-17 11 -38 16 -63 16h-79v-204z" />
    <glyph glyph-name="Q" unicode="Q" horiz-adv-x="827" 
d="M34 360c0 208 156 367 379 367c214 0 376 -145 376 -355c0 -88 -27 -157 -76 -221l77 -62l-99 -111l-75 71c-57 -41 -125 -61 -204 -61c-221 0 -378 164 -378 372zM219 360c0 -123 86 -217 194 -217c24 0 56 4 79 19l-94 87l96 109l95 -91c12 29 20 61 20 97
c0 116 -86 208 -196 208c-109 0 -194 -89 -194 -212z" />
    <glyph glyph-name="R" unicode="R" horiz-adv-x="740" 
d="M49 0v130h80v455h-80v130h323c55 0 102 -2 143 -14c87 -27 143 -96 143 -201c0 -95 -44 -157 -116 -196v-2c5 -3 11 -6 16 -10c9 -7 20 -17 28 -33l55 -106c9 -17 23 -23 46 -23h25v-130h-118c-57 0 -81 14 -101 53l-87 167c-12 23 -25 31 -62 31h-36v-121h75v-130h-334z
M308 391h81c56 0 91 28 91 93c0 33 -8 64 -39 79c-16 8 -39 12 -69 12h-64v-184z" />
    <glyph glyph-name="S" unicode="S" horiz-adv-x="618" 
d="M40 254h160v-53c0 -37 47 -58 103 -58s96 19 96 58c0 55 -79 73 -154 102c-97 38 -188 84 -188 215c0 159 130 209 257 209c122 0 243 -46 243 -137v-106h-160v45c0 28 -38 43 -83 43c-41 0 -77 -12 -77 -49c0 -50 59 -69 124 -93c109 -37 218 -83 218 -218
c0 -163 -140 -224 -276 -224c-133 0 -263 59 -263 174v92z" />
    <glyph glyph-name="T" unicode="T" horiz-adv-x="695" 
d="M178 0v130h80v445h-85v-101h-150v241h649v-241h-150v101h-85v-445h80v-130h-339z" />
    <glyph glyph-name="U" unicode="U" 
d="M107 273v312h-80v130h339v-130h-80v-312c0 -32 7 -60 18 -79c19 -32 58 -51 107 -51c47 0 81 15 104 50c13 21 19 47 19 80v312h-80v130h339v-130h-80v-312c0 -72 -22 -139 -59 -186c-56 -68 -149 -99 -244 -99c-103 0 -191 36 -243 96c-43 48 -60 113 -60 189z" />
    <glyph glyph-name="V" unicode="V" horiz-adv-x="732" 
d="M274 0l-204 585h-60v130h316v-130h-70l94 -314c7 -17 8 -37 11 -52l3 -26h4l3 26c3 15 6 35 11 52l94 314h-70v130h316v-130h-60l-204 -585h-184z" />
    <glyph glyph-name="W" unicode="W" horiz-adv-x="1032" 
d="M12 585v130h317v-130h-83l66 -317c4 -17 6 -36 7 -51l2 -24h4l3 24c3 15 5 34 9 51l110 447h138l110 -447c5 -17 6 -36 9 -51l3 -24h4l2 24c1 15 4 34 7 51l66 317h-83v130h317v-130h-60l-142 -585h-197l-91 366c-4 19 -6 38 -9 53l-3 26h-4l-3 -26c-3 -15 -4 -34 -9 -53
l-91 -366h-197l-142 585h-60z" />
    <glyph glyph-name="X" unicode="X" horiz-adv-x="725" 
d="M34 0v130h57l176 235l-168 220h-60v130h304v-130h-62l68 -90c8 -10 14 -18 17 -23c3 -3 5 -7 6 -10h2c0 -1 7 14 22 33l66 90h-60v130h288v-130h-57l-175 -232l172 -223h58v-130h-304v130h64l-72 94c-7 9 -13 17 -17 24c-3 3 -5 7 -6 10h-2c-3 0 -9 -15 -22 -34l-67 -94
h62v-130h-290z" />
    <glyph glyph-name="Y" unicode="Y" horiz-adv-x="671" 
d="M166 0v130h80v163l-175 292h-61v130h296v-130h-60l73 -132c7 -11 9 -18 12 -25c2 -3 3 -7 4 -10h2c1 3 2 7 4 10l12 25l73 132h-60v130h295v-130h-61l-175 -292v-163h80v-130h-339z" />
    <glyph glyph-name="Z" unicode="Z" horiz-adv-x="660" 
d="M49 0v110l305 432c7 11 14 18 21 25l11 9v2c-5 0 -9 0 -14 -1c-8 -1 -18 -2 -29 -2h-140v-101h-150v241h549v-108l-306 -434c-7 -11 -14 -17 -21 -24l-11 -10v-2l14 2c8 1 18 1 29 1h157v105h150v-245h-565z" />
    <glyph glyph-name="bracketleft" unicode="[" horiz-adv-x="360" 
d="M82 -95v845h246v-120h-102v-605h102v-120h-246z" />
    <glyph glyph-name="backslash" unicode="\" horiz-adv-x="464" 
d="M288 -42l-256 792h144l256 -792h-144z" />
    <glyph glyph-name="bracketright" unicode="]" horiz-adv-x="360" 
d="M32 25h102v605h-102v120h246v-845h-246v120z" />
    <glyph glyph-name="asciicircum" unicode="^" horiz-adv-x="630" 
d="M58 241l203 474h107l203 -474h-145l-112 300l-111 -300h-145z" />
    <glyph glyph-name="underscore" unicode="_" horiz-adv-x="586" 
d="M-5 0h596v-130h-596v130z" />
    <glyph glyph-name="grave" unicode="`" horiz-adv-x="484" 
d="M244 761l-151 150h177l116 -150h-142z" />
    <glyph glyph-name="a" unicode="a" horiz-adv-x="583" 
d="M23 147c0 151 195 173 275 173h31v15c0 43 -34 57 -73 57c-35 0 -70 -12 -97 -24c-16 -7 -31 -16 -45 -25l-60 117c18 13 38 24 60 34c39 17 93 33 158 33c151 0 230 -74 230 -210v-170c0 -15 7 -22 22 -22h38v-125h-149c-51 0 -69 29 -69 54v3c0 5 0 9 1 11s1 4 1 5h-2
c-9 -16 -21 -30 -35 -42c-24 -21 -61 -43 -117 -43c-90 0 -169 55 -169 159zM197 159c0 -27 18 -46 46 -46c44 0 88 53 88 98v12h-16c-57 0 -118 -18 -118 -64z" />
    <glyph glyph-name="b" unicode="b" horiz-adv-x="642" 
d="M71 0v590h-70v125h243v-199c0 -13 0 -24 -1 -32c-1 -5 -1 -9 -1 -12h2c10 11 22 20 35 28c23 15 59 27 104 27c140 0 232 -110 232 -270c0 -163 -103 -269 -240 -269c-52 0 -86 16 -109 32c-13 9 -23 20 -32 31h-2c1 -3 1 -7 1 -11v-23v-17h-162zM239 254
c0 -61 33 -123 101 -123c55 0 101 43 101 123c0 77 -41 127 -101 127c-52 0 -101 -39 -101 -127z" />
    <glyph glyph-name="c" unicode="c" horiz-adv-x="567" 
d="M25 256c0 149 115 271 282 271c103 0 227 -36 227 -131v-82h-147v31c0 25 -33 38 -73 38c-81 0 -115 -50 -115 -121c0 -92 59 -131 130 -131c52 0 111 22 155 57l58 -121c-56 -51 -140 -79 -224 -79c-152 0 -293 101 -293 268z" />
    <glyph glyph-name="d" unicode="d" horiz-adv-x="663" 
d="M27 257c0 164 96 270 238 270c51 0 82 -12 103 -25c12 -7 22 -16 29 -26h2v9c0 7 -1 15 -1 24v81h-70v125h243v-568c0 -15 7 -22 22 -22h38v-125h-149c-51 0 -69 29 -69 54v3c0 5 0 9 1 11s1 4 1 5h-2c-8 -16 -19 -30 -34 -42c-25 -21 -65 -43 -125 -43
c-137 0 -227 109 -227 269zM201 257c0 -76 40 -126 100 -126c52 0 102 39 102 122c0 68 -32 128 -99 128c-57 0 -103 -44 -103 -124z" />
    <glyph glyph-name="e" unicode="e" horiz-adv-x="562" 
d="M25 258c0 151 102 269 268 269c154 0 240 -106 240 -249c0 -8 -1 -21 -2 -32l-2 -20h-327c13 -67 64 -95 120 -95c39 0 74 13 101 25c16 7 31 15 44 24l63 -120c-17 -13 -37 -25 -59 -36c-39 -19 -92 -36 -163 -36c-184 0 -283 133 -283 270zM206 321h148
c0 41 -26 76 -65 76c-51 0 -74 -36 -83 -76z" />
    <glyph glyph-name="f" unicode="f" horiz-adv-x="413" 
d="M42 0v125h65v265h-70v125h70v21c0 169 148 191 228 191c19 0 33 -1 44 -2l17 -2v-136l-10 2c-7 1 -17 1 -32 1c-25 0 -74 -1 -74 -50v-25h106v-125h-106v-265h76v-125h-314z" />
    <glyph glyph-name="g" unicode="g" horiz-adv-x="654" 
d="M77 -164l49 126c13 -7 27 -12 42 -17c27 -8 63 -16 103 -16c61 0 119 24 119 104v17c0 3 1 8 1 12v7h-2c-31 -36 -69 -54 -129 -54c-155 0 -232 127 -232 259c0 131 75 253 231 253c53 0 121 -19 150 -67h2v5c0 3 -1 5 -1 8c0 20 19 42 58 42h156v-125h-39
c-15 0 -22 -6 -22 -19v-324c0 -188 -150 -257 -291 -257c-69 0 -144 19 -195 46zM301 159c45 0 93 23 93 113c0 91 -48 111 -100 111c-61 0 -92 -43 -92 -103c0 -64 31 -121 99 -121z" />
    <glyph glyph-name="h" unicode="h" horiz-adv-x="694" 
d="M28 0v125h65v465h-70v125h243v-226c0 -13 0 -24 -1 -32c-1 -5 -1 -9 -1 -12h2c29 51 89 82 157 82c104 0 185 -49 185 -193v-209h65v-125h-238v302c0 48 -18 68 -57 68c-76 0 -112 -68 -112 -142v-103h65v-125h-303z" />
    <glyph glyph-name="i" unicode="i" horiz-adv-x="373" 
d="M109 580v135h169v-135h-169zM42 0v125h65v265h-70v125h243v-390h65v-125h-303z" />
    <glyph glyph-name="j" unicode="j" horiz-adv-x="340" 
d="M98 580v135h169v-135h-169zM-19 -205v135c1 -1 3 -1 6 -1h16c35 0 93 10 93 71v390h-71v125h244v-523c0 -173 -162 -200 -242 -200c-15 0 -26 0 -34 1z" />
    <glyph glyph-name="k" unicode="k" horiz-adv-x="634" 
d="M28 0v125h65v465h-70v125h243v-391h59l54 66h-49v125h268v-125h-63l-89 -108v-2l13 -10c8 -7 19 -17 28 -36l51 -92c8 -15 18 -17 38 -17h25v-125h-126c-37 0 -55 6 -74 39l-79 146c-9 17 -28 17 -41 17h-15v-77h37v-125h-275z" />
    <glyph glyph-name="l" unicode="l" horiz-adv-x="335" 
d="M63 190v400h-70v125h243v-515c0 -49 9 -66 48 -66c7 0 11 1 15 1h6v-137l-15 -2c-11 -1 -22 -1 -37 -1c-91 0 -190 22 -190 195z" />
    <glyph glyph-name="m" unicode="m" horiz-adv-x="991" 
d="M42 0v125h65v244c0 14 -7 21 -22 21h-48v125h163c47 0 72 -23 72 -58v-17v-8c0 -1 0 -3 -1 -4h2c27 40 76 99 163 99c56 0 109 -25 134 -97h2c28 56 90 97 170 97c88 0 162 -51 162 -193v-209h65v-125h-238v305c0 39 -7 65 -40 65c-75 0 -99 -72 -99 -157v-88h65v-125
h-238v305c0 39 -7 65 -40 65c-79 0 -99 -84 -99 -167v-78h65v-125h-303z" />
    <glyph glyph-name="n" unicode="n" horiz-adv-x="708" 
d="M42 0v125h65v243c0 15 -7 22 -22 22h-48v125h164c47 0 71 -23 71 -58v-17v-8c0 -1 0 -3 -1 -4h2c9 19 22 35 39 50c28 25 71 49 136 49c97 0 174 -49 174 -193v-209h65v-125h-238v302c0 48 -19 68 -58 68c-77 0 -111 -80 -111 -152v-93h65v-125h-303z" />
    <glyph glyph-name="o" unicode="o" horiz-adv-x="634" 
d="M25 256c0 163 131 271 291 271c163 0 293 -108 293 -271c0 -161 -130 -268 -292 -268s-292 107 -292 268zM200 256c0 -77 54 -124 117 -124s117 47 117 124s-54 127 -117 127s-117 -50 -117 -127z" />
    <glyph glyph-name="p" unicode="p" horiz-adv-x="667" 
d="M31 -75h65v443c0 15 -7 22 -22 22h-48v125h159c51 0 66 -24 66 -43v-3v-9c0 -2 0 -3 -1 -4h2c10 13 22 25 37 36c25 19 64 35 119 35c140 0 232 -110 232 -270c0 -163 -103 -269 -240 -269c-43 0 -74 13 -97 25c-13 7 -24 15 -34 24h-2c0 -3 0 -7 1 -12c1 -8 1 -19 1 -32
v-68h65v-125h-303v125zM264 254c0 -61 33 -123 101 -123c55 0 101 43 101 123c0 77 -41 127 -101 127c-52 0 -101 -39 -101 -127z" />
    <glyph glyph-name="q" unicode="q" horiz-adv-x="642" 
d="M27 258c0 163 98 269 235 269c61 0 114 -16 147 -60h2c0 3 0 5 -1 8c-1 5 -1 12 -1 20v20h162v-590h65v-125h-303v125h65v77c0 13 0 24 1 32c1 5 1 9 1 12h-2c-9 -11 -21 -20 -34 -29c-23 -15 -58 -29 -105 -29c-140 0 -232 110 -232 270zM201 258
c0 -77 41 -127 101 -127c52 0 101 39 101 127c0 62 -33 123 -101 123c-55 0 -101 -43 -101 -123z" />
    <glyph glyph-name="r" unicode="r" horiz-adv-x="476" 
d="M39 0v125h70v243c0 15 -7 22 -22 22h-48v125h163c47 0 73 -19 73 -66v-27c0 -9 0 -16 -1 -19s-1 -5 -1 -7h2c22 70 87 128 164 128c7 0 11 0 14 -1s5 -1 6 -1v-170l-10 2c-7 1 -14 1 -25 1c-96 0 -142 -60 -142 -155v-75h70v-125h-313z" />
    <glyph glyph-name="s" unicode="s" horiz-adv-x="509" 
d="M27 113v69h145v-26c0 -25 25 -37 75 -37c42 0 63 10 63 30c0 32 -34 37 -101 58c-75 24 -164 62 -164 165c0 121 122 155 221 155c80 0 197 -28 197 -112v-70h-145v23c0 16 -15 28 -52 28c-28 0 -49 -6 -49 -26c0 -31 41 -43 90 -56c77 -21 175 -53 175 -160
c0 -116 -112 -166 -235 -166c-92 0 -220 40 -220 125z" />
    <glyph glyph-name="t" unicode="t" horiz-adv-x="408" 
d="M89 190v200h-70v125h75v139h168v-139h108v-125h-108v-182c0 -61 59 -71 92 -71c7 0 13 1 17 1h6v-140l-13 -2c-8 -1 -19 -1 -34 -1c-83 0 -241 22 -241 195z" />
    <glyph glyph-name="u" unicode="u" horiz-adv-x="694" 
d="M91 181v209h-70v125h243v-307c0 -48 18 -68 57 -68c68 0 107 79 107 157v93h-70v125h243v-368c0 -15 7 -22 22 -22h43v-125h-159c-47 0 -71 23 -71 58v14c0 4 1 7 1 10v5h-2c-9 -18 -22 -34 -38 -49c-27 -25 -70 -50 -137 -50c-91 0 -169 49 -169 193z" />
    <glyph glyph-name="v" unicode="v" horiz-adv-x="624" 
d="M9 390v125h274v-125h-46l59 -186c7 -15 8 -33 11 -46l3 -22h4l3 22c3 13 6 31 11 46l59 186h-46v125h274v-125h-58l-143 -390h-204l-143 390h-58z" />
    <glyph glyph-name="w" unicode="w" horiz-adv-x="872" 
d="M10 390v125h274v-125h-51l38 -179c3 -15 5 -32 6 -45l2 -23h4c0 8 0 16 1 23c1 13 4 30 7 45l71 304h148l71 -304c4 -15 6 -32 7 -45c1 -7 1 -15 1 -23h4l2 23c1 13 3 30 6 45l38 179h-51v125h274v-125h-59l-98 -390h-200l-58 238c-4 16 -6 33 -7 46l-2 22h-4
c0 -7 0 -15 -1 -22c-1 -13 -4 -29 -8 -46l-58 -238h-200l-98 390h-59z" />
    <glyph glyph-name="x" unicode="x" horiz-adv-x="582" 
d="M33 0v125h67l100 135l-95 130h-72v125h181l61 -100c7 -9 12 -20 16 -28c3 -5 5 -9 6 -13h2l7 13c4 8 8 19 15 28l63 100h164v-125h-61l-94 -126l105 -139h50v-125h-159l-72 110c-7 11 -11 20 -15 28l-7 13h-2c-1 -4 -3 -8 -6 -13c-4 -8 -9 -17 -16 -28l-68 -110h-170z
" />
    <glyph glyph-name="y" unicode="y" horiz-adv-x="627" 
d="M12 -170l53 123c7 -5 14 -9 22 -12c15 -7 36 -12 63 -12c36 0 70 10 85 42l2 5l-170 414h-58v125h283v-125h-50l63 -191c5 -15 7 -32 10 -45c1 -7 2 -15 2 -22h4c1 7 2 15 4 22c3 13 7 30 12 45l61 191h-47v125h267v-125h-53l-166 -435c-48 -123 -139 -165 -240 -165
c-44 0 -80 9 -107 20c-15 6 -29 13 -40 20z" />
    <glyph glyph-name="z" unicode="z" horiz-adv-x="552" 
d="M41 106l226 255c8 9 15 16 22 21l10 8v2c-5 0 -10 0 -15 -1c-9 -1 -20 -1 -31 -1h-67v-62h-145v187h460v-107l-222 -254c-8 -9 -15 -16 -22 -21l-10 -8v-2c5 0 11 0 16 1c9 1 19 1 30 1h78v62h145v-187h-475v106z" />
    <glyph glyph-name="braceleft" unicode="{" horiz-adv-x="385" 
d="M112 62v98c0 48 -21 72 -42 84c-12 7 -26 11 -43 12v150c17 1 31 5 43 12c21 12 42 38 42 87v88c0 144 130 162 199 162c13 0 23 0 31 -1c5 -1 9 -1 12 -1v-124c-2 0 -4 0 -7 1s-9 1 -18 1c-28 0 -73 -9 -73 -54v-117c0 -51 -21 -83 -42 -102c-12 -11 -26 -20 -42 -25v-2
c16 -5 30 -13 42 -24c21 -19 42 -49 42 -102v-127c0 -45 45 -54 73 -54c9 0 15 0 18 1s5 1 7 1v-124c-3 0 -7 0 -12 -1c-8 -1 -18 -1 -31 -1c-69 0 -199 18 -199 162z" />
    <glyph glyph-name="bar" unicode="|" horiz-adv-x="304" 
d="M80 -165v967h144v-967h-144z" />
    <glyph glyph-name="braceright" unicode="}" horiz-adv-x="385" 
d="M31 -98v124c2 0 4 0 7 -1s9 -1 18 -1c28 0 73 9 73 54v127c0 53 21 83 42 102c12 11 26 19 42 24v2c-16 5 -30 14 -42 25c-21 19 -42 51 -42 102v117c0 45 -45 54 -73 54c-9 0 -15 0 -18 -1s-5 -1 -7 -1v124c3 0 7 0 12 1c8 1 19 1 31 1c70 0 199 -18 199 -162v-88
c0 -49 22 -75 43 -87c12 -7 26 -11 42 -12v-150c-16 -1 -30 -5 -42 -12c-21 -12 -43 -36 -43 -84v-98c0 -144 -129 -162 -199 -162c-12 0 -23 0 -31 1c-5 1 -9 1 -12 1z" />
    <glyph glyph-name="asciitilde" unicode="~" horiz-adv-x="629" 
d="M183 191h-134c0 135 58 203 174 203c93 0 120 -80 172 -80c32 0 55 25 55 76h133c0 -135 -58 -203 -173 -203c-94 0 -119 80 -173 80c-31 0 -54 -25 -54 -76z" />
    <glyph glyph-name="exclamdown" unicode="&#xa1;" horiz-adv-x="292" 
d="M67 364v150h158v-150h-158zM56 -200l16 493h148l16 -493h-180z" />
    <glyph glyph-name="cent" unicode="&#xa2;" horiz-adv-x="580" 
d="M243 -12v87c-118 27 -213 140 -213 283c0 141 95 256 213 283v85h110v-85c91 -20 164 -84 193 -172l-154 -60c-13 39 -43 75 -90 75c-48 0 -98 -50 -98 -126c0 -84 46 -126 98 -126c45 0 77 35 90 75l154 -60c-24 -68 -90 -156 -193 -172v-87h-110z" />
    <glyph glyph-name="sterling" unicode="&#xa3;" horiz-adv-x="635" 
d="M39 0v135h80v164h-73v112h73v100c0 129 104 216 244 216c60 0 107 -19 142 -39c20 -12 38 -25 54 -39l-91 -116c-10 7 -21 14 -32 20c-19 11 -44 19 -68 19c-39 0 -70 -25 -70 -66v-95h155v-112h-155v-159h153v105h150v-245h-562z" />
    <glyph glyph-name="yen" unicode="&#xa5;" horiz-adv-x="660" 
d="M77 167v96h163v28l-24 49h-139v96h92l-137 279h201l53 -143c12 -33 23 -66 31 -91c5 -15 9 -29 12 -42h2l13 42c8 25 18 58 30 91l53 143h201l-138 -279h93v-96h-140l-24 -49v-28h164v-96h-164v-167h-179v167h-163z" />
    <glyph glyph-name="section" unicode="&#xa7;" horiz-adv-x="524" 
d="M141 179l-76 273c-7 25 -10 50 -10 75c0 115 77 200 231 200c68 0 118 -19 153 -38c21 -11 39 -24 54 -39l-74 -108c-11 9 -24 17 -37 24c-23 12 -55 23 -94 23c-55 0 -98 -16 -98 -83c0 -20 3 -42 10 -67l72 -260h-131zM32 15l69 115c11 -10 24 -19 39 -27
c25 -15 59 -28 98 -28c53 0 98 23 98 94c0 21 -4 47 -13 77l-68 240h131l74 -273c7 -25 10 -50 10 -75c0 -115 -77 -200 -231 -200c-67 0 -118 19 -153 38c-21 11 -39 24 -54 39z" />
    <glyph glyph-name="dieresis" unicode="&#xa8;" horiz-adv-x="485" 
d="M299 771v140h131v-140h-131zM55 771v140h131v-140h-131z" />
    <glyph glyph-name="copyright" unicode="&#xa9;" horiz-adv-x="788" 
d="M33 358c0 204 162 368 359 368c202 0 363 -164 363 -368s-161 -370 -363 -370c-197 0 -359 166 -359 370zM146 358c0 -148 107 -267 246 -267c142 0 251 119 251 267s-109 265 -251 265c-139 0 -246 -117 -246 -265zM222 355c0 106 80 187 172 187c65 0 106 -28 130 -57
c14 -17 25 -37 32 -58l-100 -39c-3 9 -7 18 -12 25c-9 12 -23 24 -46 24c-31 0 -59 -33 -59 -82c0 -55 24 -82 59 -82c23 0 37 13 46 25c5 7 9 15 12 24l100 -39c-7 -21 -18 -40 -32 -57c-24 -29 -65 -58 -130 -58c-92 0 -172 81 -172 187z" />
    <glyph glyph-name="ordfeminine" unicode="&#xaa;" horiz-adv-x="417" 
d="M158 383c-52 0 -105 39 -105 102c0 104 132 109 181 109h5v8c0 27 -20 36 -47 36c-19 0 -39 -6 -54 -13c-9 -4 -17 -9 -26 -14l-38 75c11 7 23 14 36 20c23 11 58 19 102 19c96 0 145 -52 145 -135v-200h-108v39h-2c-5 -8 -12 -16 -20 -23c-15 -12 -36 -23 -69 -23z
M193 472c24 0 45 22 45 45v5h-10c-29 0 -58 -7 -58 -30c0 -15 11 -20 23 -20zM56 268v85h305v-85h-305z" />
    <glyph glyph-name="guillemotleft" unicode="&#xab;" horiz-adv-x="652" 
d="M289 282l164 206h158l-164 -206l164 -205h-158zM193 77l-164 205l164 206h158l-164 -206l164 -205h-158z" />
    <glyph glyph-name="logicalnot" unicode="&#xac;" horiz-adv-x="593" 
d="M32 337v130h506v-335h-135v205h-371z" />
    <glyph glyph-name="registered" unicode="&#xae;" horiz-adv-x="788" 
d="M33 358c0 204 162 368 359 368c202 0 363 -164 363 -368s-161 -370 -363 -370c-197 0 -359 166 -359 370zM146 358c0 -148 107 -267 246 -267c142 0 251 119 251 267s-109 265 -251 265c-139 0 -246 -117 -246 -265zM262 187v347h163c76 0 122 -44 122 -115
c0 -57 -41 -83 -58 -89v-2l3 -4c3 -3 6 -7 10 -16l63 -121h-118l-49 118h-28v-118h-108zM370 377h27c27 0 40 14 40 42c0 27 -13 41 -38 41h-29v-83z" />
    <glyph glyph-name="macron" unicode="&#xaf;" horiz-adv-x="485" 
d="M105 782v112h275v-112h-275z" />
    <glyph glyph-name="degree" unicode="&#xb0;" horiz-adv-x="420" 
d="M210 385c-101 0 -181 76 -181 172c0 93 80 173 181 173c100 0 181 -80 181 -173c0 -96 -81 -172 -181 -172zM210 505c31 0 55 22 55 53c0 28 -24 52 -55 52s-55 -24 -55 -52c0 -31 24 -53 55 -53z" />
    <glyph glyph-name="plusminus" unicode="&#xb1;" horiz-adv-x="630" 
d="M42 222v130h205v223h136v-223h205v-130h-205v-222h-136v222h-205zM52 -70h526v-130h-526v130z" />
    <glyph glyph-name="acute" unicode="&#xb4;" horiz-adv-x="484" 
d="M98 761l116 150h177l-151 -150h-142z" />
    <glyph glyph-name="mu" unicode="&#xb5;" horiz-adv-x="630" 
d="M60 -200v715h173v-302c0 -48 19 -68 55 -68c75 0 109 66 109 142v228h173v-515h-166v50c0 5 0 10 1 17c1 3 1 7 1 10h-3c-9 -17 -20 -31 -35 -44c-25 -23 -65 -45 -125 -45c-12 0 -23 1 -30 2l-12 2h-2l4 -29c3 -17 4 -39 4 -59v-104h-147z" />
    <glyph glyph-name="mu" unicode="&#x3bc;" horiz-adv-x="630" 
d="M60 -200v715h173v-302c0 -48 19 -68 55 -68c75 0 109 66 109 142v228h173v-515h-166v50c0 5 0 10 1 17c1 3 1 7 1 10h-3c-9 -17 -20 -31 -35 -44c-25 -23 -65 -45 -125 -45c-12 0 -23 1 -30 2l-12 2h-2l4 -29c3 -17 4 -39 4 -59v-104h-147z" />
    <glyph glyph-name="paragraph" unicode="&#xb6;" horiz-adv-x="660" 
d="M256 -50v291c-128 0 -233 105 -233 238c0 134 105 236 233 236h357v-150h-237v-615h-120zM438 -50v565h120v-565h-120z" />
    <glyph glyph-name="periodcentered" unicode="&#xb7;" horiz-adv-x="296" 
d="M69 213v164h158v-164h-158z" />
    <glyph glyph-name="cedilla" unicode="&#xb8;" horiz-adv-x="484" 
d="M155 -104l44 133l72 -17v-7l-19 -55c51 -3 95 -31 95 -86c0 -69 -72 -98 -139 -98c-17 0 -35 1 -48 4c-7 1 -14 3 -21 5v75l14 -4c9 -3 20 -4 35 -4c19 0 48 5 48 26c0 23 -29 28 -56 28h-25z" />
    <glyph glyph-name="ordmasculine" unicode="&#xba;" horiz-adv-x="458" 
d="M229 385c-100 0 -182 68 -182 170s82 170 181 170c101 0 184 -68 184 -170s-82 -170 -183 -170zM229 488c35 0 63 24 63 67c0 41 -28 68 -63 68s-63 -27 -63 -68c0 -43 28 -67 63 -67zM60 268v85h338v-85h-338z" />
    <glyph glyph-name="guillemotright" unicode="&#xbb;" horiz-adv-x="652" 
d="M301 77l164 205l-164 206h158l164 -206l-164 -205h-158zM41 77l164 205l-164 206h158l164 -206l-164 -205h-158z" />
    <glyph glyph-name="questiondown" unicode="&#xbf;" horiz-adv-x="506" 
d="M213 365v150h158v-150h-158zM38 -14c0 164 171 188 171 277v31h166v-45c0 -135 -157 -159 -157 -243c0 -35 32 -59 71 -59c24 0 47 10 66 21c11 7 20 14 29 22l96 -117c-15 -16 -33 -30 -54 -42c-36 -21 -87 -41 -155 -41c-112 0 -233 67 -233 196z" />
    <glyph glyph-name="Agrave" unicode="&#xc0;" horiz-adv-x="730" 
d="M9 0v130h59l195 585h204l195 -585h59v-130h-299v130h62l-27 95h-184l-27 -95h62v-130h-299zM311 361h107l-37 132c-7 23 -8 41 -11 54l-3 21h-4c0 -7 -1 -14 -2 -21c-3 -13 -5 -31 -12 -54zM311 761l-151 150h177l116 -150h-142z" />
    <glyph glyph-name="Aacute" unicode="&#xc1;" horiz-adv-x="732" 
d="M10 0v130h59l195 585h204l195 -585h59v-130h-299v130h62l-27 95h-184l-27 -95h62v-130h-299zM312 361h107l-37 132c-7 23 -8 41 -11 54l-3 21h-4c0 -7 -1 -14 -2 -21c-3 -13 -5 -31 -12 -54zM274 761l116 150h177l-151 -150h-142z" />
    <glyph glyph-name="Acircumflex" unicode="&#xc2;" horiz-adv-x="732" 
d="M10 0v130h59l195 585h204l195 -585h59v-130h-299v130h62l-27 95h-184l-27 -95h62v-130h-299zM312 361h107l-37 132c-7 23 -8 41 -11 54l-3 21h-4c0 -7 -1 -14 -2 -21c-3 -13 -5 -31 -12 -54zM181 761l99 150h168l99 -150h-135l-47 82h-2l-47 -82h-135z" />
    <glyph glyph-name="Atilde" unicode="&#xc3;" horiz-adv-x="732" 
d="M10 0v130h59l195 585h204l195 -585h59v-130h-299v130h62l-27 95h-184l-27 -95h62v-130h-299zM312 361h107l-37 132c-7 23 -8 41 -11 54l-3 21h-4c0 -7 -1 -14 -2 -21c-3 -13 -5 -31 -12 -54zM275 761h-112c0 102 43 153 128 153c66 0 89 -60 126 -60c25 0 37 19 37 57
h112c0 -102 -43 -153 -128 -153c-66 0 -89 60 -126 60c-25 0 -37 -19 -37 -57z" />
    <glyph glyph-name="Adieresis" unicode="&#xc4;" horiz-adv-x="732" 
d="M10 0v130h59l195 585h204l195 -585h59v-130h-299v130h62l-27 95h-184l-27 -95h62v-130h-299zM312 361h107l-37 132c-7 23 -8 41 -11 54l-3 21h-4c0 -7 -1 -14 -2 -21c-3 -13 -5 -31 -12 -54zM421 771v140h131v-140h-131zM177 771v140h131v-140h-131z" />
    <glyph glyph-name="Aring" unicode="&#xc5;" horiz-adv-x="732" 
d="M10 0v130h59l195 585h204l195 -585h59v-130h-299v130h62l-27 95h-184l-27 -95h62v-130h-299zM312 361h107l-37 132c-7 23 -8 41 -11 54l-3 21h-4c0 -7 -1 -14 -2 -21c-3 -13 -5 -31 -12 -54zM364 747c-56 0 -117 28 -117 91c0 64 61 93 117 93c57 0 119 -29 119 -93
c0 -63 -62 -91 -119 -91zM364 801c23 0 38 14 38 37c0 24 -15 39 -38 39c-21 0 -36 -15 -36 -39c0 -23 13 -37 36 -37z" />
    <glyph glyph-name="AE" unicode="&#xc6;" horiz-adv-x="996" 
d="M11 0v130h54l190 455h-70v130h752v-211h-140v71h-146v-145h204v-140h-204v-150h158v71h140v-211h-558v130h81v163h-167l-63 -163h68v-130h-299zM356 424h116v151h-57z" />
    <glyph glyph-name="Ccedilla" unicode="&#xc7;" horiz-adv-x="748" 
d="M322 -104l31 96c-188 27 -319 177 -319 367c0 213 165 368 374 368c87 0 289 -27 289 -143v-113h-160v55c0 40 -73 51 -121 51c-116 0 -197 -76 -197 -208c0 -148 88 -231 207 -231c32 0 119 8 119 51v55h160v-115c0 -102 -172 -138 -273 -141l-13 -38
c51 -3 95 -31 95 -86c0 -69 -72 -98 -139 -98c-17 0 -35 1 -48 4c-7 1 -14 3 -21 5v75l14 -4c9 -3 20 -4 35 -4c19 0 48 5 48 26c0 23 -29 28 -56 28h-25z" />
    <glyph glyph-name="Egrave" unicode="&#xc8;" horiz-adv-x="659" 
d="M49 0v130h80v455h-80v130h551v-211h-150v71h-142v-145h209v-140h-209v-150h154v71h150v-211h-563zM290 761l-151 150h177l116 -150h-142z" />
    <glyph glyph-name="Eacute" unicode="&#xc9;" horiz-adv-x="659" 
d="M49 0v130h80v455h-80v130h551v-211h-150v71h-142v-145h209v-140h-209v-150h154v71h150v-211h-563zM252 761l116 150h177l-151 -150h-142z" />
    <glyph glyph-name="Ecircumflex" unicode="&#xca;" horiz-adv-x="659" 
d="M49 0v130h80v455h-80v130h551v-211h-150v71h-142v-145h209v-140h-209v-150h154v71h150v-211h-563zM159 761l99 150h168l99 -150h-135l-47 82h-2l-47 -82h-135z" />
    <glyph glyph-name="Edieresis" unicode="&#xcb;" horiz-adv-x="659" 
d="M49 0v130h80v455h-80v130h551v-211h-150v71h-142v-145h209v-140h-209v-150h154v71h150v-211h-563zM399 771v140h131v-140h-131zM155 771v140h131v-140h-131z" />
    <glyph glyph-name="Igrave" unicode="&#xcc;" horiz-adv-x="437" 
d="M49 0v130h80v455h-80v130h339v-130h-80v-455h80v-130h-339zM167 761l-151 150h177l116 -150h-142z" />
    <glyph glyph-name="Iacute" unicode="&#xcd;" horiz-adv-x="437" 
d="M49 0v130h80v455h-80v130h339v-130h-80v-455h80v-130h-339zM129 761l116 150h177l-151 -150h-142z" />
    <glyph glyph-name="Icircumflex" unicode="&#xce;" horiz-adv-x="437" 
d="M49 0v130h80v455h-80v130h339v-130h-80v-455h80v-130h-339zM36 761l99 150h168l99 -150h-135l-47 82h-2l-47 -82h-135z" />
    <glyph glyph-name="Idieresis" unicode="&#xcf;" horiz-adv-x="437" 
d="M49 0v130h80v455h-80v130h339v-130h-80v-455h80v-130h-339zM276 771v140h131v-140h-131zM32 771v140h131v-140h-131z" />
    <glyph glyph-name="Ntilde" unicode="&#xd1;" horiz-adv-x="859" 
d="M49 0v130h80v455h-80v130h261l224 -379c9 -15 16 -32 21 -47l9 -26h4l-3 28c-3 16 -3 36 -3 52v242h-84v130h343v-130h-80v-585h-180l-225 377c-8 15 -16 32 -21 47l-9 26h-4l3 -28c3 -16 3 -36 3 -52v-240h84v-130h-343zM343 761h-112c0 102 43 153 128 153
c66 0 89 -60 126 -60c25 0 37 19 37 57h112c0 -102 -43 -153 -128 -153c-66 0 -89 60 -126 60c-25 0 -37 -19 -37 -57z" />
    <glyph glyph-name="Ograve" unicode="&#xd2;" 
d="M34 362c0 205 157 365 376 365s376 -160 376 -365c0 -210 -157 -374 -376 -374s-376 164 -376 374zM219 362c0 -125 86 -219 191 -219s191 94 191 219c0 120 -86 210 -191 210s-191 -90 -191 -210zM358 761l-151 150h177l116 -150h-142z" />
    <glyph glyph-name="Oacute" unicode="&#xd3;" 
d="M34 362c0 205 157 365 376 365s376 -160 376 -365c0 -210 -157 -374 -376 -374s-376 164 -376 374zM219 362c0 -125 86 -219 191 -219s191 94 191 219c0 120 -86 210 -191 210s-191 -90 -191 -210zM320 761l116 150h177l-151 -150h-142z" />
    <glyph glyph-name="Ocircumflex" unicode="&#xd4;" 
d="M34 362c0 205 157 365 376 365s376 -160 376 -365c0 -210 -157 -374 -376 -374s-376 164 -376 374zM219 362c0 -125 86 -219 191 -219s191 94 191 219c0 120 -86 210 -191 210s-191 -90 -191 -210zM227 761l99 150h168l99 -150h-135l-47 82h-2l-47 -82h-135z" />
    <glyph glyph-name="Otilde" unicode="&#xd5;" 
d="M34 362c0 205 157 365 376 365s376 -160 376 -365c0 -210 -157 -374 -376 -374s-376 164 -376 374zM219 362c0 -125 86 -219 191 -219s191 94 191 219c0 120 -86 210 -191 210s-191 -90 -191 -210zM321 761h-112c0 102 43 153 128 153c66 0 89 -60 126 -60
c25 0 37 19 37 57h112c0 -102 -43 -153 -128 -153c-66 0 -89 60 -126 60c-25 0 -37 -19 -37 -57z" />
    <glyph glyph-name="Odieresis" unicode="&#xd6;" 
d="M34 362c0 205 157 365 376 365s376 -160 376 -365c0 -210 -157 -374 -376 -374s-376 164 -376 374zM219 362c0 -125 86 -219 191 -219s191 94 191 219c0 120 -86 210 -191 210s-191 -90 -191 -210zM467 771v140h131v-140h-131zM223 771v140h131v-140h-131z" />
    <glyph glyph-name="Oslash" unicode="&#xd8;" horiz-adv-x="816" 
d="M102 20l48 66c-73 68 -116 164 -116 276c0 205 158 365 374 365c65 0 124 -13 176 -40l41 56l70 -47l-40 -55c80 -68 127 -166 127 -279c0 -210 -158 -374 -374 -374c-72 0 -134 17 -190 48l-46 -64zM254 230l232 320c-25 11 -51 17 -78 17c-107 0 -193 -86 -193 -205
c0 -51 14 -97 39 -132zM553 499l-237 -327c27 -15 59 -24 92 -24c107 0 193 90 193 214c0 55 -17 102 -48 137z" />
    <glyph glyph-name="Ugrave" unicode="&#xd9;" 
d="M107 273v312h-80v130h339v-130h-80v-312c0 -32 7 -60 18 -79c19 -32 58 -51 107 -51c47 0 81 15 104 50c13 21 19 47 19 80v312h-80v130h339v-130h-80v-312c0 -72 -22 -139 -59 -186c-56 -68 -149 -99 -244 -99c-103 0 -191 36 -243 96c-43 48 -60 113 -60 189zM358 761
l-151 150h177l116 -150h-142z" />
    <glyph glyph-name="Uacute" unicode="&#xda;" 
d="M107 273v312h-80v130h339v-130h-80v-312c0 -32 7 -60 18 -79c19 -32 58 -51 107 -51c47 0 81 15 104 50c13 21 19 47 19 80v312h-80v130h339v-130h-80v-312c0 -72 -22 -139 -59 -186c-56 -68 -149 -99 -244 -99c-103 0 -191 36 -243 96c-43 48 -60 113 -60 189zM320 761
l116 150h177l-151 -150h-142z" />
    <glyph glyph-name="Ucircumflex" unicode="&#xdb;" 
d="M107 273v312h-80v130h339v-130h-80v-312c0 -32 7 -60 18 -79c19 -32 58 -51 107 -51c47 0 81 15 104 50c13 21 19 47 19 80v312h-80v130h339v-130h-80v-312c0 -72 -22 -139 -59 -186c-56 -68 -149 -99 -244 -99c-103 0 -191 36 -243 96c-43 48 -60 113 -60 189zM227 761
l99 150h168l99 -150h-135l-47 82h-2l-47 -82h-135z" />
    <glyph glyph-name="Udieresis" unicode="&#xdc;" 
d="M107 273v312h-80v130h339v-130h-80v-312c0 -32 7 -60 18 -79c19 -32 58 -51 107 -51c47 0 81 15 104 50c13 21 19 47 19 80v312h-80v130h339v-130h-80v-312c0 -72 -22 -139 -59 -186c-56 -68 -149 -99 -244 -99c-103 0 -191 36 -243 96c-43 48 -60 113 -60 189zM467 771
v140h131v-140h-131zM223 771v140h131v-140h-131z" />
    <glyph glyph-name="germandbls" unicode="&#xdf;" horiz-adv-x="665" 
d="M28 0v125h65v402c0 132 124 200 255 200c121 0 231 -77 231 -193c0 -80 -72 -105 -72 -160c0 -49 134 -79 134 -206c0 -117 -93 -175 -194 -175c-44 0 -75 6 -95 11c-12 3 -22 6 -29 10v142l29 -9c19 -5 42 -10 66 -10c27 0 50 9 50 42c0 46 -135 79 -135 191
c0 74 72 108 72 160c0 31 -23 53 -62 53c-41 0 -77 -16 -77 -68v-515h-238z" />
    <glyph glyph-name="agrave" unicode="&#xe0;" horiz-adv-x="583" 
d="M23 147c0 151 195 173 275 173h31v15c0 43 -34 57 -73 57c-35 0 -70 -12 -97 -24c-16 -7 -31 -16 -45 -25l-60 117c18 13 38 24 60 34c39 17 93 33 158 33c151 0 230 -74 230 -210v-170c0 -15 7 -22 22 -22h38v-125h-149c-51 0 -69 29 -69 54v3c0 5 0 9 1 11s1 4 1 5h-2
c-9 -16 -21 -30 -35 -42c-24 -21 -61 -43 -117 -43c-90 0 -169 55 -169 159zM197 159c0 -27 18 -46 46 -46c44 0 88 53 88 98v12h-16c-57 0 -118 -18 -118 -64zM227 565l-151 150h177l116 -150h-142z" />
    <glyph glyph-name="aacute" unicode="&#xe1;" horiz-adv-x="583" 
d="M23 147c0 151 195 173 275 173h31v15c0 43 -34 57 -73 57c-35 0 -70 -12 -97 -24c-16 -7 -31 -16 -45 -25l-60 117c18 13 38 24 60 34c39 17 93 33 158 33c151 0 230 -74 230 -210v-170c0 -15 7 -22 22 -22h38v-125h-149c-51 0 -69 29 -69 54v3c0 5 0 9 1 11s1 4 1 5h-2
c-9 -16 -21 -30 -35 -42c-24 -21 -61 -43 -117 -43c-90 0 -169 55 -169 159zM197 159c0 -27 18 -46 46 -46c44 0 88 53 88 98v12h-16c-57 0 -118 -18 -118 -64zM189 565l116 150h177l-151 -150h-142z" />
    <glyph glyph-name="acircumflex" unicode="&#xe2;" horiz-adv-x="583" 
d="M23 147c0 151 195 173 275 173h31v15c0 43 -34 57 -73 57c-35 0 -70 -12 -97 -24c-16 -7 -31 -16 -45 -25l-60 117c18 13 38 24 60 34c39 17 93 33 158 33c151 0 230 -74 230 -210v-170c0 -15 7 -22 22 -22h38v-125h-149c-51 0 -69 29 -69 54v3c0 5 0 9 1 11s1 4 1 5h-2
c-9 -16 -21 -30 -35 -42c-24 -21 -61 -43 -117 -43c-90 0 -169 55 -169 159zM197 159c0 -27 18 -46 46 -46c44 0 88 53 88 98v12h-16c-57 0 -118 -18 -118 -64zM96 565l99 150h168l99 -150h-135l-47 82h-2l-47 -82h-135z" />
    <glyph glyph-name="atilde" unicode="&#xe3;" horiz-adv-x="583" 
d="M23 147c0 151 195 173 275 173h31v15c0 43 -34 57 -73 57c-35 0 -70 -12 -97 -24c-16 -7 -31 -16 -45 -25l-60 117c18 13 38 24 60 34c39 17 93 33 158 33c151 0 230 -74 230 -210v-170c0 -15 7 -22 22 -22h38v-125h-149c-51 0 -69 29 -69 54v3c0 5 0 9 1 11s1 4 1 5h-2
c-9 -16 -21 -30 -35 -42c-24 -21 -61 -43 -117 -43c-90 0 -169 55 -169 159zM197 159c0 -27 18 -46 46 -46c44 0 88 53 88 98v12h-16c-57 0 -118 -18 -118 -64zM190 565h-112c0 102 43 153 128 153c66 0 89 -60 126 -60c25 0 37 19 37 57h112c0 -102 -43 -153 -128 -153
c-66 0 -89 60 -126 60c-25 0 -37 -19 -37 -57z" />
    <glyph glyph-name="adieresis" unicode="&#xe4;" horiz-adv-x="583" 
d="M23 147c0 151 195 173 275 173h31v15c0 43 -34 57 -73 57c-35 0 -70 -12 -97 -24c-16 -7 -31 -16 -45 -25l-60 117c18 13 38 24 60 34c39 17 93 33 158 33c151 0 230 -74 230 -210v-170c0 -15 7 -22 22 -22h38v-125h-149c-51 0 -69 29 -69 54v3c0 5 0 9 1 11s1 4 1 5h-2
c-9 -16 -21 -30 -35 -42c-24 -21 -61 -43 -117 -43c-90 0 -169 55 -169 159zM197 159c0 -27 18 -46 46 -46c44 0 88 53 88 98v12h-16c-57 0 -118 -18 -118 -64zM336 575v140h131v-140h-131zM92 575v140h131v-140h-131z" />
    <glyph glyph-name="aring" unicode="&#xe5;" horiz-adv-x="583" 
d="M23 147c0 151 195 173 275 173h31v15c0 43 -34 57 -73 57c-35 0 -70 -12 -97 -24c-16 -7 -31 -16 -45 -25l-60 117c18 13 38 24 60 34c39 17 93 33 158 33c151 0 230 -74 230 -210v-170c0 -15 7 -22 22 -22h38v-125h-149c-51 0 -69 29 -69 54v3c0 5 0 9 1 11s1 4 1 5h-2
c-9 -16 -21 -30 -35 -42c-24 -21 -61 -43 -117 -43c-90 0 -169 55 -169 159zM197 159c0 -27 18 -46 46 -46c44 0 88 53 88 98v12h-16c-57 0 -118 -18 -118 -64zM279 551c-56 0 -117 28 -117 91c0 64 61 93 117 93c57 0 119 -29 119 -93c0 -63 -62 -91 -119 -91zM279 605
c23 0 38 14 38 37c0 24 -15 39 -38 39c-21 0 -36 -15 -36 -39c0 -23 13 -37 36 -37z" />
    <glyph glyph-name="ae" unicode="&#xe6;" horiz-adv-x="849" 
d="M21 152c0 151 208 168 297 168h9v10c0 51 -29 62 -70 62c-35 0 -71 -12 -99 -24c-17 -7 -32 -16 -46 -25l-60 117c19 13 39 24 62 34c39 17 94 33 159 33c76 0 119 -19 154 -51h2c39 32 87 51 154 51c147 0 238 -107 238 -254c0 -8 -1 -20 -2 -31l-2 -18h-325
c13 -69 64 -97 120 -97c37 0 72 13 99 26c15 7 30 16 43 25l64 -115c-17 -13 -37 -26 -59 -37c-39 -19 -92 -38 -161 -38c-100 0 -162 34 -207 90h-2c-13 -24 -70 -89 -193 -89c-96 0 -175 63 -175 163zM496 320h151c0 37 -25 77 -64 77c-51 0 -76 -30 -87 -77zM190 159
c0 -24 17 -43 48 -43c47 0 91 50 91 95v12h-16c-57 0 -123 -18 -123 -64z" />
    <glyph glyph-name="ccedilla" unicode="&#xe7;" horiz-adv-x="567" 
d="M216 -104l32 99c-123 24 -223 120 -223 261c0 149 115 271 282 271c103 0 227 -36 227 -131v-82h-147v31c0 25 -33 38 -73 38c-81 0 -115 -50 -115 -121c0 -92 59 -131 130 -131c52 0 111 22 155 57l58 -121c-53 -49 -136 -76 -216 -79l-13 -38c51 -3 95 -31 95 -86
c0 -69 -72 -98 -139 -98c-17 0 -35 1 -48 4c-7 1 -14 3 -21 5v75l14 -4c9 -3 20 -4 35 -4c19 0 48 5 48 26c0 23 -29 28 -56 28h-25z" />
    <glyph glyph-name="egrave" unicode="&#xe8;" horiz-adv-x="562" 
d="M25 258c0 151 102 269 268 269c154 0 240 -106 240 -249c0 -8 -1 -21 -2 -32l-2 -20h-327c13 -67 64 -95 120 -95c39 0 74 13 101 25c16 7 31 15 44 24l63 -120c-17 -13 -37 -25 -59 -36c-39 -19 -92 -36 -163 -36c-184 0 -283 133 -283 270zM206 321h148
c0 41 -26 76 -65 76c-51 0 -74 -36 -83 -76zM239 565l-151 150h177l116 -150h-142z" />
    <glyph glyph-name="eacute" unicode="&#xe9;" horiz-adv-x="562" 
d="M25 258c0 151 102 269 268 269c154 0 240 -106 240 -249c0 -8 -1 -21 -2 -32l-2 -20h-327c13 -67 64 -95 120 -95c39 0 74 13 101 25c16 7 31 15 44 24l63 -120c-17 -13 -37 -25 -59 -36c-39 -19 -92 -36 -163 -36c-184 0 -283 133 -283 270zM206 321h148
c0 41 -26 76 -65 76c-51 0 -74 -36 -83 -76zM201 565l116 150h177l-151 -150h-142z" />
    <glyph glyph-name="ecircumflex" unicode="&#xea;" horiz-adv-x="562" 
d="M25 258c0 151 102 269 268 269c154 0 240 -106 240 -249c0 -8 -1 -21 -2 -32l-2 -20h-327c13 -67 64 -95 120 -95c39 0 74 13 101 25c16 7 31 15 44 24l63 -120c-17 -13 -37 -25 -59 -36c-39 -19 -92 -36 -163 -36c-184 0 -283 133 -283 270zM206 321h148
c0 41 -26 76 -65 76c-51 0 -74 -36 -83 -76zM108 565l99 150h168l99 -150h-135l-47 82h-2l-47 -82h-135z" />
    <glyph glyph-name="edieresis" unicode="&#xeb;" horiz-adv-x="562" 
d="M25 258c0 151 102 269 268 269c154 0 240 -106 240 -249c0 -8 -1 -21 -2 -32l-2 -20h-327c13 -67 64 -95 120 -95c39 0 74 13 101 25c16 7 31 15 44 24l63 -120c-17 -13 -37 -25 -59 -36c-39 -19 -92 -36 -163 -36c-184 0 -283 133 -283 270zM206 321h148
c0 41 -26 76 -65 76c-51 0 -74 -36 -83 -76zM348 575v140h131v-140h-131zM104 575v140h131v-140h-131z" />
    <glyph glyph-name="igrave" unicode="&#xec;" horiz-adv-x="373" 
d="M42 0v125h65v265h-70v125h243v-390h65v-125h-303zM140 565l-151 150h177l116 -150h-142z" />
    <glyph glyph-name="iacute" unicode="&#xed;" horiz-adv-x="373" 
d="M42 0v125h65v265h-70v125h243v-390h65v-125h-303zM102 565l116 150h177l-151 -150h-142z" />
    <glyph glyph-name="icircumflex" unicode="&#xee;" horiz-adv-x="373" 
d="M42 0v125h65v265h-70v125h243v-390h65v-125h-303zM9 565l99 150h168l99 -150h-135l-47 82h-2l-47 -82h-135z" />
    <glyph glyph-name="idieresis" unicode="&#xef;" horiz-adv-x="373" 
d="M42 0v125h65v265h-70v125h243v-390h65v-125h-303zM229 575v140h131v-140h-131zM15 575v140h131v-140h-131z" />
    <glyph glyph-name="ntilde" unicode="&#xf1;" horiz-adv-x="708" 
d="M42 0v125h65v243c0 15 -7 22 -22 22h-48v125h164c47 0 71 -23 71 -58v-17v-8c0 -1 0 -3 -1 -4h2c9 19 22 35 39 50c28 25 71 49 136 49c97 0 174 -49 174 -193v-209h65v-125h-238v302c0 48 -19 68 -58 68c-77 0 -111 -80 -111 -152v-93h65v-125h-303zM279 565h-112
c0 102 43 153 128 153c66 0 89 -60 126 -60c25 0 37 19 37 57h112c0 -102 -43 -153 -128 -153c-66 0 -89 60 -126 60c-25 0 -37 -19 -37 -57z" />
    <glyph glyph-name="ograve" unicode="&#xf2;" horiz-adv-x="634" 
d="M25 256c0 163 131 271 291 271c163 0 293 -108 293 -271c0 -161 -130 -268 -292 -268s-292 107 -292 268zM200 256c0 -77 54 -124 117 -124s117 47 117 124s-54 127 -117 127s-117 -50 -117 -127zM265 565l-151 150h177l116 -150h-142z" />
    <glyph glyph-name="oacute" unicode="&#xf3;" horiz-adv-x="634" 
d="M25 256c0 163 131 271 291 271c163 0 293 -108 293 -271c0 -161 -130 -268 -292 -268s-292 107 -292 268zM200 256c0 -77 54 -124 117 -124s117 47 117 124s-54 127 -117 127s-117 -50 -117 -127zM227 565l116 150h177l-151 -150h-142z" />
    <glyph glyph-name="ocircumflex" unicode="&#xf4;" horiz-adv-x="634" 
d="M25 256c0 163 131 271 291 271c163 0 293 -108 293 -271c0 -161 -130 -268 -292 -268s-292 107 -292 268zM200 256c0 -77 54 -124 117 -124s117 47 117 124s-54 127 -117 127s-117 -50 -117 -127zM134 565l99 150h168l99 -150h-135l-47 82h-2l-47 -82h-135z" />
    <glyph glyph-name="otilde" unicode="&#xf5;" horiz-adv-x="634" 
d="M25 256c0 163 131 271 291 271c163 0 293 -108 293 -271c0 -161 -130 -268 -292 -268s-292 107 -292 268zM200 256c0 -77 54 -124 117 -124s117 47 117 124s-54 127 -117 127s-117 -50 -117 -127zM228 565h-112c0 102 43 153 128 153c66 0 89 -60 126 -60
c25 0 37 19 37 57h112c0 -102 -43 -153 -128 -153c-66 0 -89 60 -126 60c-25 0 -37 -19 -37 -57z" />
    <glyph glyph-name="odieresis" unicode="&#xf6;" horiz-adv-x="634" 
d="M25 256c0 163 131 271 291 271c163 0 293 -108 293 -271c0 -161 -130 -268 -292 -268s-292 107 -292 268zM200 256c0 -77 54 -124 117 -124s117 47 117 124s-54 127 -117 127s-117 -50 -117 -127zM374 575v140h131v-140h-131zM130 575v140h131v-140h-131z" />
    <glyph glyph-name="divide" unicode="&#xf7;" horiz-adv-x="630" 
d="M242 440v135h146v-135h-146zM42 222v130h546v-130h-546zM242 0v135h146v-135h-146z" />
    <glyph glyph-name="oslash" unicode="&#xf8;" horiz-adv-x="633" 
d="M86 -6l39 55c-60 47 -100 119 -100 207c0 163 131 271 291 271c47 0 94 -11 134 -28l42 58l60 -41l-40 -55c59 -48 97 -120 97 -205c0 -161 -130 -268 -292 -268c-45 0 -90 10 -127 25l-44 -61zM222 183l138 191c-13 4 -28 9 -43 9c-63 0 -117 -50 -117 -127
c0 -28 10 -54 22 -73zM415 325l-135 -187c11 -3 25 -6 37 -6c63 0 117 47 117 124c0 27 -8 50 -19 69z" />
    <glyph glyph-name="ugrave" unicode="&#xf9;" horiz-adv-x="694" 
d="M91 181v209h-70v125h243v-307c0 -48 18 -68 57 -68c68 0 107 79 107 157v93h-70v125h243v-368c0 -15 7 -22 22 -22h43v-125h-159c-47 0 -71 23 -71 58v14c0 4 1 7 1 10v5h-2c-9 -18 -22 -34 -38 -49c-27 -25 -70 -50 -137 -50c-91 0 -169 49 -169 193zM278 565l-151 150
h177l116 -150h-142z" />
    <glyph glyph-name="uacute" unicode="&#xfa;" horiz-adv-x="694" 
d="M91 181v209h-70v125h243v-307c0 -48 18 -68 57 -68c68 0 107 79 107 157v93h-70v125h243v-368c0 -15 7 -22 22 -22h43v-125h-159c-47 0 -71 23 -71 58v14c0 4 1 7 1 10v5h-2c-9 -18 -22 -34 -38 -49c-27 -25 -70 -50 -137 -50c-91 0 -169 49 -169 193zM240 565l116 150
h177l-151 -150h-142z" />
    <glyph glyph-name="ucircumflex" unicode="&#xfb;" horiz-adv-x="694" 
d="M91 181v209h-70v125h243v-307c0 -48 18 -68 57 -68c68 0 107 79 107 157v93h-70v125h243v-368c0 -15 7 -22 22 -22h43v-125h-159c-47 0 -71 23 -71 58v14c0 4 1 7 1 10v5h-2c-9 -18 -22 -34 -38 -49c-27 -25 -70 -50 -137 -50c-91 0 -169 49 -169 193zM147 565l99 150
h168l99 -150h-135l-47 82h-2l-47 -82h-135z" />
    <glyph glyph-name="udieresis" unicode="&#xfc;" horiz-adv-x="694" 
d="M91 181v209h-70v125h243v-307c0 -48 18 -68 57 -68c68 0 107 79 107 157v93h-70v125h243v-368c0 -15 7 -22 22 -22h43v-125h-159c-47 0 -71 23 -71 58v14c0 4 1 7 1 10v5h-2c-9 -18 -22 -34 -38 -49c-27 -25 -70 -50 -137 -50c-91 0 -169 49 -169 193zM387 575v140h131
v-140h-131zM143 575v140h131v-140h-131z" />
    <glyph glyph-name="ydieresis" unicode="&#xff;" horiz-adv-x="627" 
d="M12 -170l53 123c7 -5 14 -9 22 -12c15 -7 36 -12 63 -12c36 0 70 10 85 42l2 5l-170 414h-58v125h283v-125h-50l63 -191c5 -15 7 -32 10 -45c1 -7 2 -15 2 -22h4c1 7 2 15 4 22c3 13 7 30 12 45l61 191h-47v125h267v-125h-53l-166 -435c-48 -123 -139 -165 -240 -165
c-44 0 -80 9 -107 20c-15 6 -29 13 -40 20zM374 575v140h131v-140h-131zM130 575v140h131v-140h-131z" />
    <glyph glyph-name="dotlessi" unicode="&#x131;" horiz-adv-x="373" 
d="M42 0v125h65v265h-70v125h243v-390h65v-125h-303z" />
    <glyph glyph-name="OE" unicode="&#x152;" horiz-adv-x="1013" 
d="M32 359c0 205 173 364 384 364c69 0 88 -8 132 -8h406v-211h-140v71h-147v-146h204v-139h-204v-150h159v71h140v-211h-418c-44 0 -63 -8 -132 -8c-211 0 -384 162 -384 367zM213 359c0 -123 88 -223 203 -223c23 0 40 1 53 4l19 3v429l-19 4c-13 2 -30 3 -53 3
c-115 0 -203 -97 -203 -220z" />
    <glyph glyph-name="oe" unicode="&#x153;" horiz-adv-x="967" 
d="M25 256c0 163 128 271 285 271c99 0 150 -34 199 -80h2c40 45 90 80 190 80c152 0 238 -106 238 -249c0 -8 -1 -22 -2 -33l-2 -21h-324c13 -64 63 -97 119 -97c37 0 72 13 99 26c15 7 30 16 43 26l64 -116c-17 -13 -37 -26 -59 -37c-39 -19 -92 -38 -161 -38
c-107 0 -159 40 -201 85h-2c-48 -48 -101 -85 -202 -85c-159 0 -286 107 -286 268zM614 320h151c0 36 -27 77 -66 77c-52 0 -76 -36 -85 -77zM199 256c0 -77 54 -124 117 -124s117 47 117 124s-54 127 -117 127s-117 -50 -117 -127z" />
    <glyph glyph-name="Ydieresis" unicode="&#x178;" horiz-adv-x="671" 
d="M166 0v130h80v163l-175 292h-61v130h296v-130h-60l73 -132c7 -11 9 -18 12 -25c2 -3 3 -7 4 -10h2c1 3 2 7 4 10l12 25l73 132h-60v130h295v-130h-61l-175 -292v-163h80v-130h-339zM395 771v140h131v-140h-131zM151 771v140h131v-140h-131z" />
    <glyph glyph-name="florin" unicode="&#x192;" horiz-adv-x="546" 
d="M-5 -118v146l29 -3c16 -3 33 -4 41 -4c33 0 87 9 92 64l19 225h-62v135h74l9 90c16 169 167 192 252 192c16 0 37 -1 56 -4l32 -4v-146l-32 4c-17 3 -36 3 -44 3c-35 0 -88 -9 -93 -64l-7 -71h95v-135h-107l-21 -244c-16 -169 -167 -192 -251 -192c-15 0 -36 1 -53 4z
" />
    <glyph glyph-name="circumflex" unicode="&#x2c6;" horiz-adv-x="486" 
d="M60 761l99 150h168l99 -150h-135l-47 82h-2l-47 -82h-135z" />
    <glyph glyph-name="caron" unicode="&#x2c7;" horiz-adv-x="486" 
d="M159 761l-99 150h135l47 -82h2l47 82h135l-99 -150h-168z" />
    <glyph glyph-name="breve" unicode="&#x2d8;" horiz-adv-x="484" 
d="M242 756c-93 0 -174 52 -174 145v10h117v-11c0 -40 30 -58 57 -58s57 18 57 58v11h117v-10c0 -93 -81 -145 -174 -145z" />
    <glyph glyph-name="dotaccent" unicode="&#x2d9;" horiz-adv-x="485" 
d="M171 779v132h143v-132h-143z" />
    <glyph glyph-name="ring" unicode="&#x2da;" horiz-adv-x="485" 
d="M242 747c-56 0 -117 28 -117 91c0 64 61 93 117 93c57 0 119 -29 119 -93c0 -63 -62 -91 -119 -91zM242 801c23 0 38 14 38 37c0 24 -15 39 -38 39c-21 0 -36 -15 -36 -39c0 -23 13 -37 36 -37z" />
    <glyph glyph-name="ogonek" unicode="&#x2db;" horiz-adv-x="486" 
d="M132 -127c0 59 39 117 103 150h96v-23c-29 0 -77 -54 -77 -94c0 -19 10 -35 57 -38l-28 -110c-95 11 -151 51 -151 115z" />
    <glyph glyph-name="tilde" unicode="&#x2dc;" horiz-adv-x="485" 
d="M153 761h-112c0 102 43 153 128 153c66 0 89 -60 126 -60c25 0 37 19 37 57h112c0 -102 -43 -153 -128 -153c-66 0 -89 60 -126 60c-25 0 -37 -19 -37 -57z" />
    <glyph glyph-name="hungarumlaut" unicode="&#x2dd;" horiz-adv-x="485" 
d="M225 761l81 150h163l-118 -150h-126zM17 761l76 150h139l-79 -150h-136z" />
    <glyph glyph-name="endash" unicode="&#x2013;" horiz-adv-x="738" 
d="M71 222v130h596v-130h-596z" />
    <glyph glyph-name="emdash" unicode="&#x2014;" horiz-adv-x="938" 
d="M71 222v130h796v-130h-796z" />
    <glyph glyph-name="quoteleft" unicode="&#x2018;" horiz-adv-x="261" 
d="M31 475l89 255h117l-54 -255h-152z" />
    <glyph glyph-name="quoteright" unicode="&#x2019;" horiz-adv-x="252" 
d="M36 475l54 255h152l-89 -255h-117z" />
    <glyph glyph-name="quotesinglbase" unicode="&#x201a;" horiz-adv-x="268" 
d="M22 -89l54 255h147l-89 -255h-112z" />
    <glyph glyph-name="quotedblleft" unicode="&#x201c;" horiz-adv-x="460" 
d="M229 475l89 255h118l-54 -255h-153zM31 475l89 255h118l-54 -255h-153z" />
    <glyph glyph-name="quotedblright" unicode="&#x201d;" horiz-adv-x="451" 
d="M234 475l54 255h153l-89 -255h-118zM36 475l54 255h153l-89 -255h-118z" />
    <glyph glyph-name="quotedblbase" unicode="&#x201e;" horiz-adv-x="460" 
d="M214 -89l54 255h147l-89 -255h-112zM22 -89l54 255h147l-89 -255h-112z" />
    <glyph glyph-name="dagger" unicode="&#x2020;" horiz-adv-x="492" 
d="M163 -50v435h-130v130h130v200h165v-200h131v-130h-131v-435h-165z" />
    <glyph glyph-name="daggerdbl" unicode="&#x2021;" horiz-adv-x="502" 
d="M38 150v130h130v105h-130v130h130v200h165v-200h131v-130h-131v-105h131v-130h-131v-200h-165v200h-130z" />
    <glyph glyph-name="bullet" unicode="&#x2022;" horiz-adv-x="460" 
d="M230 105c-103 0 -186 83 -186 186s83 186 186 186s186 -83 186 -186s-83 -186 -186 -186z" />
    <glyph glyph-name="ellipsis" unicode="&#x2026;" horiz-adv-x="926" 
d="M708 0v164h158v-164h-158zM384 0v164h158v-164h-158zM60 0v164h158v-164h-158z" />
    <glyph glyph-name="perthousand" unicode="&#x2030;" horiz-adv-x="1257" 
d="M220 382c-101 0 -181 76 -181 172c0 93 80 173 181 173c100 0 181 -80 181 -173c0 -96 -81 -172 -181 -172zM79 0l552 715h152l-552 -715h-152zM220 502c31 0 55 22 55 53c0 28 -24 52 -55 52s-55 -24 -55 -52c0 -31 24 -53 55 -53zM868 160c0 93 80 173 181 173
c100 0 181 -80 181 -173c0 -96 -81 -172 -181 -172c-101 0 -181 76 -181 172zM466 160c0 93 80 173 181 173c100 0 181 -80 181 -173c0 -96 -81 -172 -181 -172c-101 0 -181 76 -181 172zM994 161c0 -31 24 -53 55 -53s55 22 55 53c0 28 -24 52 -55 52s-55 -24 -55 -52z
M592 161c0 -31 24 -53 55 -53s55 22 55 53c0 28 -24 52 -55 52s-55 -24 -55 -52z" />
    <glyph glyph-name="guilsinglleft" unicode="&#x2039;" horiz-adv-x="392" 
d="M193 77l-164 205l164 206h158l-164 -206l164 -205h-158z" />
    <glyph glyph-name="guilsinglright" unicode="&#x203a;" horiz-adv-x="392" 
d="M41 77l164 205l-164 206h158l164 -206l-164 -205h-158z" />
    <glyph glyph-name="fraction" unicode="&#x2044;" horiz-adv-x="195" 
d="M-129 0l336 715h119l-336 -715h-119z" />
    <glyph glyph-name="Euro" unicode="&#x20ac;" horiz-adv-x="610" 
d="M35 232v91h56c-3 23 -4 41 -1 68h-55v91h72c45 141 181 245 345 245c31 0 58 -3 81 -7l36 -7l-41 -148l-25 5c-17 3 -35 5 -56 5c-69 0 -121 -37 -152 -93h215l-20 -91h-218c-3 -24 -1 -44 2 -68h202l-20 -91h-150c32 -53 86 -89 149 -89c25 0 48 4 67 8l30 7l28 -150
c-11 -4 -24 -7 -37 -10c-23 -5 -54 -10 -91 -10c-172 0 -297 102 -343 244h-74z" />
    <glyph glyph-name="trademark" unicode="&#x2122;" horiz-adv-x="979" 
d="M448 268l35 447h118l73 -175c3 -7 6 -19 9 -28c2 -5 3 -11 4 -16h2c1 5 2 11 4 16c3 9 6 21 9 28l73 175h118l33 -447h-127l-10 174v22c0 3 0 7 1 10h-2l-51 -125h-98l-51 125h-2c1 -3 1 -7 1 -10c0 -7 1 -14 0 -22l-12 -174h-127zM163 268v338h-142v109h408v-109h-140
v-338h-126z" />
    <glyph glyph-name="infinity" unicode="&#x221e;" horiz-adv-x="503" 
d="M252 143c-112 0 -206 94 -206 206c0 115 94 205 206 205c115 0 205 -90 205 -205c0 -112 -90 -206 -205 -206z" />
    <glyph glyph-name="approxequal" unicode="&#x2248;" horiz-adv-x="630" 
d="M113 322l-63 99c41 41 100 81 165 81c94 0 126 -70 198 -70c39 0 77 25 102 54l63 -99c-40 -40 -98 -81 -165 -81c-94 0 -126 70 -198 70c-39 0 -75 -26 -102 -54zM113 93l-63 99c41 41 100 81 165 81c94 0 126 -70 198 -70c39 0 77 25 102 54l63 -99
c-40 -40 -98 -81 -165 -81c-94 0 -126 70 -198 70c-39 0 -75 -26 -102 -54z" />
    <glyph glyph-name="notequal" unicode="&#x2260;" horiz-adv-x="630" 
d="M112 47l38 60h-88v130h171l64 100h-235v130h319l69 108l76 -49l-38 -59h80v-130h-163l-64 -100h227v-130h-310l-68 -107z" />
    <glyph glyph-name="lessequal" unicode="&#x2264;" horiz-adv-x="630" 
d="M53 234v107l504 223v-145l-330 -131v-2l330 -130v-145zM56 -70h501v-130h-501v130z" />
    <glyph glyph-name="greaterequal" unicode="&#x2265;" horiz-adv-x="630" 
d="M73 11v145l330 130v2l-330 131v145l504 -223v-107zM74 -70h501v-130h-501v130z" />
    <glyph glyph-name="uni00A0" unicode="&#xa0;" horiz-adv-x="232" 
 />
    <glyph glyph-name="quotedbl" unicode="&#x22;" horiz-adv-x="415" 
d="M242 490v240h122v-240h-122zM51 490v240h122v-240h-122z" />
    <glyph glyph-name="exclam" unicode="!" horiz-adv-x="294" 
d="M73 221l-16 494h180l-16 -494h-148zM68 0v150h158v-150h-158z" />
    <glyph glyph-name="twosuperior" unicode="&#xb2;" horiz-adv-x="400" 
d="M27 474c0 169 204 185 204 251c0 23 -23 34 -43 34c-21 0 -39 -11 -52 -22c-7 -7 -14 -14 -21 -23l-83 71c11 17 24 32 41 45c28 23 71 44 128 44c85 0 157 -48 157 -135c0 -143 -189 -155 -201 -218h110v43h97v-141h-331l-3 19c-2 11 -3 22 -3 32z" />
    <glyph glyph-name="threesuperior" unicode="&#xb3;" horiz-adv-x="393" 
d="M36 723v141h311v-79l-88 -101c71 -15 102 -57 102 -116c0 -77 -58 -155 -173 -155c-55 0 -93 17 -120 34c-16 10 -29 21 -40 34l61 85c7 -7 15 -14 24 -21c16 -11 39 -22 67 -22c35 0 54 18 54 42c0 27 -29 36 -62 36h-31l-24 57l72 89c5 7 11 12 16 16l8 7v4l-11 -2
c-7 -1 -15 -2 -23 -2h-46v-47h-97z" />
    <glyph glyph-name="onesuperior" unicode="&#xb9;" horiz-adv-x="378" 
d="M37 423v98h99v153c0 11 1 17 2 22l2 8h-4l-4 -5c-3 -3 -5 -8 -10 -12l-31 -27l-72 79l135 125h108v-343h100v-98h-325z" />
    <glyph glyph-name="onequarter" unicode="&#xbc;" horiz-adv-x="1018" 
d="M810 0v92h-197v79l171 270h150v-257h53v-92h-53v-92h-124zM722 184h88v105c0 11 2 22 3 33l2 17h-4c-1 -5 -2 -11 -5 -16c-4 -9 -8 -19 -15 -30l-69 -107v-2zM283 0l336 715h119l-336 -715h-119zM51 274v98h99v153c0 11 1 17 2 22l2 8h-4l-4 -5c-3 -3 -5 -8 -10 -12
l-31 -27l-72 79l135 125h108v-343h100v-98h-325z" />
    <glyph glyph-name="onehalf" unicode="&#xbd;" horiz-adv-x="1008" 
d="M282 0l336 715h119l-336 -715h-119zM46 274v98h99v153c0 11 1 17 2 22l2 8h-4l-4 -5c-3 -3 -5 -8 -10 -12l-31 -27l-72 79l135 125h108v-343h100v-98h-325zM635 51c0 169 204 185 204 251c0 23 -23 34 -43 34c-21 0 -39 -11 -52 -22c-7 -7 -14 -14 -21 -23l-83 71
c11 17 24 32 41 45c28 23 71 44 128 44c85 0 157 -48 157 -135c0 -143 -189 -155 -201 -218h110v43h97v-141h-331l-3 19c-2 11 -3 22 -3 32z" />
    <glyph glyph-name="threequarters" unicode="&#xbe;" horiz-adv-x="1017" 
d="M44 574v141h311v-79l-88 -101c71 -15 102 -57 102 -116c0 -77 -58 -155 -173 -155c-55 0 -93 17 -120 34c-16 10 -29 21 -40 34l61 85c7 -7 15 -14 24 -21c16 -11 39 -22 67 -22c35 0 54 18 54 42c0 27 -29 36 -62 36h-31l-24 57l72 89c5 7 11 12 16 16l8 7v4l-11 -2
c-7 -1 -15 -2 -23 -2h-46v-47h-97zM283 0l336 715h119l-336 -715h-119zM810 0v92h-197v79l171 270h150v-257h53v-92h-53v-92h-124zM722 184h88v105c0 11 2 22 3 33l2 17h-4c-1 -5 -2 -11 -5 -16c-4 -9 -8 -19 -15 -30l-69 -107v-2z" />
    <glyph glyph-name="Eth" unicode="&#xd0;" horiz-adv-x="794" 
d="M49 0v130h80v154h-70v140h70v161h-80v130h336c227 0 371 -131 371 -356s-144 -359 -371 -359h-336zM308 140h70c120 0 193 75 193 219c0 143 -77 216 -193 216h-70v-151h114v-140h-114v-144z" />
    <glyph glyph-name="multiply" unicode="&#xd7;" horiz-adv-x="630" 
d="M43 92l182 195l-182 196l92 92l179 -192l180 192l92 -92l-183 -196l183 -195l-92 -92l-180 192l-179 -192z" />
    <glyph glyph-name="Yacute" unicode="&#xdd;" horiz-adv-x="671" 
d="M166 0v130h80v163l-175 292h-61v130h296v-130h-60l73 -132c7 -11 9 -18 12 -25c2 -3 3 -7 4 -10h2c1 3 2 7 4 10l12 25l73 132h-60v130h295v-130h-61l-175 -292v-163h80v-130h-339zM248 761l116 150h177l-151 -150h-142z" />
    <glyph glyph-name="Thorn" unicode="&#xde;" horiz-adv-x="672" 
d="M49 0v130h80v455h-80v130h339v-130h-84v-46h140c140 0 215 -68 215 -176c0 -112 -75 -183 -215 -183h-140v-50h84v-130h-339zM304 310h93c61 0 84 17 84 53c0 35 -22 46 -81 46h-96v-99z" />
    <glyph glyph-name="eth" unicode="&#xf0;" horiz-adv-x="591" 
d="M26 241c0 116 87 223 231 223c20 0 37 -1 49 -4c7 -1 14 -3 20 -5h2c-15 21 -44 53 -75 70l-187 -76v75l105 43c-33 14 -82 31 -108 36l48 135c87 -19 177 -54 245 -95l148 63v-75l-86 -37c80 -76 132 -183 132 -311c0 -139 -69 -295 -270 -295c-162 0 -254 123 -254 253
zM200 236c0 -52 22 -104 83 -104c68 0 93 61 93 118c0 48 -30 82 -83 82c-64 0 -93 -45 -93 -96z" />
    <glyph glyph-name="yacute" unicode="&#xfd;" horiz-adv-x="627" 
d="M12 -170l53 123c7 -5 14 -9 22 -12c15 -7 36 -12 63 -12c36 0 70 10 85 42l2 5l-170 414h-58v125h283v-125h-50l63 -191c5 -15 7 -32 10 -45c1 -7 2 -15 2 -22h4c1 7 2 15 4 22c3 13 7 30 12 45l61 191h-47v125h267v-125h-53l-166 -435c-48 -123 -139 -165 -240 -165
c-44 0 -80 9 -107 20c-15 6 -29 13 -40 20zM227 565l116 150h177l-151 -150h-142z" />
    <glyph glyph-name="thorn" unicode="&#xfe;" horiz-adv-x="640" 
d="M0 590v125h244v-202c0 -13 0 -24 -1 -32c-1 -5 -1 -9 -1 -12h2c8 11 18 20 31 29c23 15 56 29 103 29c141 0 236 -117 236 -269s-95 -270 -236 -270c-48 0 -82 14 -103 27c-12 7 -22 16 -31 26h-2c0 -3 0 -7 1 -12c1 -8 1 -19 1 -32v-72h65v-125h-303v125h65v665h-71z
M239 257c0 -96 45 -125 104 -125c60 0 97 58 97 126s-37 125 -97 125c-59 0 -104 -31 -104 -126z" />
    <glyph glyph-name="Amacron" unicode="&#x100;" horiz-adv-x="732" 
d="M10 0v130h59l195 585h204l195 -585h59v-130h-299v130h62l-27 95h-184l-27 -95h62v-130h-299zM312 361h107l-37 132c-7 23 -8 41 -11 54l-3 21h-4c0 -7 -1 -14 -2 -21c-3 -13 -5 -31 -12 -54zM227 782v112h275v-112h-275z" />
    <glyph glyph-name="amacron" unicode="&#x101;" horiz-adv-x="583" 
d="M23 147c0 151 195 173 275 173h31v15c0 43 -34 57 -73 57c-35 0 -70 -12 -97 -24c-16 -7 -31 -16 -45 -25l-60 117c18 13 38 24 60 34c39 17 93 33 158 33c151 0 230 -74 230 -210v-170c0 -15 7 -22 22 -22h38v-125h-149c-51 0 -69 29 -69 54v3c0 5 0 9 1 11s1 4 1 5h-2
c-9 -16 -21 -30 -35 -42c-24 -21 -61 -43 -117 -43c-90 0 -169 55 -169 159zM197 159c0 -27 18 -46 46 -46c44 0 88 53 88 98v12h-16c-57 0 -118 -18 -118 -64zM142 586v112h275v-112h-275z" />
    <glyph glyph-name="Abreve" unicode="&#x102;" horiz-adv-x="732" 
d="M10 0v130h59l195 585h204l195 -585h59v-130h-299v130h62l-27 95h-184l-27 -95h62v-130h-299zM312 361h107l-37 132c-7 23 -8 41 -11 54l-3 21h-4c0 -7 -1 -14 -2 -21c-3 -13 -5 -31 -12 -54zM364 756c-93 0 -174 52 -174 145v10h117v-11c0 -40 30 -58 57 -58s57 18 57 58
v11h117v-10c0 -93 -81 -145 -174 -145z" />
    <glyph glyph-name="abreve" unicode="&#x103;" horiz-adv-x="583" 
d="M23 147c0 151 195 173 275 173h31v15c0 43 -34 57 -73 57c-35 0 -70 -12 -97 -24c-16 -7 -31 -16 -45 -25l-60 117c18 13 38 24 60 34c39 17 93 33 158 33c151 0 230 -74 230 -210v-170c0 -15 7 -22 22 -22h38v-125h-149c-51 0 -69 29 -69 54v3c0 5 0 9 1 11s1 4 1 5h-2
c-9 -16 -21 -30 -35 -42c-24 -21 -61 -43 -117 -43c-90 0 -169 55 -169 159zM197 159c0 -27 18 -46 46 -46c44 0 88 53 88 98v12h-16c-57 0 -118 -18 -118 -64zM279 560c-93 0 -174 52 -174 145v10h117v-11c0 -40 30 -58 57 -58s57 18 57 58v11h117v-10
c0 -93 -81 -145 -174 -145z" />
    <glyph glyph-name="Aogonek" unicode="&#x104;" horiz-adv-x="732" 
d="M520 -127c0 47 24 92 67 127h-164v130h62l-27 95h-184l-27 -95h62v-130h-299v130h59l195 585h204l195 -585h59v-130h-5c-29 0 -75 -54 -75 -94c0 -19 10 -35 57 -38l-28 -110c-95 11 -151 51 -151 115zM312 361h107l-37 132c-7 23 -8 41 -11 54l-3 21h-4
c0 -7 -1 -14 -2 -21c-3 -13 -5 -31 -12 -54z" />
    <glyph glyph-name="aogonek" unicode="&#x105;" horiz-adv-x="583" 
d="M360 -127c0 47 24 92 67 127h-14c-51 0 -69 29 -69 54v3c0 5 0 9 1 11s1 4 1 5h-2c-9 -16 -21 -30 -35 -42c-24 -21 -61 -43 -117 -43c-90 0 -169 55 -169 159c0 151 195 173 275 173h31v15c0 43 -34 57 -73 57c-35 0 -70 -12 -97 -24c-16 -7 -31 -16 -45 -25l-60 117
c18 13 38 24 60 34c39 17 93 33 158 33c151 0 230 -74 230 -210v-170c0 -15 7 -22 22 -22h38v-125h-5c-29 0 -75 -54 -75 -94c0 -19 10 -35 57 -38l-28 -110c-95 11 -151 51 -151 115zM197 159c0 -27 18 -46 46 -46c44 0 88 53 88 98v12h-16c-57 0 -118 -18 -118 -64z" />
    <glyph glyph-name="Cacute" unicode="&#x106;" horiz-adv-x="748" 
d="M34 359c0 213 165 368 374 368c87 0 289 -27 289 -143v-113h-160v55c0 40 -73 51 -121 51c-116 0 -197 -76 -197 -208c0 -148 88 -231 207 -231c32 0 119 8 119 51v55h160v-115c0 -109 -193 -141 -292 -141c-219 0 -379 162 -379 371zM309 761l116 150h177l-151 -150
h-142z" />
    <glyph glyph-name="cacute" unicode="&#x107;" horiz-adv-x="567" 
d="M25 256c0 149 115 271 282 271c103 0 227 -36 227 -131v-82h-147v31c0 25 -33 38 -73 38c-81 0 -115 -50 -115 -121c0 -92 59 -131 130 -131c52 0 111 22 155 57l58 -121c-56 -51 -140 -79 -224 -79c-152 0 -293 101 -293 268zM205 565l116 150h177l-151 -150h-142z" />
    <glyph glyph-name="Ccircumflex" unicode="&#x108;" horiz-adv-x="748" 
d="M34 359c0 213 165 368 374 368c87 0 289 -27 289 -143v-113h-160v55c0 40 -73 51 -121 51c-116 0 -197 -76 -197 -208c0 -148 88 -231 207 -231c32 0 119 8 119 51v55h160v-115c0 -109 -193 -141 -292 -141c-219 0 -379 162 -379 371zM216 761l99 150h168l99 -150h-135
l-47 82h-2l-47 -82h-135z" />
    <glyph glyph-name="ccircumflex" unicode="&#x109;" horiz-adv-x="567" 
d="M25 256c0 149 115 271 282 271c103 0 227 -36 227 -131v-82h-147v31c0 25 -33 38 -73 38c-81 0 -115 -50 -115 -121c0 -92 59 -131 130 -131c52 0 111 22 155 57l58 -121c-56 -51 -140 -79 -224 -79c-152 0 -293 101 -293 268zM112 565l99 150h168l99 -150h-135l-47 82
h-2l-47 -82h-135z" />
    <glyph glyph-name="Cdotaccent" unicode="&#x10a;" horiz-adv-x="748" 
d="M34 359c0 213 165 368 374 368c87 0 289 -27 289 -143v-113h-160v55c0 40 -73 51 -121 51c-116 0 -197 -76 -197 -208c0 -148 88 -231 207 -231c32 0 119 8 119 51v55h160v-115c0 -109 -193 -141 -292 -141c-219 0 -379 162 -379 371zM328 779v132h143v-132h-143z" />
    <glyph glyph-name="cdotaccent" unicode="&#x10b;" horiz-adv-x="567" 
d="M25 256c0 149 115 271 282 271c103 0 227 -36 227 -131v-82h-147v31c0 25 -33 38 -73 38c-81 0 -115 -50 -115 -121c0 -92 59 -131 130 -131c52 0 111 22 155 57l58 -121c-56 -51 -140 -79 -224 -79c-152 0 -293 101 -293 268zM224 583v132h143v-132h-143z" />
    <glyph glyph-name="Ccaron" unicode="&#x10c;" horiz-adv-x="748" 
d="M34 359c0 213 165 368 374 368c87 0 289 -27 289 -143v-113h-160v55c0 40 -73 51 -121 51c-116 0 -197 -76 -197 -208c0 -148 88 -231 207 -231c32 0 119 8 119 51v55h160v-115c0 -109 -193 -141 -292 -141c-219 0 -379 162 -379 371zM315 761l-99 150h135l47 -82h2
l47 82h135l-99 -150h-168z" />
    <glyph glyph-name="ccaron" unicode="&#x10d;" horiz-adv-x="567" 
d="M25 256c0 149 115 271 282 271c103 0 227 -36 227 -131v-82h-147v31c0 25 -33 38 -73 38c-81 0 -115 -50 -115 -121c0 -92 59 -131 130 -131c52 0 111 22 155 57l58 -121c-56 -51 -140 -79 -224 -79c-152 0 -293 101 -293 268zM211 565l-99 150h135l47 -82h2l47 82h135
l-99 -150h-168z" />
    <glyph glyph-name="Dcaron" unicode="&#x10e;" horiz-adv-x="788" 
d="M49 0v130h80v455h-80v130h315c56 0 102 -2 147 -15c142 -40 240 -162 240 -342c0 -165 -83 -286 -215 -334c-52 -19 -106 -24 -171 -24h-316zM308 140h52c44 0 77 5 109 20c61 31 97 101 97 197c0 107 -43 175 -110 203c-31 13 -60 15 -96 15h-52v-435zM299 761l-99 150
h135l47 -82h2l47 82h135l-99 -150h-168z" />
    <glyph glyph-name="dcaron" unicode="&#x10f;" horiz-adv-x="663" 
d="M27 257c0 164 96 270 238 270c51 0 82 -12 103 -25c12 -7 22 -16 29 -26h2v9c0 7 -1 15 -1 24v81h-70v125h243v-568c0 -15 7 -22 22 -22h38v-125h-149c-51 0 -69 29 -69 54v3c0 5 0 9 1 11s1 4 1 5h-2c-8 -16 -19 -30 -34 -42c-25 -21 -65 -43 -125 -43
c-137 0 -227 109 -227 269zM201 257c0 -76 40 -126 100 -126c52 0 102 39 102 122c0 68 -32 128 -99 128c-57 0 -103 -44 -103 -124zM636 715h139c7 -20 8 -39 8 -56c0 -76 -49 -126 -117 -146l-61 54c32 24 45 51 45 82c0 19 -5 41 -14 66z" />
    <glyph glyph-name="Dcroat" unicode="&#x110;" horiz-adv-x="794" 
d="M49 0v130h80v154h-70v140h70v161h-80v130h336c227 0 371 -131 371 -356s-144 -359 -371 -359h-336zM308 140h70c120 0 193 75 193 219c0 143 -77 216 -193 216h-70v-151h114v-140h-114v-144z" />
    <glyph glyph-name="dcroat" unicode="&#x111;" horiz-adv-x="663" 
d="M27 257c0 164 96 270 238 270c51 0 82 -12 103 -25c12 -7 22 -16 29 -26h2v9c0 7 -1 15 -1 24v50h-147v95h147v61h173v-61h66v-95h-66v-412c0 -15 7 -22 22 -22h38v-125h-149c-51 0 -69 29 -69 54v3c0 5 0 9 1 11s1 4 1 5h-2c-8 -16 -19 -30 -34 -42
c-25 -21 -65 -43 -125 -43c-137 0 -227 109 -227 269zM201 257c0 -76 40 -126 100 -126c52 0 102 39 102 122c0 68 -32 128 -99 128c-57 0 -103 -44 -103 -124z" />
    <glyph glyph-name="Emacron" unicode="&#x112;" horiz-adv-x="659" 
d="M49 0v130h80v455h-80v130h551v-211h-150v71h-142v-145h209v-140h-209v-150h154v71h150v-211h-563zM205 782v112h275v-112h-275z" />
    <glyph glyph-name="emacron" unicode="&#x113;" horiz-adv-x="562" 
d="M25 258c0 151 102 269 268 269c154 0 240 -106 240 -249c0 -8 -1 -21 -2 -32l-2 -20h-327c13 -67 64 -95 120 -95c39 0 74 13 101 25c16 7 31 15 44 24l63 -120c-17 -13 -37 -25 -59 -36c-39 -19 -92 -36 -163 -36c-184 0 -283 133 -283 270zM206 321h148
c0 41 -26 76 -65 76c-51 0 -74 -36 -83 -76zM154 586v112h275v-112h-275z" />
    <glyph glyph-name="Ebreve" unicode="&#x114;" horiz-adv-x="659" 
d="M49 0v130h80v455h-80v130h551v-211h-150v71h-142v-145h209v-140h-209v-150h154v71h150v-211h-563zM342 756c-93 0 -174 52 -174 145v10h117v-11c0 -40 30 -58 57 -58s57 18 57 58v11h117v-10c0 -93 -81 -145 -174 -145z" />
    <glyph glyph-name="ebreve" unicode="&#x115;" horiz-adv-x="562" 
d="M25 258c0 151 102 269 268 269c154 0 240 -106 240 -249c0 -8 -1 -21 -2 -32l-2 -20h-327c13 -67 64 -95 120 -95c39 0 74 13 101 25c16 7 31 15 44 24l63 -120c-17 -13 -37 -25 -59 -36c-39 -19 -92 -36 -163 -36c-184 0 -283 133 -283 270zM206 321h148
c0 41 -26 76 -65 76c-51 0 -74 -36 -83 -76zM291 560c-93 0 -174 52 -174 145v10h117v-11c0 -40 30 -58 57 -58s57 18 57 58v11h117v-10c0 -93 -81 -145 -174 -145z" />
    <glyph glyph-name="Edotaccent" unicode="&#x116;" horiz-adv-x="659" 
d="M49 0v130h80v455h-80v130h551v-211h-150v71h-142v-145h209v-140h-209v-150h154v71h150v-211h-563zM271 779v132h143v-132h-143z" />
    <glyph glyph-name="edotaccent" unicode="&#x117;" horiz-adv-x="562" 
d="M25 258c0 151 102 269 268 269c154 0 240 -106 240 -249c0 -8 -1 -21 -2 -32l-2 -20h-327c13 -67 64 -95 120 -95c39 0 74 13 101 25c16 7 31 15 44 24l63 -120c-17 -13 -37 -25 -59 -36c-39 -19 -92 -36 -163 -36c-184 0 -283 133 -283 270zM206 321h148
c0 41 -26 76 -65 76c-51 0 -74 -36 -83 -76zM220 583v132h143v-132h-143z" />
    <glyph glyph-name="Eogonek" unicode="&#x118;" horiz-adv-x="659" 
d="M49 0v130h80v455h-80v130h551v-211h-150v71h-142v-145h209v-140h-209v-150h154v71h150v-211h-8c-29 0 -77 -54 -77 -94c0 -19 10 -35 57 -38l-28 -110c-95 11 -151 51 -151 115c0 47 24 92 67 127h-423z" />
    <glyph glyph-name="eogonek" unicode="&#x119;" horiz-adv-x="562" 
d="M25 258c0 151 102 269 268 269c154 0 240 -106 240 -249c0 -8 -1 -21 -2 -32l-2 -20h-327c13 -67 64 -95 120 -95c39 0 74 13 101 25c16 7 31 15 44 24l63 -120c-7 -5 -14 -11 -23 -16c-15 -9 -36 -21 -61 -34c-18 -8 -73 -46 -73 -104c0 -19 10 -35 57 -38l-28 -110
c-95 11 -151 51 -151 115c0 41 20 83 55 115c-184 0 -281 134 -281 270zM206 321h148c0 41 -26 76 -65 76c-51 0 -74 -36 -83 -76z" />
    <glyph glyph-name="Ecaron" unicode="&#x11a;" horiz-adv-x="659" 
d="M49 0v130h80v455h-80v130h551v-211h-150v71h-142v-145h209v-140h-209v-150h154v71h150v-211h-563zM258 761l-99 150h135l47 -82h2l47 82h135l-99 -150h-168z" />
    <glyph glyph-name="ecaron" unicode="&#x11b;" horiz-adv-x="562" 
d="M25 258c0 151 102 269 268 269c154 0 240 -106 240 -249c0 -8 -1 -21 -2 -32l-2 -20h-327c13 -67 64 -95 120 -95c39 0 74 13 101 25c16 7 31 15 44 24l63 -120c-17 -13 -37 -25 -59 -36c-39 -19 -92 -36 -163 -36c-184 0 -283 133 -283 270zM206 321h148
c0 41 -26 76 -65 76c-51 0 -74 -36 -83 -76zM207 565l-99 150h135l47 -82h2l47 82h135l-99 -150h-168z" />
    <glyph glyph-name="Gcircumflex" unicode="&#x11c;" horiz-adv-x="768" 
d="M34 362c0 215 159 365 383 365c131 0 288 -49 288 -140v-116h-160v52c0 36 -53 54 -118 54c-131 0 -208 -72 -208 -207c0 -133 77 -232 218 -232c48 0 124 12 124 52v49h-115v130h275v-238c0 -107 -202 -143 -306 -143c-220 0 -381 158 -381 374zM218 761l99 150h168
l99 -150h-135l-47 82h-2l-47 -82h-135z" />
    <glyph glyph-name="gcircumflex" unicode="&#x11d;" horiz-adv-x="654" 
d="M77 -164l49 126c13 -7 27 -12 42 -17c27 -8 63 -16 103 -16c61 0 119 24 119 104v17c0 3 1 8 1 12v7h-2c-31 -36 -69 -54 -129 -54c-155 0 -232 127 -232 259c0 131 75 253 231 253c53 0 121 -19 150 -67h2v5c0 3 -1 5 -1 8c0 20 19 42 58 42h156v-125h-39
c-15 0 -22 -6 -22 -19v-324c0 -188 -150 -257 -291 -257c-69 0 -144 19 -195 46zM301 159c45 0 93 23 93 113c0 91 -48 111 -100 111c-61 0 -92 -43 -92 -103c0 -64 31 -121 99 -121zM131 565l99 150h168l99 -150h-135l-47 82h-2l-47 -82h-135z" />
    <glyph glyph-name="Gbreve" unicode="&#x11e;" horiz-adv-x="768" 
d="M34 362c0 215 159 365 383 365c131 0 288 -49 288 -140v-116h-160v52c0 36 -53 54 -118 54c-131 0 -208 -72 -208 -207c0 -133 77 -232 218 -232c48 0 124 12 124 52v49h-115v130h275v-238c0 -107 -202 -143 -306 -143c-220 0 -381 158 -381 374zM401 756
c-93 0 -174 52 -174 145v10h117v-11c0 -40 30 -58 57 -58s57 18 57 58v11h117v-10c0 -93 -81 -145 -174 -145z" />
    <glyph glyph-name="gbreve" unicode="&#x11f;" horiz-adv-x="654" 
d="M77 -164l49 126c13 -7 27 -12 42 -17c27 -8 63 -16 103 -16c61 0 119 24 119 104v17c0 3 1 8 1 12v7h-2c-31 -36 -69 -54 -129 -54c-155 0 -232 127 -232 259c0 131 75 253 231 253c53 0 121 -19 150 -67h2v5c0 3 -1 5 -1 8c0 20 19 42 58 42h156v-125h-39
c-15 0 -22 -6 -22 -19v-324c0 -188 -150 -257 -291 -257c-69 0 -144 19 -195 46zM301 159c45 0 93 23 93 113c0 91 -48 111 -100 111c-61 0 -92 -43 -92 -103c0 -64 31 -121 99 -121zM314 560c-93 0 -174 52 -174 145v10h117v-11c0 -40 30 -58 57 -58s57 18 57 58v11h117
v-10c0 -93 -81 -145 -174 -145z" />
    <glyph glyph-name="Gdotaccent" unicode="&#x120;" horiz-adv-x="768" 
d="M34 362c0 215 159 365 383 365c131 0 288 -49 288 -140v-116h-160v52c0 36 -53 54 -118 54c-131 0 -208 -72 -208 -207c0 -133 77 -232 218 -232c48 0 124 12 124 52v49h-115v130h275v-238c0 -107 -202 -143 -306 -143c-220 0 -381 158 -381 374zM330 779v132h143v-132
h-143z" />
    <glyph glyph-name="gdotaccent" unicode="&#x121;" horiz-adv-x="654" 
d="M77 -164l49 126c13 -7 27 -12 42 -17c27 -8 63 -16 103 -16c61 0 119 24 119 104v17c0 3 1 8 1 12v7h-2c-31 -36 -69 -54 -129 -54c-155 0 -232 127 -232 259c0 131 75 253 231 253c53 0 121 -19 150 -67h2v5c0 3 -1 5 -1 8c0 20 19 42 58 42h156v-125h-39
c-15 0 -22 -6 -22 -19v-324c0 -188 -150 -257 -291 -257c-69 0 -144 19 -195 46zM301 159c45 0 93 23 93 113c0 91 -48 111 -100 111c-61 0 -92 -43 -92 -103c0 -64 31 -121 99 -121zM243 583v132h143v-132h-143z" />
    <glyph glyph-name="Gcommaaccent" unicode="&#x122;" horiz-adv-x="768" 
d="M34 362c0 215 159 365 383 365c131 0 288 -49 288 -140v-116h-160v52c0 36 -53 54 -118 54c-131 0 -208 -72 -208 -207c0 -133 77 -232 218 -232c48 0 124 12 124 52v49h-115v130h275v-238c0 -107 -202 -143 -306 -143c-220 0 -381 158 -381 374zM332 -46h139
c7 -20 8 -39 8 -56c0 -76 -49 -126 -117 -146l-61 54c32 24 45 51 45 82c0 19 -5 41 -14 66z" />
    <glyph glyph-name="gcommaaccent" unicode="&#x123;" horiz-adv-x="654" 
d="M77 -164l49 126c13 -7 27 -12 42 -17c27 -8 63 -16 103 -16c61 0 119 24 119 104v17c0 3 1 8 1 12v7h-2c-31 -36 -69 -54 -129 -54c-155 0 -232 127 -232 259c0 131 75 253 231 253c53 0 121 -19 150 -67h2v5c0 3 -1 5 -1 8c0 20 19 42 58 42h156v-125h-39
c-15 0 -22 -6 -22 -19v-324c0 -188 -150 -257 -291 -257c-69 0 -144 19 -195 46zM301 159c45 0 93 23 93 113c0 91 -48 111 -100 111c-61 0 -92 -43 -92 -103c0 -64 31 -121 99 -121zM371 571h-139c-7 20 -8 39 -8 56c0 76 49 126 117 146l61 -54c-32 -24 -45 -51 -45 -82
c0 -19 5 -41 14 -66z" />
    <glyph glyph-name="Hcircumflex" unicode="&#x124;" horiz-adv-x="872" 
d="M49 0v130h80v455h-80v130h339v-130h-80v-160h256v160h-80v130h339v-130h-80v-455h80v-130h-339v130h80v155h-256v-155h80v-130h-339zM253 761l99 150h168l99 -150h-135l-47 82h-2l-47 -82h-135z" />
    <glyph glyph-name="hcircumflex" unicode="&#x125;" horiz-adv-x="694" 
d="M28 0v125h65v465h-70v125h243v-226c0 -13 0 -24 -1 -32c-1 -5 -1 -9 -1 -12h2c29 51 89 82 157 82c104 0 185 -49 185 -193v-209h65v-125h-238v302c0 48 -18 68 -57 68c-76 0 -112 -68 -112 -142v-103h65v-125h-303zM-4 761l99 150h168l99 -150h-135l-47 82h-2l-47 -82
h-135z" />
    <glyph glyph-name="Hbar" unicode="&#x126;" horiz-adv-x="872" 
d="M49 448v80h80v57h-80v130h339v-130h-80v-57h256v57h-80v130h339v-130h-80v-57h80v-80h-80v-318h80v-130h-339v130h80v145h-256v-145h80v-130h-339v130h80v318h-80zM308 385h256v63h-256v-63z" />
    <glyph glyph-name="hbar" unicode="&#x127;" horiz-adv-x="694" 
d="M28 0v125h65v434h-58v94h58v62h173v-62h154v-94h-154v-70c0 -13 0 -24 -1 -32c-1 -5 -1 -9 -1 -12h2c29 51 89 82 157 82c104 0 185 -49 185 -193v-209h65v-125h-238v302c0 48 -18 68 -57 68c-76 0 -112 -68 -112 -142v-103h51v-125h-289z" />
    <glyph glyph-name="Itilde" unicode="&#x128;" horiz-adv-x="437" 
d="M49 0v130h80v455h-80v130h339v-130h-80v-455h80v-130h-339zM130 761h-112c0 102 43 153 128 153c66 0 89 -60 126 -60c25 0 37 19 37 57h112c0 -102 -43 -153 -128 -153c-66 0 -89 60 -126 60c-25 0 -37 -19 -37 -57z" />
    <glyph glyph-name="itilde" unicode="&#x129;" horiz-adv-x="373" 
d="M42 0v125h65v265h-70v125h243v-390h65v-125h-303zM103 565h-112c0 102 43 153 128 153c66 0 89 -60 126 -60c25 0 37 19 37 57h112c0 -102 -43 -153 -128 -153c-66 0 -89 60 -126 60c-25 0 -37 -19 -37 -57z" />
    <glyph glyph-name="Imacron" unicode="&#x12a;" horiz-adv-x="437" 
d="M49 0v130h80v455h-80v130h339v-130h-80v-455h80v-130h-339zM82 782v112h275v-112h-275z" />
    <glyph glyph-name="imacron" unicode="&#x12b;" horiz-adv-x="373" 
d="M42 0v125h65v265h-70v125h243v-390h65v-125h-303zM55 586v112h275v-112h-275z" />
    <glyph glyph-name="Ibreve" unicode="&#x12c;" horiz-adv-x="437" 
d="M49 0v130h80v455h-80v130h339v-130h-80v-455h80v-130h-339zM219 756c-93 0 -174 52 -174 145v10h117v-11c0 -40 30 -58 57 -58s57 18 57 58v11h117v-10c0 -93 -81 -145 -174 -145z" />
    <glyph glyph-name="ibreve" unicode="&#x12d;" horiz-adv-x="373" 
d="M42 0v125h65v265h-70v125h243v-390h65v-125h-303zM192 560c-93 0 -174 52 -174 145v10h117v-11c0 -40 30 -58 57 -58s57 18 57 58v11h117v-10c0 -93 -81 -145 -174 -145z" />
    <glyph glyph-name="Iogonek" unicode="&#x12e;" horiz-adv-x="437" 
d="M49 0v130h80v455h-80v130h339v-130h-80v-455h80v-130h-12c-29 0 -75 -54 -75 -94c0 -19 10 -35 57 -38l-28 -110c-95 11 -151 51 -151 115c0 47 24 92 67 127h-197z" />
    <glyph glyph-name="iogonek" unicode="&#x12f;" horiz-adv-x="373" 
d="M42 0v125h65v265h-70v125h243v-390h65v-125h-12c-29 0 -75 -54 -75 -94c0 -19 10 -35 57 -38l-28 -110c-95 11 -151 51 -151 115c0 47 24 92 67 127h-161zM109 580v135h169v-135h-169z" />
    <glyph glyph-name="Idotaccent" unicode="&#x130;" horiz-adv-x="437" 
d="M49 0v130h80v455h-80v130h339v-130h-80v-455h80v-130h-339zM148 779v132h143v-132h-143z" />
    <glyph glyph-name="IJ" unicode="&#x132;" 
d="M51 0v130h79v455h-80v130h339v-130h-80v-455h62v-130h-320zM423 -1v140c43 -5 116 16 116 96v350h-90v130h339v-130h-70v-332c0 -212 -153 -265 -295 -254z" />
    <glyph glyph-name="ij" unicode="&#x133;" horiz-adv-x="692" 
d="M109 580v135h169v-135h-169zM42 0v125h65v265h-70v125h243v-390h65v-125h-303zM450 580v135h169v-135h-169zM333 -205v135c1 -1 3 -1 6 -1h16c35 0 93 10 93 71v390h-71v125h244v-523c0 -173 -162 -200 -242 -200c-15 0 -25 0 -33 1z" />
    <glyph glyph-name="Jcircumflex" unicode="&#x134;" horiz-adv-x="582" 
d="M14 210v62h170v-48c0 -40 6 -81 61 -81c37 0 56 27 56 81v361h-90v130h339v-130h-70v-365c0 -157 -119 -232 -236 -232c-115 0 -230 67 -230 222zM205 761l99 150h168l99 -150h-135l-47 82h-2l-47 -82h-135z" />
    <glyph glyph-name="jcircumflex" unicode="&#x135;" horiz-adv-x="340" 
d="M-20 565l99 150h168l99 -150h-135l-47 82h-2l-47 -82h-135zM-19 -205v135c1 -1 3 -1 6 -1h16c35 0 93 10 93 71v390h-71v125h244v-523c0 -173 -162 -200 -242 -200c-15 0 -26 0 -34 1z" />
    <glyph glyph-name="Kcommaaccent" unicode="&#x136;" horiz-adv-x="751" 
d="M49 0v130h80v455h-80v130h311v-130h-52v-151h60l105 151h-54v130h294v-130h-60l-152 -205v-2c5 -3 11 -7 18 -13c11 -11 25 -26 37 -51l81 -161c8 -15 23 -23 44 -23h31v-130h-122c-60 0 -82 17 -101 53l-107 218c-9 19 -23 23 -50 23h-24v-164h75v-130h-334zM321 -46
h139c7 -20 8 -39 8 -56c0 -76 -49 -126 -117 -146l-61 54c32 24 45 51 45 82c0 19 -5 41 -14 66z" />
    <glyph glyph-name="kcommaaccent" unicode="&#x137;" horiz-adv-x="634" 
d="M28 0v125h65v465h-70v125h243v-391h59l54 66h-49v125h268v-125h-63l-89 -108v-2l13 -10c8 -7 19 -17 28 -36l51 -92c8 -15 18 -17 38 -17h25v-125h-126c-37 0 -55 6 -74 39l-79 146c-9 17 -28 17 -41 17h-15v-77h37v-125h-275zM266 -46h139c7 -20 8 -39 8 -56
c0 -76 -49 -126 -117 -146l-61 54c32 24 45 51 45 82c0 19 -5 41 -14 66z" />
    <glyph glyph-name="kgreenlandic" unicode="&#x138;" horiz-adv-x="646" 
d="M42 0v125h65v265h-70v125h243v-184h64l48 59h-48v125h263v-125h-58l-89 -108v-2c5 -3 10 -8 15 -13c9 -9 20 -21 29 -38l48 -87c8 -15 18 -17 38 -17h25v-125h-126c-37 0 -55 6 -74 39l-79 146c-9 17 -28 17 -41 17h-15v-77h37v-125h-275z" />
    <glyph glyph-name="Lacute" unicode="&#x139;" horiz-adv-x="634" 
d="M50 0v130h80v445h-80v140h339v-140h-80v-435h154v105h150v-245h-563zM126 761l116 150h177l-151 -150h-142z" />
    <glyph glyph-name="lacute" unicode="&#x13a;" horiz-adv-x="335" 
d="M63 190v400h-70v125h243v-515c0 -49 9 -66 48 -66c7 0 11 1 15 1h6v-137l-15 -2c-11 -1 -22 -1 -37 -1c-91 0 -190 22 -190 195zM59 761l116 150h177l-151 -150h-142z" />
    <glyph glyph-name="Lcommaaccent" unicode="&#x13b;" horiz-adv-x="634" 
d="M50 0v130h80v445h-80v140h339v-140h-80v-435h154v105h150v-245h-563zM282 -46h139c7 -20 8 -39 8 -56c0 -76 -49 -126 -117 -146l-61 54c32 24 45 51 45 82c0 19 -5 41 -14 66z" />
    <glyph glyph-name="lcommaaccent" unicode="&#x13c;" horiz-adv-x="335" 
d="M63 190v400h-70v125h243v-515c0 -49 9 -66 48 -66c7 0 11 1 15 1h6v-137l-15 -2c-11 -1 -22 -1 -37 -1c-91 0 -190 22 -190 195zM121 -46h139c7 -20 8 -39 8 -56c0 -76 -49 -126 -117 -146l-61 54c32 24 45 51 45 82c0 19 -5 41 -14 66z" />
    <glyph glyph-name="Lcaron" unicode="&#x13d;" horiz-adv-x="634" 
d="M50 0v130h80v445h-80v140h339v-140h-80v-435h154v105h150v-245h-563zM282 -46h139c7 -20 8 -39 8 -56c0 -76 -49 -126 -117 -146l-61 54c32 24 45 51 45 82c0 19 -5 41 -14 66z" />
    <glyph glyph-name="lcaron" unicode="&#x13e;" horiz-adv-x="336" 
d="M63 190v400h-70v125h243v-515c0 -49 9 -66 48 -66c7 0 11 1 15 1h6v-137l-15 -2c-11 -1 -22 -1 -37 -1c-91 0 -190 22 -190 195zM313 714h139c7 -20 8 -39 8 -56c0 -76 -49 -126 -117 -146l-61 54c32 24 45 51 45 82c0 19 -5 41 -14 66z" />
    <glyph glyph-name="Ldot" unicode="&#x13f;" horiz-adv-x="634" 
d="M50 0v130h80v445h-80v140h339v-140h-80v-435h154v105h150v-245h-563zM402 315v164h158v-164h-158z" />
    <glyph glyph-name="ldot" unicode="&#x140;" horiz-adv-x="494" 
d="M63 190v400h-70v125h243v-515c0 -49 9 -66 48 -66c7 0 11 1 15 1h6v-137l-15 -2c-11 -1 -22 -1 -37 -1c-91 0 -190 22 -190 195zM318 316v164h158v-164h-158z" />
    <glyph glyph-name="Lslash" unicode="&#x141;" horiz-adv-x="633" 
d="M49 0v130h80v95l-80 -42v146l80 42v204h-80v140h339v-140h-80v-108l164 88v-146l-164 -88v-181h164v105h140v-245h-563z" />
    <glyph glyph-name="lslash" unicode="&#x142;" horiz-adv-x="360" 
d="M7 212v146l70 38v194h-70v125h243v-225l89 49v-146l-89 -49v-141c0 -49 9 -66 48 -66c7 0 11 1 15 1h6v-140l-15 -2c-11 -1 -22 -1 -37 -1c-91 0 -190 22 -190 195v60z" />
    <glyph glyph-name="Nacute" unicode="&#x143;" horiz-adv-x="859" 
d="M49 0v130h80v455h-80v130h261l224 -379c9 -15 16 -32 21 -47l9 -26h4l-3 28c-3 16 -3 36 -3 52v242h-84v130h343v-130h-80v-585h-180l-225 377c-8 15 -16 32 -21 47l-9 26h-4l3 -28c3 -16 3 -36 3 -52v-240h84v-130h-343zM342 761l116 150h177l-151 -150h-142z" />
    <glyph glyph-name="nacute" unicode="&#x144;" horiz-adv-x="708" 
d="M42 0v125h65v243c0 15 -7 22 -22 22h-48v125h164c47 0 71 -23 71 -58v-17v-8c0 -1 0 -3 -1 -4h2c9 19 22 35 39 50c28 25 71 49 136 49c97 0 174 -49 174 -193v-209h65v-125h-238v302c0 48 -19 68 -58 68c-77 0 -111 -80 -111 -152v-93h65v-125h-303zM278 565l116 150
h177l-151 -150h-142z" />
    <glyph glyph-name="Ncommaaccent" unicode="&#x145;" horiz-adv-x="859" 
d="M49 0v130h80v455h-80v130h261l224 -379c9 -15 16 -32 21 -47l9 -26h4l-3 28c-3 16 -3 36 -3 52v242h-84v130h343v-130h-80v-585h-180l-225 377c-8 15 -16 32 -21 47l-9 26h-4l3 -28c3 -16 3 -36 3 -52v-240h84v-130h-343zM363 -46h139c7 -20 8 -39 8 -56
c0 -76 -49 -126 -117 -146l-61 54c32 24 45 51 45 82c0 19 -5 41 -14 66z" />
    <glyph glyph-name="ncommaaccent" unicode="&#x146;" horiz-adv-x="708" 
d="M42 0v125h65v243c0 15 -7 22 -22 22h-48v125h164c47 0 71 -23 71 -58v-17v-8c0 -1 0 -3 -1 -4h2c9 19 22 35 39 50c28 25 71 49 136 49c97 0 174 -49 174 -193v-209h65v-125h-238v302c0 48 -19 68 -58 68c-77 0 -111 -80 -111 -152v-93h65v-125h-303zM295 -46h139
c7 -20 8 -39 8 -56c0 -76 -49 -126 -117 -146l-61 54c32 24 45 51 45 82c0 19 -5 41 -14 66z" />
    <glyph glyph-name="Ncaron" unicode="&#x147;" horiz-adv-x="859" 
d="M49 0v130h80v455h-80v130h261l224 -379c9 -15 16 -32 21 -47l9 -26h4l-3 28c-3 16 -3 36 -3 52v242h-84v130h343v-130h-80v-585h-180l-225 377c-8 15 -16 32 -21 47l-9 26h-4l3 -28c3 -16 3 -36 3 -52v-240h84v-130h-343zM348 761l-99 150h135l47 -82h2l47 82h135
l-99 -150h-168z" />
    <glyph glyph-name="ncaron" unicode="&#x148;" horiz-adv-x="708" 
d="M42 0v125h65v243c0 15 -7 22 -22 22h-48v125h164c47 0 71 -23 71 -58v-17v-8c0 -1 0 -3 -1 -4h2c9 19 22 35 39 50c28 25 71 49 136 49c97 0 174 -49 174 -193v-209h65v-125h-238v302c0 48 -19 68 -58 68c-77 0 -111 -80 -111 -152v-93h65v-125h-303zM284 565l-99 150
h135l47 -82h2l47 82h135l-99 -150h-168z" />
    <glyph glyph-name="napostrophe" unicode="&#x149;" horiz-adv-x="708" 
d="M42 0v125h65v243c0 15 -7 22 -22 22h-48v125h164c47 0 71 -23 71 -58v-17v-8c0 -1 0 -3 -1 -4h2c9 19 22 35 39 50c28 25 71 49 136 49c97 0 174 -49 174 -193v-209h65v-125h-238v302c0 48 -19 68 -58 68c-77 0 -111 -80 -111 -152v-93h65v-125h-303zM5 750h139
c7 -20 8 -39 8 -56c0 -76 -49 -126 -117 -146l-61 54c32 24 45 51 45 82c0 19 -5 41 -14 66z" />
    <glyph glyph-name="Eng" unicode="&#x14a;" horiz-adv-x="859" 
d="M49 0v130h80v455h-80v130h261l224 -379c9 -15 16 -32 21 -47l9 -26h4l-3 28c-3 16 -3 36 -3 52v242h-84v130h343v-130h-80v-518c0 -227 -125 -272 -299 -272v148c67 0 120 19 123 52l-229 382c-8 15 -16 32 -21 47l-9 26h-4l3 -28c3 -16 3 -36 3 -52v-240h84v-130h-343z
" />
    <glyph glyph-name="eng" unicode="&#x14b;" horiz-adv-x="683" 
d="M42 0v125h65v243c0 15 -7 22 -22 22h-48v125h164c47 0 71 -23 71 -58v-17v-8c0 -1 0 -3 -1 -4h2c9 19 22 35 39 50c28 25 71 49 136 49c97 0 174 -49 174 -193v-347c0 -173 -162 -195 -242 -195c-15 0 -25 0 -33 1l-13 2v139c1 -1 3 -1 6 -1h16c35 0 93 7 93 66v303
c0 48 -19 68 -58 68c-77 0 -111 -80 -111 -152v-93h65v-125h-303z" />
    <glyph glyph-name="Omacron" unicode="&#x14c;" 
d="M34 362c0 205 157 365 376 365s376 -160 376 -365c0 -210 -157 -374 -376 -374s-376 164 -376 374zM219 362c0 -125 86 -219 191 -219s191 94 191 219c0 120 -86 210 -191 210s-191 -90 -191 -210zM273 782v112h275v-112h-275z" />
    <glyph glyph-name="omacron" unicode="&#x14d;" horiz-adv-x="634" 
d="M25 256c0 163 131 271 291 271c163 0 293 -108 293 -271c0 -161 -130 -268 -292 -268s-292 107 -292 268zM200 256c0 -77 54 -124 117 -124s117 47 117 124s-54 127 -117 127s-117 -50 -117 -127zM180 586v112h275v-112h-275z" />
    <glyph glyph-name="Obreve" unicode="&#x14e;" 
d="M34 362c0 205 157 365 376 365s376 -160 376 -365c0 -210 -157 -374 -376 -374s-376 164 -376 374zM219 362c0 -125 86 -219 191 -219s191 94 191 219c0 120 -86 210 -191 210s-191 -90 -191 -210zM410 756c-93 0 -174 52 -174 145v10h117v-11c0 -40 30 -58 57 -58
s57 18 57 58v11h117v-10c0 -93 -81 -145 -174 -145z" />
    <glyph glyph-name="obreve" unicode="&#x14f;" horiz-adv-x="634" 
d="M25 256c0 163 131 271 291 271c163 0 293 -108 293 -271c0 -161 -130 -268 -292 -268s-292 107 -292 268zM200 256c0 -77 54 -124 117 -124s117 47 117 124s-54 127 -117 127s-117 -50 -117 -127zM317 560c-93 0 -174 52 -174 145v10h117v-11c0 -40 30 -58 57 -58
s57 18 57 58v11h117v-10c0 -93 -81 -145 -174 -145z" />
    <glyph glyph-name="Ohungarumlaut" unicode="&#x150;" 
d="M34 362c0 205 157 365 376 365s376 -160 376 -365c0 -210 -157 -374 -376 -374s-376 164 -376 374zM219 362c0 -125 86 -219 191 -219s191 94 191 219c0 120 -86 210 -191 210s-191 -90 -191 -210zM436 761l81 150h163l-118 -150h-126zM228 761l76 150h139l-79 -150h-136
z" />
    <glyph glyph-name="ohungarumlaut" unicode="&#x151;" horiz-adv-x="634" 
d="M25 256c0 163 131 271 291 271c163 0 293 -108 293 -271c0 -161 -130 -268 -292 -268s-292 107 -292 268zM200 256c0 -77 54 -124 117 -124s117 47 117 124s-54 127 -117 127s-117 -50 -117 -127zM343 565l81 150h163l-118 -150h-126zM135 565l76 150h139l-79 -150h-136z
" />
    <glyph glyph-name="Racute" unicode="&#x154;" horiz-adv-x="740" 
d="M49 0v130h80v455h-80v130h323c55 0 102 -2 143 -14c87 -27 143 -96 143 -201c0 -95 -44 -157 -116 -196v-2c5 -3 11 -6 16 -10c9 -7 20 -17 28 -33l55 -106c9 -17 23 -23 46 -23h25v-130h-118c-57 0 -81 14 -101 53l-87 167c-12 23 -25 31 -62 31h-36v-121h75v-130h-334z
M308 391h81c56 0 91 28 91 93c0 33 -8 64 -39 79c-16 8 -39 12 -69 12h-64v-184zM264 761l116 150h177l-151 -150h-142z" />
    <glyph glyph-name="racute" unicode="&#x155;" horiz-adv-x="476" 
d="M39 0v125h70v243c0 15 -7 22 -22 22h-48v125h163c47 0 73 -19 73 -66v-27c0 -9 0 -16 -1 -19s-1 -5 -1 -7h2c22 70 87 128 164 128c7 0 11 0 14 -1s5 -1 6 -1v-170l-10 2c-7 1 -14 1 -25 1c-96 0 -142 -60 -142 -155v-75h70v-125h-313zM181 565l116 150h177l-151 -150
h-142z" />
    <glyph glyph-name="Rcommaaccent" unicode="&#x156;" horiz-adv-x="740" 
d="M49 0v130h80v455h-80v130h323c55 0 102 -2 143 -14c87 -27 143 -96 143 -201c0 -95 -44 -157 -116 -196v-2c5 -3 11 -6 16 -10c9 -7 20 -17 28 -33l55 -106c9 -17 23 -23 46 -23h25v-130h-118c-57 0 -81 14 -101 53l-87 167c-12 23 -25 31 -62 31h-36v-121h75v-130h-334z
M308 391h81c56 0 91 28 91 93c0 33 -8 64 -39 79c-16 8 -39 12 -69 12h-64v-184zM326 -46h139c7 -20 8 -39 8 -56c0 -76 -49 -126 -117 -146l-61 54c32 24 45 51 45 82c0 19 -5 41 -14 66z" />
    <glyph glyph-name="rcommaaccent" unicode="&#x157;" horiz-adv-x="476" 
d="M39 0v125h70v243c0 15 -7 22 -22 22h-48v125h163c47 0 73 -19 73 -66v-27c0 -9 0 -16 -1 -19s-1 -5 -1 -7h2c22 70 87 128 164 128c7 0 11 0 14 -1s5 -1 6 -1v-170l-10 2c-7 1 -14 1 -25 1c-96 0 -142 -60 -142 -155v-75h70v-125h-313zM126 -46h139c7 -20 8 -39 8 -56
c0 -76 -49 -126 -117 -146l-61 54c32 24 45 51 45 82c0 19 -5 41 -14 66z" />
    <glyph glyph-name="Rcaron" unicode="&#x158;" horiz-adv-x="740" 
d="M49 0v130h80v455h-80v130h323c55 0 102 -2 143 -14c87 -27 143 -96 143 -201c0 -95 -44 -157 -116 -196v-2c5 -3 11 -6 16 -10c9 -7 20 -17 28 -33l55 -106c9 -17 23 -23 46 -23h25v-130h-118c-57 0 -81 14 -101 53l-87 167c-12 23 -25 31 -62 31h-36v-121h75v-130h-334z
M308 391h81c56 0 91 28 91 93c0 33 -8 64 -39 79c-16 8 -39 12 -69 12h-64v-184zM270 761l-99 150h135l47 -82h2l47 82h135l-99 -150h-168z" />
    <glyph glyph-name="rcaron" unicode="&#x159;" horiz-adv-x="476" 
d="M39 0v125h70v243c0 15 -7 22 -22 22h-48v125h163c47 0 73 -19 73 -66v-27c0 -9 0 -16 -1 -19s-1 -5 -1 -7h2c22 70 87 128 164 128c7 0 11 0 14 -1s5 -1 6 -1v-170l-10 2c-7 1 -14 1 -25 1c-96 0 -142 -60 -142 -155v-75h70v-125h-313zM187 565l-99 150h135l47 -82h2
l47 82h135l-99 -150h-168z" />
    <glyph glyph-name="Sacute" unicode="&#x15a;" horiz-adv-x="618" 
d="M40 254h160v-53c0 -37 47 -58 103 -58s96 19 96 58c0 55 -79 73 -154 102c-97 38 -188 84 -188 215c0 159 130 209 257 209c122 0 243 -46 243 -137v-106h-160v45c0 28 -38 43 -83 43c-41 0 -77 -12 -77 -49c0 -50 59 -69 124 -93c109 -37 218 -83 218 -218
c0 -163 -140 -224 -276 -224c-133 0 -263 59 -263 174v92zM217 761l116 150h177l-151 -150h-142z" />
    <glyph glyph-name="sacute" unicode="&#x15b;" horiz-adv-x="509" 
d="M27 113v69h145v-26c0 -25 25 -37 75 -37c42 0 63 10 63 30c0 32 -34 37 -101 58c-75 24 -164 62 -164 165c0 121 122 155 221 155c80 0 197 -28 197 -112v-70h-145v23c0 16 -15 28 -52 28c-28 0 -49 -6 -49 -26c0 -31 41 -43 90 -56c77 -21 175 -53 175 -160
c0 -116 -112 -166 -235 -166c-92 0 -220 40 -220 125zM167 565l116 150h177l-151 -150h-142z" />
    <glyph glyph-name="Scircumflex" unicode="&#x15c;" horiz-adv-x="618" 
d="M40 254h160v-53c0 -37 47 -58 103 -58s96 19 96 58c0 55 -79 73 -154 102c-97 38 -188 84 -188 215c0 159 130 209 257 209c122 0 243 -46 243 -137v-106h-160v45c0 28 -38 43 -83 43c-41 0 -77 -12 -77 -49c0 -50 59 -69 124 -93c109 -37 218 -83 218 -218
c0 -163 -140 -224 -276 -224c-133 0 -263 59 -263 174v92zM124 761l99 150h168l99 -150h-135l-47 82h-2l-47 -82h-135z" />
    <glyph glyph-name="scircumflex" unicode="&#x15d;" horiz-adv-x="509" 
d="M27 113v69h145v-26c0 -25 25 -37 75 -37c42 0 63 10 63 30c0 32 -34 37 -101 58c-75 24 -164 62 -164 165c0 121 122 155 221 155c80 0 197 -28 197 -112v-70h-145v23c0 16 -15 28 -52 28c-28 0 -49 -6 -49 -26c0 -31 41 -43 90 -56c77 -21 175 -53 175 -160
c0 -116 -112 -166 -235 -166c-92 0 -220 40 -220 125zM74 565l99 150h168l99 -150h-135l-47 82h-2l-47 -82h-135z" />
    <glyph glyph-name="Scedilla" unicode="&#x15e;" horiz-adv-x="618" 
d="M232 -104l31 94c-117 11 -223 67 -223 172v92h160v-53c0 -37 47 -58 103 -58s96 19 96 58c0 55 -79 73 -154 102c-97 38 -188 84 -188 215c0 159 130 209 257 209c122 0 243 -46 243 -137v-106h-160v45c0 28 -38 43 -83 43c-41 0 -77 -12 -77 -49c0 -50 59 -69 124 -93
c109 -37 218 -83 218 -218c0 -147 -113 -211 -236 -222l-14 -40c51 -3 95 -31 95 -86c0 -69 -72 -98 -139 -98c-17 0 -35 1 -48 4c-7 1 -14 3 -21 5v75l14 -4c9 -3 20 -4 35 -4c19 0 48 5 48 26c0 23 -29 28 -56 28h-25z" />
    <glyph glyph-name="scedilla" unicode="&#x15f;" horiz-adv-x="509" 
d="M183 -104l31 94c-87 8 -187 47 -187 123v69h145v-26c0 -25 25 -37 75 -37c41 0 63 7 63 30c0 32 -34 37 -101 58c-75 24 -164 62 -164 165c0 121 122 155 221 155c80 0 197 -28 197 -112v-70h-145v23c0 16 -15 28 -52 28c-28 0 -49 -6 -49 -26c0 -31 41 -43 90 -56
c77 -21 175 -53 175 -160c0 -100 -86 -152 -188 -163l-14 -41c51 -3 95 -31 95 -86c0 -69 -72 -98 -139 -98c-17 0 -35 1 -48 4c-7 1 -14 3 -21 5v75l14 -4c9 -3 20 -4 35 -4c19 0 48 5 48 26c0 23 -29 28 -56 28h-25z" />
    <glyph glyph-name="Scaron" unicode="&#x160;" horiz-adv-x="618" 
d="M40 254h160v-53c0 -37 47 -58 103 -58s96 19 96 58c0 55 -79 73 -154 102c-97 38 -188 84 -188 215c0 159 130 209 257 209c122 0 243 -46 243 -137v-106h-160v45c0 28 -38 43 -83 43c-41 0 -77 -12 -77 -49c0 -50 59 -69 124 -93c109 -37 218 -83 218 -218
c0 -163 -140 -224 -276 -224c-133 0 -263 59 -263 174v92zM223 761l-99 150h135l47 -82h2l47 82h135l-99 -150h-168z" />
    <glyph glyph-name="scaron" unicode="&#x161;" horiz-adv-x="509" 
d="M27 113v69h145v-26c0 -25 25 -37 75 -37c42 0 63 10 63 30c0 32 -34 37 -101 58c-75 24 -164 62 -164 165c0 121 122 155 221 155c80 0 197 -28 197 -112v-70h-145v23c0 16 -15 28 -52 28c-28 0 -49 -6 -49 -26c0 -31 41 -43 90 -56c77 -21 175 -53 175 -160
c0 -116 -112 -166 -235 -166c-92 0 -220 40 -220 125zM173 565l-99 150h135l47 -82h2l47 82h135l-99 -150h-168z" />
    <glyph glyph-name="Tcommaaccent" unicode="&#x162;" horiz-adv-x="695" 
d="M178 0v130h80v445h-85v-101h-150v241h649v-241h-150v101h-85v-445h80v-130h-133l-17 -50c51 -3 95 -31 95 -86c0 -69 -72 -98 -139 -98c-17 0 -35 1 -48 4c-7 1 -14 3 -21 5v75l14 -4c9 -3 20 -4 35 -4c19 0 48 5 48 26c0 23 -29 28 -56 28h-25l34 104h-126z" />
    <glyph glyph-name="tcommaaccent" unicode="&#x163;" horiz-adv-x="410" 
d="M158 -104l40 123c-59 24 -107 75 -107 171v200h-70v125h75v139h168v-139h108v-125h-108v-182c0 -61 59 -71 92 -71c7 0 13 1 17 1h6v-140l-13 -2c-8 -1 -19 -1 -34 -1c-19 0 -37 1 -60 4l-17 -49c51 -3 95 -31 95 -86c0 -69 -72 -98 -139 -98c-17 0 -35 1 -48 4
c-7 1 -14 3 -21 5v75l14 -4c9 -3 20 -4 35 -4c19 0 48 5 48 26c0 23 -29 28 -56 28h-25z" />
    <glyph glyph-name="Tcaron" unicode="&#x164;" horiz-adv-x="695" 
d="M178 0v130h80v445h-85v-101h-150v241h649v-241h-150v101h-85v-445h80v-130h-339zM263 761l-99 150h135l47 -82h2l47 82h135l-99 -150h-168z" />
    <glyph glyph-name="tcaron" unicode="&#x165;" horiz-adv-x="408" 
d="M89 190v200h-70v125h75v139h168v-139h108v-125h-108v-182c0 -61 59 -71 92 -71c7 0 13 1 17 1h6v-140l-13 -2c-8 -1 -19 -1 -34 -1c-83 0 -241 22 -241 195zM344 749h139c7 -20 8 -39 8 -56c0 -76 -49 -126 -117 -146l-61 54c32 24 45 51 45 82c0 19 -5 41 -14 66z" />
    <glyph glyph-name="Tbar" unicode="&#x166;" horiz-adv-x="695" 
d="M95 279v112h163v184h-85v-101h-150v241h649v-241h-150v101h-85v-184h162v-112h-162v-149h80v-130h-339v130h80v149h-163z" />
    <glyph glyph-name="tbar" unicode="&#x167;" horiz-adv-x="408" 
d="M20 221v112h69v67h-70v115h75v139h168v-139h108v-115h-108v-67h102v-112h-102v-13c0 -61 59 -71 92 -71c7 0 13 1 17 1h6v-140l-13 -2c-8 -1 -19 -1 -34 -1c-83 0 -241 22 -241 195v31h-69z" />
    <glyph glyph-name="Utilde" unicode="&#x168;" 
d="M107 273v312h-80v130h339v-130h-80v-312c0 -32 7 -60 18 -79c19 -32 58 -51 107 -51c47 0 81 15 104 50c13 21 19 47 19 80v312h-80v130h339v-130h-80v-312c0 -72 -22 -139 -59 -186c-56 -68 -149 -99 -244 -99c-103 0 -191 36 -243 96c-43 48 -60 113 -60 189zM321 761
h-112c0 102 43 153 128 153c66 0 89 -60 126 -60c25 0 37 19 37 57h112c0 -102 -43 -153 -128 -153c-66 0 -89 60 -126 60c-25 0 -37 -19 -37 -57z" />
    <glyph glyph-name="utilde" unicode="&#x169;" horiz-adv-x="694" 
d="M91 181v209h-70v125h243v-307c0 -48 18 -68 57 -68c68 0 107 79 107 157v93h-70v125h243v-368c0 -15 7 -22 22 -22h43v-125h-159c-47 0 -71 23 -71 58v14c0 4 1 7 1 10v5h-2c-9 -18 -22 -34 -38 -49c-27 -25 -70 -50 -137 -50c-91 0 -169 49 -169 193zM241 565h-112
c0 102 43 153 128 153c66 0 89 -60 126 -60c25 0 37 19 37 57h112c0 -102 -43 -153 -128 -153c-66 0 -89 60 -126 60c-25 0 -37 -19 -37 -57z" />
    <glyph glyph-name="Umacron" unicode="&#x16a;" 
d="M107 273v312h-80v130h339v-130h-80v-312c0 -32 7 -60 18 -79c19 -32 58 -51 107 -51c47 0 81 15 104 50c13 21 19 47 19 80v312h-80v130h339v-130h-80v-312c0 -72 -22 -139 -59 -186c-56 -68 -149 -99 -244 -99c-103 0 -191 36 -243 96c-43 48 -60 113 -60 189zM273 782
v112h275v-112h-275z" />
    <glyph glyph-name="umacron" unicode="&#x16b;" horiz-adv-x="694" 
d="M91 181v209h-70v125h243v-307c0 -48 18 -68 57 -68c68 0 107 79 107 157v93h-70v125h243v-368c0 -15 7 -22 22 -22h43v-125h-159c-47 0 -71 23 -71 58v14c0 4 1 7 1 10v5h-2c-9 -18 -22 -34 -38 -49c-27 -25 -70 -50 -137 -50c-91 0 -169 49 -169 193zM193 586v112h275
v-112h-275z" />
    <glyph glyph-name="Ubreve" unicode="&#x16c;" 
d="M107 273v312h-80v130h339v-130h-80v-312c0 -32 7 -60 18 -79c19 -32 58 -51 107 -51c47 0 81 15 104 50c13 21 19 47 19 80v312h-80v130h339v-130h-80v-312c0 -72 -22 -139 -59 -186c-56 -68 -149 -99 -244 -99c-103 0 -191 36 -243 96c-43 48 -60 113 -60 189zM410 756
c-93 0 -174 52 -174 145v10h117v-11c0 -40 30 -58 57 -58s57 18 57 58v11h117v-10c0 -93 -81 -145 -174 -145z" />
    <glyph glyph-name="ubreve" unicode="&#x16d;" horiz-adv-x="694" 
d="M91 181v209h-70v125h243v-307c0 -48 18 -68 57 -68c68 0 107 79 107 157v93h-70v125h243v-368c0 -15 7 -22 22 -22h43v-125h-159c-47 0 -71 23 -71 58v14c0 4 1 7 1 10v5h-2c-9 -18 -22 -34 -38 -49c-27 -25 -70 -50 -137 -50c-91 0 -169 49 -169 193zM330 560
c-93 0 -174 52 -174 145v10h117v-11c0 -40 30 -58 57 -58s57 18 57 58v11h117v-10c0 -93 -81 -145 -174 -145z" />
    <glyph glyph-name="Uring" unicode="&#x16e;" 
d="M107 273v312h-80v130h339v-130h-80v-312c0 -32 7 -60 18 -79c19 -32 58 -51 107 -51c47 0 81 15 104 50c13 21 19 47 19 80v312h-80v130h339v-130h-80v-312c0 -72 -22 -139 -59 -186c-56 -68 -149 -99 -244 -99c-103 0 -191 36 -243 96c-43 48 -60 113 -60 189zM410 747
c-56 0 -117 28 -117 91c0 64 61 93 117 93c57 0 119 -29 119 -93c0 -63 -62 -91 -119 -91zM410 801c23 0 38 14 38 37c0 24 -15 39 -38 39c-21 0 -36 -15 -36 -39c0 -23 13 -37 36 -37z" />
    <glyph glyph-name="uring" unicode="&#x16f;" horiz-adv-x="694" 
d="M91 181v209h-70v125h243v-307c0 -48 18 -68 57 -68c68 0 107 79 107 157v93h-70v125h243v-368c0 -15 7 -22 22 -22h43v-125h-159c-47 0 -71 23 -71 58v14c0 4 1 7 1 10v5h-2c-9 -18 -22 -34 -38 -49c-27 -25 -70 -50 -137 -50c-91 0 -169 49 -169 193zM330 551
c-56 0 -117 28 -117 91c0 64 61 93 117 93c57 0 119 -29 119 -93c0 -63 -62 -91 -119 -91zM330 605c23 0 38 14 38 37c0 24 -15 39 -38 39c-21 0 -36 -15 -36 -39c0 -23 13 -37 36 -37z" />
    <glyph glyph-name="Uhungarumlaut" unicode="&#x170;" 
d="M107 273v312h-80v130h339v-130h-80v-312c0 -32 7 -60 18 -79c19 -32 58 -51 107 -51c47 0 81 15 104 50c13 21 19 47 19 80v312h-80v130h339v-130h-80v-312c0 -72 -22 -139 -59 -186c-56 -68 -149 -99 -244 -99c-103 0 -191 36 -243 96c-43 48 -60 113 -60 189zM436 761
l81 150h163l-118 -150h-126zM228 761l76 150h139l-79 -150h-136z" />
    <glyph glyph-name="uhungarumlaut" unicode="&#x171;" horiz-adv-x="694" 
d="M91 181v209h-70v125h243v-307c0 -48 18 -68 57 -68c68 0 107 79 107 157v93h-70v125h243v-368c0 -15 7 -22 22 -22h43v-125h-159c-47 0 -71 23 -71 58v14c0 4 1 7 1 10v5h-2c-9 -18 -22 -34 -38 -49c-27 -25 -70 -50 -137 -50c-91 0 -169 49 -169 193zM356 565l81 150
h163l-118 -150h-126zM148 565l76 150h139l-79 -150h-136z" />
    <glyph glyph-name="Uogonek" unicode="&#x172;" horiz-adv-x="821" 
d="M107 263v322h-80v130h339v-130h-80v-322c0 -79 48 -120 124 -120s124 41 124 120v322h-80v130h339v-130h-80v-322c0 -117 -64 -200 -163 -251c-17 -8 -74 -45 -74 -106c0 -19 10 -35 57 -38l-28 -110c-95 11 -151 51 -151 115c0 41 20 83 55 115
c-185 0 -302 115 -302 275z" />
    <glyph glyph-name="uogonek" unicode="&#x173;" horiz-adv-x="694" 
d="M465 -127c0 47 24 92 67 127h-25c-47 0 -71 23 -71 58v14c0 4 1 7 1 10v5h-2c-9 -18 -22 -34 -38 -49c-27 -25 -70 -50 -134 -50c-95 0 -172 49 -172 193v209h-70v125h243v-307c0 -48 19 -68 56 -68c74 0 108 82 108 157v93h-70v125h243v-368c0 -15 7 -22 22 -22h43v-125
h-4c-29 0 -75 -54 -75 -94c0 -19 10 -35 57 -38l-28 -110c-95 11 -151 51 -151 115z" />
    <glyph glyph-name="Wcircumflex" unicode="&#x174;" horiz-adv-x="1032" 
d="M12 585v130h317v-130h-83l66 -317c4 -17 6 -36 7 -51l2 -24h4l3 24c3 15 5 34 9 51l110 447h138l110 -447c5 -17 6 -36 9 -51l3 -24h4l2 24c1 15 4 34 7 51l66 317h-83v130h317v-130h-60l-142 -585h-197l-91 366c-4 19 -6 38 -9 53l-3 26h-4l-3 -26c-3 -15 -4 -34 -9 -53
l-91 -366h-197l-142 585h-60zM333 761l99 150h168l99 -150h-135l-47 82h-2l-47 -82h-135z" />
    <glyph glyph-name="wcircumflex" unicode="&#x175;" horiz-adv-x="872" 
d="M10 390v125h274v-125h-51l38 -179c3 -15 5 -32 6 -45l2 -23h4c0 8 0 16 1 23c1 13 4 30 7 45l71 304h148l71 -304c4 -15 6 -32 7 -45c1 -7 1 -15 1 -23h4l2 23c1 13 3 30 6 45l38 179h-51v125h274v-125h-59l-98 -390h-200l-58 238c-4 16 -6 33 -7 46l-2 22h-4
c0 -7 0 -15 -1 -22c-1 -13 -4 -29 -8 -46l-58 -238h-200l-98 390h-59zM253 565l99 150h168l99 -150h-135l-47 82h-2l-47 -82h-135z" />
    <glyph glyph-name="Ycircumflex" unicode="&#x176;" horiz-adv-x="671" 
d="M166 0v130h80v163l-175 292h-61v130h296v-130h-60l73 -132c7 -11 9 -18 12 -25c2 -3 3 -7 4 -10h2c1 3 2 7 4 10l12 25l73 132h-60v130h295v-130h-61l-175 -292v-163h80v-130h-339zM155 761l99 150h168l99 -150h-135l-47 82h-2l-47 -82h-135z" />
    <glyph glyph-name="ycircumflex" unicode="&#x177;" horiz-adv-x="627" 
d="M12 -170l53 123c7 -5 14 -9 22 -12c15 -7 36 -12 63 -12c36 0 70 10 85 42l2 5l-170 414h-58v125h283v-125h-50l63 -191c5 -15 7 -32 10 -45c1 -7 2 -15 2 -22h4c1 7 2 15 4 22c3 13 7 30 12 45l61 191h-47v125h267v-125h-53l-166 -435c-48 -123 -139 -165 -240 -165
c-44 0 -80 9 -107 20c-15 6 -29 13 -40 20zM134 565l99 150h168l99 -150h-135l-47 82h-2l-47 -82h-135z" />
    <glyph glyph-name="Zacute" unicode="&#x179;" horiz-adv-x="660" 
d="M49 0v110l305 432c7 11 14 18 21 25l11 9v2c-5 0 -9 0 -14 -1c-8 -1 -18 -2 -29 -2h-140v-101h-150v241h549v-108l-306 -434c-7 -11 -14 -17 -21 -24l-11 -10v-2l14 2c8 1 18 1 29 1h157v105h150v-245h-565zM247 761l116 150h177l-151 -150h-142z" />
    <glyph glyph-name="zacute" unicode="&#x17a;" horiz-adv-x="552" 
d="M41 106l226 255c8 9 15 16 22 21l10 8v2c-5 0 -10 0 -15 -1c-9 -1 -20 -1 -31 -1h-67v-62h-145v187h460v-107l-222 -254c-8 -9 -15 -16 -22 -21l-10 -8v-2c5 0 11 0 16 1c9 1 19 1 30 1h78v62h145v-187h-475v106zM183 565l116 150h177l-151 -150h-142z" />
    <glyph glyph-name="Zdotaccent" unicode="&#x17b;" horiz-adv-x="660" 
d="M49 0v110l305 432c7 11 14 18 21 25l11 9v2c-5 0 -9 0 -14 -1c-8 -1 -18 -2 -29 -2h-140v-101h-150v241h549v-108l-306 -434c-7 -11 -14 -17 -21 -24l-11 -10v-2l14 2c8 1 18 1 29 1h157v105h150v-245h-565zM266 779v132h143v-132h-143z" />
    <glyph glyph-name="zdotaccent" unicode="&#x17c;" horiz-adv-x="552" 
d="M41 106l226 255c8 9 15 16 22 21l10 8v2c-5 0 -10 0 -15 -1c-9 -1 -20 -1 -31 -1h-67v-62h-145v187h460v-107l-222 -254c-8 -9 -15 -16 -22 -21l-10 -8v-2c5 0 11 0 16 1c9 1 19 1 30 1h78v62h145v-187h-475v106zM202 583v132h143v-132h-143z" />
    <glyph glyph-name="Zcaron" unicode="&#x17d;" horiz-adv-x="660" 
d="M49 0v110l305 432c7 11 14 18 21 25l11 9v2c-5 0 -9 0 -14 -1c-8 -1 -18 -2 -29 -2h-140v-101h-150v241h549v-108l-306 -434c-7 -11 -14 -17 -21 -24l-11 -10v-2l14 2c8 1 18 1 29 1h157v105h150v-245h-565zM253 761l-99 150h135l47 -82h2l47 82h135l-99 -150h-168z" />
    <glyph glyph-name="zcaron" unicode="&#x17e;" horiz-adv-x="552" 
d="M41 106l226 255c8 9 15 16 22 21l10 8v2c-5 0 -10 0 -15 -1c-9 -1 -20 -1 -31 -1h-67v-62h-145v187h460v-107l-222 -254c-8 -9 -15 -16 -22 -21l-10 -8v-2c5 0 11 0 16 1c9 1 19 1 30 1h78v62h145v-187h-475v106zM189 565l-99 150h135l47 -82h2l47 82h135l-99 -150h-168z
" />
    <glyph glyph-name="longs" unicode="&#x17f;" horiz-adv-x="380" 
d="M42 0v125h65v265h-70v125h70v21c0 169 153 192 237 192c19 0 33 -1 44 -2l17 -2v-140l-10 2c-7 1 -17 1 -32 1c-29 0 -83 -3 -83 -47v-415h76v-125h-314z" />
    <glyph glyph-name="Scommaaccent" unicode="&#x218;" horiz-adv-x="618" 
d="M40 254h160v-53c0 -37 47 -58 103 -58s96 19 96 58c0 55 -79 73 -154 102c-97 38 -188 84 -188 215c0 159 130 209 257 209c122 0 243 -46 243 -137v-106h-160v45c0 28 -38 43 -83 43c-41 0 -77 -12 -77 -49c0 -50 59 -69 124 -93c109 -37 218 -83 218 -218
c0 -163 -140 -224 -276 -224c-133 0 -263 59 -263 174v92zM240 -46h139c7 -20 8 -39 8 -56c0 -76 -49 -126 -117 -146l-61 54c32 24 45 51 45 82c0 19 -5 41 -14 66z" />
    <glyph glyph-name="scommaaccent" unicode="&#x219;" horiz-adv-x="509" 
d="M27 113v69h145v-26c0 -25 25 -37 75 -37c42 0 63 10 63 30c0 32 -34 37 -101 58c-75 24 -164 62 -164 165c0 121 122 155 221 155c80 0 197 -28 197 -112v-70h-145v23c0 16 -15 28 -52 28c-28 0 -49 -6 -49 -26c0 -31 41 -43 90 -56c77 -21 175 -53 175 -160
c0 -116 -112 -166 -235 -166c-92 0 -220 40 -220 125zM191 -46h139c7 -20 8 -39 8 -56c0 -76 -49 -126 -117 -146l-61 54c32 24 45 51 45 82c0 19 -5 41 -14 66z" />
    <glyph glyph-name="uni021A" unicode="&#x21a;" horiz-adv-x="695" 
d="M178 0v130h80v445h-85v-101h-150v241h649v-241h-150v101h-85v-445h80v-130h-339zM278 -46h139c7 -20 8 -39 8 -56c0 -76 -49 -126 -117 -146l-61 54c32 24 45 51 45 82c0 19 -5 41 -14 66z" />
    <glyph glyph-name="uni021B" unicode="&#x21b;" horiz-adv-x="408" 
d="M89 190v200h-70v125h75v139h168v-139h108v-125h-108v-182c0 -61 59 -71 92 -71c7 0 13 1 17 1h6v-140l-13 -2c-8 -1 -19 -1 -34 -1c-83 0 -241 22 -241 195zM164 -46h139c7 -20 8 -39 8 -56c0 -76 -49 -126 -117 -146l-61 54c32 24 45 51 45 82c0 19 -5 41 -14 66z" />
    <glyph glyph-name="uni1E9E" unicode="&#x1e9e;" horiz-adv-x="763" 
d="M31 0v130h81v330c0 152 104 255 261 255h306v-120l-93 -141c-7 -11 -12 -16 -17 -23l-8 -9v-2c112 -32 168 -121 168 -202c0 -107 -80 -228 -269 -228c-31 0 -64 3 -100 10v150c31 -7 55 -8 76 -8c97 0 113 48 113 76c0 34 -22 72 -159 80v106l76 128c7 11 14 18 19 25
l9 9v2c-4 0 -8 0 -12 -1c-7 -1 -16 -2 -27 -2h-81c-49 0 -83 -42 -83 -101v-464h-260z" />
    <glyph glyph-name="minus" unicode="&#x2212;" horiz-adv-x="630" 
d="M42 222v130h546v-130h-546z" />
    <glyph glyph-name="commaaccent" horiz-adv-x="335" 
d="M107 -46h139c7 -20 8 -39 8 -56c0 -76 -49 -126 -117 -146l-61 54c32 24 45 51 45 82c0 19 -5 41 -14 66z" />
    <glyph glyph-name="apple" horiz-adv-x="1130" 
d="M168 -5v152l-126 72v278l126 71v151l265 142l134 -71l132 71l265 -142v-151l124 -71v-278l-124 -72v-152l-265 -141l-132 71l-134 -71zM208 30l238 -126l121 66l118 -66l238 126v139l114 64v249l-114 66v136l-238 126l-118 -64l-121 64l-238 -126v-136l-114 -66v-249
l114 -64v-139zM242 64v121l-99 60v225l99 58v123l215 114l110 -59l107 59l214 -114v-123l100 -58v-225l-100 -60v-121l-214 -114l-107 58l-110 -58zM426 91h129v171h176v108h-176v128h85c15 0 16 -6 16 -21v-21h115v102c0 33 -10 48 -47 48h-346v-108h48v-407z" />
    <glyph glyph-name="zero.tnum" horiz-adv-x="600" 
d="M300 -12c-203 0 -269 166 -269 371s66 368 269 368s269 -163 269 -368s-66 -371 -269 -371zM300 143c69 0 89 96 89 216c0 119 -20 213 -89 213s-89 -94 -89 -213c0 -120 20 -216 89 -216z" />
    <glyph glyph-name="one.tnum" horiz-adv-x="600" 
d="M78 0v140h152v308c0 15 1 27 1 38v17h-2c-2 -4 -4 -8 -7 -12c-5 -7 -10 -17 -21 -26l-43 -39l-101 108l193 181h151v-575h153v-140h-476z" />
    <glyph glyph-name="two.tnum" horiz-adv-x="600" 
d="M556 0h-515c-5 28 -8 53 -8 77c0 263 321 301 321 421c0 58 -41 74 -77 74c-35 0 -63 -20 -83 -41c-12 -12 -23 -26 -32 -41l-121 83c14 29 33 54 56 77c40 39 103 77 196 77c117 0 246 -67 246 -219c0 -210 -309 -257 -313 -368h180v85h150v-225z" />
    <glyph glyph-name="three.tnum" horiz-adv-x="600" 
d="M57 500v215h472v-124l-134 -164c96 -23 157 -96 157 -195c0 -122 -86 -244 -270 -244c-80 0 -141 23 -182 47c-24 14 -45 30 -62 47l81 125c13 -12 28 -23 44 -32c27 -16 65 -32 106 -32c65 0 102 36 102 81c0 48 -38 81 -113 81c-11 0 -23 -1 -35 -2l-37 80l125 159
c7 9 15 17 23 24l11 10v2c-5 0 -10 0 -15 -1c-9 -1 -19 -2 -30 -2h-93v-75h-150z" />
    <glyph glyph-name="four.tnum" horiz-adv-x="600" 
d="M4 173v106l276 436h214v-407h85v-135h-85v-173h-173v173h-317zM293 489l-115 -179v-2h143v173c0 15 1 33 4 48l3 26h-4l-8 -22c-5 -13 -12 -29 -23 -44z" />
    <glyph glyph-name="five.tnum" horiz-adv-x="600" 
d="M35 79l77 128c13 -12 28 -23 45 -32c28 -16 66 -32 109 -32c60 0 110 32 110 91c0 49 -37 88 -118 88c-33 0 -57 -6 -76 -13c-11 -4 -20 -8 -27 -13l-93 35l29 384h419v-215h-150v75h-117l-6 -93c0 -6 -1 -12 -2 -19l-2 -9h2c4 1 9 3 16 4c11 2 27 3 48 3
c165 0 257 -100 257 -226c0 -140 -111 -247 -278 -247c-77 0 -139 23 -180 46c-24 13 -45 28 -63 45z" />
    <glyph glyph-name="six.tnum" horiz-adv-x="600" 
d="M321 -12c-151 0 -289 110 -289 334c0 211 119 405 349 405c47 0 84 -7 111 -15c16 -5 30 -10 42 -16l-46 -145c-9 5 -19 8 -30 11c-19 5 -43 10 -70 10c-85 0 -133 -54 -156 -123h2c20 13 64 25 108 25c146 0 236 -122 236 -242c0 -123 -100 -244 -257 -244zM212 270
c0 -60 49 -127 109 -127c45 0 77 37 77 90c0 48 -29 100 -121 100c-39 0 -65 -15 -65 -63z" />
    <glyph glyph-name="seven.tnum" horiz-adv-x="600" 
d="M87 0l267 532c8 15 15 26 20 33c3 4 5 8 8 11v2c-5 0 -10 0 -15 -1c-9 -1 -22 -2 -37 -2h-130v-75h-150v215h519v-122l-300 -593h-182z" />
    <glyph glyph-name="eight.tnum" horiz-adv-x="600" 
d="M32 204c0 93 76 157 103 178c-45 35 -75 77 -75 141c0 100 75 204 238 204c138 0 248 -75 248 -199c0 -83 -56 -148 -74 -169c55 -35 93 -84 93 -155c0 -106 -89 -216 -266 -216c-175 0 -267 108 -267 216zM231 519c0 -49 48 -71 120 -100c12 19 26 46 26 86
c0 47 -28 72 -77 72s-69 -25 -69 -58zM207 224c0 -51 37 -86 94 -86c49 0 85 28 85 72c0 46 -48 63 -138 102c-19 -19 -41 -47 -41 -88z" />
    <glyph glyph-name="nine.tnum" horiz-adv-x="600" 
d="M22 483c0 123 100 244 257 244c151 0 289 -110 289 -334c0 -205 -116 -405 -350 -405c-47 0 -85 8 -112 16c-16 5 -30 10 -43 15l46 145c9 -4 20 -7 31 -10c19 -5 44 -11 71 -11c88 0 135 54 158 126h-2c-20 -15 -65 -25 -109 -25c-146 0 -236 122 -236 239zM202 483
c0 -48 30 -98 116 -98c37 0 70 17 70 66c0 67 -58 121 -110 121c-43 0 -76 -40 -76 -89z" />
    <glyph glyph-name="hyphen.case" horiz-adv-x="446" 
d="M66 272v150h314v-150h-314z" />
    <glyph glyph-name="parenleft.case" horiz-adv-x="352" 
d="M319 -65h-142c-77 123 -124 273 -124 442c0 145 44 280 124 403h142c-75 -125 -113 -262 -113 -403c0 -151 38 -301 113 -442z" />
    <glyph glyph-name="parenright.case" horiz-adv-x="352" 
d="M175 -65h-142c75 141 113 291 113 442c0 141 -38 278 -113 403h142c80 -123 124 -258 124 -403c0 -169 -47 -319 -124 -442z" />
    <glyph glyph-name="bracketleft.case" horiz-adv-x="360" 
d="M82 -65v845h246v-120h-102v-605h102v-120h-246z" />
    <glyph glyph-name="bracketright.case" horiz-adv-x="360" 
d="M32 55h102v605h-102v120h246v-845h-246v120z" />
    <glyph glyph-name="braceleft.case" horiz-adv-x="383" 
d="M110 92v98c0 48 -21 72 -42 84c-12 7 -26 11 -43 12v150c17 1 31 5 43 12c21 12 42 38 42 87v88c0 144 130 162 199 162c13 0 23 0 31 -1c5 -1 9 -1 12 -1v-124c-2 0 -4 0 -7 1s-9 1 -18 1c-28 0 -73 -9 -73 -54v-117c0 -51 -21 -83 -42 -102c-12 -11 -26 -20 -42 -25v-2
c16 -5 30 -13 42 -24c21 -19 42 -49 42 -102v-127c0 -45 45 -54 73 -54c9 0 15 0 18 1s5 1 7 1v-124c-3 0 -7 0 -12 -1c-8 -1 -18 -1 -31 -1c-69 0 -199 18 -199 162z" />
    <glyph glyph-name="braceright.case" horiz-adv-x="382" 
d="M31 -68v124c2 0 4 0 7 -1s9 -1 18 -1c28 0 73 9 73 54v127c0 53 21 83 42 102c12 11 26 19 42 24v2c-16 5 -30 14 -42 25c-21 19 -42 51 -42 102v117c0 45 -45 54 -73 54c-9 0 -15 0 -18 -1s-5 -1 -7 -1v124c3 0 7 0 12 1c8 1 19 1 31 1c70 0 199 -18 199 -162v-88
c0 -49 22 -75 43 -87c12 -7 26 -11 42 -12v-150c-16 -1 -30 -5 -42 -12c-21 -12 -43 -36 -43 -84v-98c0 -144 -129 -162 -199 -162c-12 0 -23 0 -31 1c-5 1 -9 1 -12 1z" />
    <glyph glyph-name="at.case" horiz-adv-x="810" 
d="M25 355c0 211 169 376 393 376c221 0 298 -109 298 -240v-198h74v-119h-283c-149 0 -227 90 -227 182c0 88 74 176 227 176h49c0 43 -74 64 -135 64c-131 0 -227 -120 -227 -241c0 -127 88 -239 252 -239v-130c-261 0 -421 163 -421 369zM451 360c0 -37 22 -67 66 -67h39
v134h-37c-47 0 -68 -31 -68 -67z" />
    <glyph glyph-name="guillemotleft.case" horiz-adv-x="653" 
d="M453 137l-164 205l164 206h158l-164 -206l164 -205h-158zM193 137l-164 205l164 206h158l-164 -206l164 -205h-158z" />
    <glyph glyph-name="guillemotright.case" horiz-adv-x="653" 
d="M302 137l164 205l-164 206h158l164 -206l-164 -205h-158zM42 137l164 205l-164 206h158l164 -206l-164 -205h-158z" />
    <glyph glyph-name="guilsinglleft.case" horiz-adv-x="393" 
d="M193 137l-164 205l164 206h158l-164 -206l164 -205h-158z" />
    <glyph glyph-name="guilsinglright.case" horiz-adv-x="393" 
d="M42 137l164 205l-164 206h158l164 -206l-164 -205h-158z" />
    <glyph glyph-name="endash.case" horiz-adv-x="730" 
d="M67 282v130h596v-130h-596z" />
    <glyph glyph-name="emdash.case" horiz-adv-x="930" 
d="M67 282v130h796v-130h-796z" />
    <glyph glyph-name="periodcentered.case" horiz-adv-x="292" 
d="M67 263v164h158v-164h-158z" />
    <glyph glyph-name="questiondown.case" horiz-adv-x="462" 
d="M191 565v150h158v-150h-158zM16 184c0 164 171 188 171 277v33h166v-47c0 -135 -157 -159 -157 -243c0 -35 32 -59 71 -59c24 0 47 11 66 22c11 7 20 14 29 21l96 -117c-15 -15 -33 -29 -54 -41c-36 -21 -87 -42 -155 -42c-112 0 -233 67 -233 196z" />
    <glyph glyph-name="exclamdown.case" horiz-adv-x="334" 
d="M88 565v150h158v-150h-158zM77 0l16 494h148l16 -494h-180z" />
    <glyph glyph-name="bullet.case" horiz-adv-x="460" 
d="M230 170c-103 0 -186 83 -186 186s83 186 186 186s186 -83 186 -186s-83 -186 -186 -186z" />
    <glyph glyph-name="zero.p_osf" horiz-adv-x="597" 
d="M43 278c0 144 73 289 256 289s255 -146 255 -291c0 -147 -72 -288 -255 -288s-256 145 -256 290zM217 278c0 -73 17 -146 82 -146s82 72 82 144c0 73 -18 147 -82 147c-65 0 -82 -73 -82 -145z" />
    <glyph glyph-name="one.p_osf" horiz-adv-x="513" 
d="M52 0v135h143v172c0 15 1 32 1 47v27h-2c-3 -4 -6 -8 -10 -11c-7 -7 -16 -14 -28 -21l-55 -31l-79 118l193 119h147v-420h134v-135h-444z" />
    <glyph glyph-name="two.p_osf" horiz-adv-x="571" 
d="M57 0v115c80 48 269 166 269 247c0 46 -36 61 -66 61c-35 0 -67 -17 -94 -34c-15 -10 -30 -22 -43 -35l-85 106c18 20 39 38 64 54c43 27 102 53 182 53c100 0 217 -52 217 -181c0 -123 -123 -206 -212 -254v-2l17 3c11 1 28 2 51 2h170v-135h-470z" />
    <glyph glyph-name="three.p_osf" horiz-adv-x="544" 
d="M22 -40l76 117c12 -11 26 -21 41 -30c27 -15 61 -31 100 -31c63 0 96 34 96 77c0 45 -37 76 -112 76c-7 0 -14 0 -21 -1c-4 -1 -8 -1 -12 -1l-34 75l117 155c7 9 15 17 23 24l11 10v2c-5 0 -10 0 -15 -1c-9 -1 -19 -2 -30 -2h-82v-70h-140v195h443v-112l-124 -160
c85 -19 150 -91 150 -182c0 -115 -81 -229 -258 -229c-76 0 -132 21 -171 44c-23 13 -42 27 -58 44z" />
    <glyph glyph-name="four.p_osf" horiz-adv-x="612" 
d="M17 28v101l257 426h223v-397h85v-130h-85v-144h-169v144h-311zM187 158h141v180c0 15 1 33 4 48l3 26h-4l-9 -22c-7 -13 -13 -29 -22 -44z" />
    <glyph glyph-name="five.p_osf" horiz-adv-x="545" 
d="M20 -42l73 122c13 -12 27 -23 42 -32c27 -16 62 -32 101 -32c52 0 105 29 105 87c0 57 -50 85 -110 85c-27 0 -50 -4 -69 -11c-11 -3 -20 -7 -29 -11l-88 33l29 356h396v-195h-145v70h-104l-4 -85c0 -7 -1 -15 -2 -22l-2 -10h2c4 1 9 3 15 4c10 2 25 3 45 3
c152 0 240 -95 240 -215c0 -133 -111 -233 -264 -233c-73 0 -132 20 -171 43c-23 13 -43 27 -60 43z" />
    <glyph glyph-name="six.p_osf" horiz-adv-x="596" 
d="M37 305c0 184 112 378 333 378c52 0 92 -7 119 -14c16 -4 30 -9 42 -15l-47 -135c-9 4 -19 7 -30 10c-19 5 -44 10 -71 10c-82 0 -132 -58 -153 -117h2c16 11 68 23 102 23c148 0 232 -112 232 -228c0 -113 -87 -229 -242 -229c-148 0 -287 96 -287 317zM213 272
c0 -77 48 -140 111 -140c44 0 70 34 70 82s-30 98 -106 98c-41 0 -75 -9 -75 -40z" />
    <glyph glyph-name="seven.p_osf" horiz-adv-x="544" 
d="M61 -116l258 503c8 15 15 26 20 33c3 4 5 8 8 11v2c-5 0 -10 0 -15 -1c-9 -1 -22 -2 -37 -2h-123v-70h-145v195h502v-115l-287 -556h-181z" />
    <glyph glyph-name="eight.p_osf" horiz-adv-x="597" 
d="M35 197c0 78 74 137 104 162c-43 31 -72 73 -72 129c0 99 72 194 235 194c131 0 239 -70 239 -195c0 -73 -64 -146 -70 -154c52 -31 88 -75 88 -140c0 -102 -87 -205 -263 -205c-172 0 -261 102 -261 209zM232 485c0 -44 52 -68 117 -93c7 12 27 44 27 83s-28 64 -76 64
s-68 -25 -68 -54zM206 211c0 -43 38 -80 90 -80c56 0 89 26 89 70c0 40 -62 60 -134 92c-19 -17 -45 -46 -45 -82z" />
    <glyph glyph-name="nine.p_osf" horiz-adv-x="597" 
d="M63 -99l47 135c9 -4 19 -7 30 -10c19 -5 44 -10 71 -10c82 0 132 58 153 117h-2c-16 -11 -68 -23 -102 -23c-148 0 -232 112 -232 228c0 113 87 229 242 229c148 0 287 -96 287 -317c0 -184 -112 -378 -333 -378c-51 0 -92 7 -119 14c-16 4 -30 9 -42 15zM306 243
c41 0 75 9 75 40c0 77 -48 140 -111 140c-44 0 -70 -34 -70 -82s30 -98 106 -98z" />
    <glyph glyph-name="zero.t_osf" horiz-adv-x="600" 
d="M44 278c0 144 73 289 256 289s255 -146 255 -291c0 -147 -72 -288 -255 -288s-256 145 -256 290zM218 278c0 -73 17 -146 82 -146s82 72 82 144c0 73 -18 147 -82 147c-65 0 -82 -73 -82 -145z" />
    <glyph glyph-name="one.t_osf" horiz-adv-x="600" 
d="M95 0v135h143v172c0 15 1 32 1 47v27h-2c-3 -4 -6 -8 -10 -11c-7 -7 -16 -14 -28 -21l-55 -31l-79 118l193 119h147v-420h134v-135h-444z" />
    <glyph glyph-name="two.t_osf" horiz-adv-x="600" 
d="M71 0v115c80 48 269 166 269 247c0 46 -36 61 -66 61c-35 0 -67 -17 -94 -34c-15 -10 -30 -22 -43 -35l-85 106c18 20 39 38 64 54c43 27 102 53 182 53c100 0 217 -52 217 -181c0 -123 -123 -206 -212 -254v-2l17 3c11 1 28 2 51 2h170v-135h-470z" />
    <glyph glyph-name="three.t_osf" horiz-adv-x="600" 
d="M52 -38l76 117c13 -11 26 -21 41 -30c25 -15 60 -31 99 -31c63 0 96 34 96 77c0 44 -37 75 -112 75c-7 0 -14 0 -21 -1c-4 -1 -8 -1 -12 -1l-34 75l117 154c7 9 15 17 23 24l11 10v2c-5 0 -10 0 -15 -1c-9 -1 -19 -2 -30 -2h-82v-69h-139v194h441v-112l-123 -159
c84 -18 149 -90 149 -181c0 -115 -81 -228 -257 -228c-75 0 -131 20 -170 43c-22 13 -41 27 -58 44z" />
    <glyph glyph-name="four.t_osf" horiz-adv-x="600" 
d="M11 28v101l257 426h223v-397h85v-130h-85v-144h-169v144h-311zM181 158h141v180c0 15 1 33 4 48l3 26h-4l-9 -22c-7 -13 -13 -29 -22 -44z" />
    <glyph glyph-name="five.t_osf" horiz-adv-x="600" 
d="M47 -42l73 122c13 -12 27 -23 42 -32c27 -16 62 -32 101 -32c52 0 105 29 105 87c0 57 -50 85 -110 85c-27 0 -50 -4 -69 -11c-11 -3 -20 -7 -29 -11l-88 33l29 356h396v-195h-145v70h-104l-4 -85c0 -7 -1 -15 -2 -22l-2 -10h2c4 1 9 3 15 4c10 2 25 3 45 3
c152 0 240 -95 240 -215c0 -133 -111 -233 -264 -233c-73 0 -132 20 -171 43c-23 13 -43 27 -60 43z" />
    <glyph glyph-name="six.t_osf" horiz-adv-x="600" 
d="M39 305c0 184 112 378 333 378c52 0 92 -7 119 -14c16 -4 30 -9 42 -15l-47 -135c-9 4 -19 7 -30 10c-19 5 -44 10 -71 10c-82 0 -132 -58 -153 -117h2c16 11 68 23 102 23c148 0 232 -112 232 -228c0 -113 -87 -229 -242 -229c-148 0 -287 96 -287 317zM215 272
c0 -77 48 -140 111 -140c44 0 70 34 70 82s-30 98 -106 98c-41 0 -75 -9 -75 -40z" />
    <glyph glyph-name="seven.t_osf" horiz-adv-x="600" 
d="M89 -116l258 503c8 15 15 26 20 33c3 4 5 8 8 11v2c-5 0 -10 0 -15 -1c-9 -1 -22 -2 -37 -2h-123v-70h-145v195h502v-115l-287 -556h-181z" />
    <glyph glyph-name="eight.t_osf" horiz-adv-x="600" 
d="M36 197c0 78 74 137 104 162c-43 31 -72 73 -72 129c0 99 72 194 235 194c131 0 239 -70 239 -195c0 -73 -64 -146 -70 -154c52 -31 88 -75 88 -140c0 -102 -87 -205 -263 -205c-172 0 -261 102 -261 209zM233 485c0 -44 52 -68 117 -93c7 12 27 44 27 83s-28 64 -76 64
s-68 -25 -68 -54zM207 211c0 -43 38 -80 90 -80c56 0 89 26 89 70c0 40 -62 60 -134 92c-19 -17 -45 -46 -45 -82z" />
    <glyph glyph-name="nine.t_osf" horiz-adv-x="600" 
d="M64 -99l47 135c9 -4 19 -7 30 -10c19 -5 44 -10 71 -10c82 0 132 58 153 117h-2c-16 -11 -68 -23 -102 -23c-148 0 -232 112 -232 228c0 113 87 229 242 229c148 0 287 -96 287 -317c0 -184 -112 -378 -333 -378c-51 0 -92 7 -119 14c-16 4 -30 9 -42 15zM307 243
c41 0 75 9 75 40c0 77 -48 140 -111 140c-44 0 -70 -34 -70 -82s30 -98 106 -98z" />
    <glyph glyph-name="dollar.osf" horiz-adv-x="537" 
d="M29 73l71 125c15 -10 32 -19 49 -26c31 -13 73 -27 120 -27c45 0 67 17 67 37c0 61 -291 26 -291 229c0 96 73 152 173 170v103h109v-100c53 -7 93 -18 120 -29c16 -7 29 -13 40 -20l-56 -133c-11 7 -25 13 -41 19c-27 11 -66 19 -117 19c-42 0 -63 -11 -63 -32
c0 -71 291 -33 291 -225c0 -87 -63 -159 -174 -179v-104h-109v101c-60 8 -107 26 -139 42c-19 9 -35 19 -50 30z" />
    <glyph glyph-name="cent.osf" horiz-adv-x="544" 
d="M26 300c0 112 69 214 197 246v83h114v-76c53 -7 94 -25 123 -44c17 -11 32 -22 44 -34l-78 -124c-9 10 -19 19 -31 26c-20 13 -46 26 -77 26c-84 0 -120 -53 -120 -101c0 -52 36 -105 120 -105c31 0 57 13 77 26c12 7 22 16 31 26l78 -124c-12 -12 -27 -23 -44 -34
c-29 -19 -70 -37 -123 -44v-77h-114v84c-128 29 -197 134 -197 246z" />
    <glyph glyph-name="sterling.osf" horiz-adv-x="605" 
d="M39 0v145h65v86h-53v108h53v42c0 129 114 216 254 216c60 0 107 -15 142 -30c20 -9 38 -19 54 -30l-73 -126c-12 6 -24 12 -37 17c-23 9 -52 17 -81 17c-43 0 -84 -25 -84 -64v-42h180v-108h-180v-86h289v-145h-529z" />
    <glyph glyph-name="yen.osf" horiz-adv-x="655" 
d="M77 292v96h65l-112 197h199l53 -118c11 -24 22 -52 30 -73c5 -12 9 -24 13 -37h2c4 13 8 25 13 37c8 21 19 49 30 73l53 118h199l-113 -197h74v-96h-129l-41 -71v-8h170v-96h-170v-117h-175v117h-161v96h161v8l-41 71h-120z" />
    <glyph glyph-name="florin.osf" horiz-adv-x="604" 
d="M23 -119v146l29 -3c16 -3 33 -4 41 -4c33 0 88 9 93 64l16 182h-64v135h75l9 90c16 169 166 192 251 192c16 0 37 -1 56 -4l32 -4v-146l-32 4c-17 3 -36 3 -44 3c-35 0 -89 -9 -94 -64l-7 -71h96v-135h-108l-17 -201c-16 -169 -166 -192 -250 -192c-15 0 -36 1 -53 4z
" />
    <glyph glyph-name="Euro.osf" horiz-adv-x="575" 
d="M38 184v81h64c-1 11 -1 36 -1 55h-63v81h79c40 108 141 196 310 196c31 0 55 -3 74 -6l29 -6l-37 -135c-7 2 -14 4 -21 5c-13 3 -30 4 -49 4c-56 0 -98 -23 -123 -58h184l-19 -81h-190c-3 -15 -1 -43 2 -55h182l-16 -81h-132c27 -33 67 -55 119 -55c24 0 45 3 61 7
c9 3 18 5 26 7l25 -137l-33 -9c-21 -5 -49 -9 -82 -9c-163 0 -268 88 -308 196h-81z" />
    <glyph glyph-name="zero.numerator" horiz-adv-x="406" 
d="M203 264c-129 0 -170 103 -170 231s41 230 170 230s170 -102 170 -230s-41 -231 -170 -231zM203 379c34 0 43 52 43 116c0 63 -9 114 -43 114c-33 0 -43 -51 -43 -114c0 -64 10 -116 43 -116z" />
    <glyph glyph-name="one.numerator" horiz-adv-x="379" 
d="M38 274v98h99v153c0 11 1 17 2 22l2 8h-4l-4 -5c-3 -3 -5 -8 -10 -12l-31 -27l-72 79l135 125h108v-343h100v-98h-325z" />
    <glyph glyph-name="two.numerator" horiz-adv-x="401" 
d="M28 325c0 169 204 185 204 251c0 23 -23 34 -43 34c-21 0 -39 -11 -52 -22c-7 -7 -14 -14 -21 -23l-83 71c11 17 24 32 41 45c28 23 71 44 128 44c85 0 157 -48 157 -135c0 -143 -189 -154 -201 -218h110v43h97v-141h-331l-3 19c-2 11 -3 22 -3 32z" />
    <glyph glyph-name="three.numerator" horiz-adv-x="393" 
d="M36 574v141h311v-79l-88 -101c71 -15 102 -57 102 -116c0 -77 -58 -155 -173 -155c-55 0 -93 17 -120 34c-16 10 -29 21 -40 34l61 85c7 -7 15 -14 24 -21c16 -11 39 -22 67 -22c35 0 54 18 54 42c0 27 -29 36 -62 36h-31l-24 57l72 89c5 7 11 12 16 16l8 7v4l-11 -2
c-7 -1 -15 -2 -23 -2h-46v-47h-97z" />
    <glyph glyph-name="four.numerator" horiz-adv-x="419" 
d="M214 274v92h-197v79l171 270h150v-257h53v-92h-53v-92h-124zM126 458h88v105c0 11 2 22 3 33l2 17h-4c-1 -5 -2 -11 -5 -16c-4 -9 -8 -19 -15 -30l-69 -107v-2z" />
    <glyph glyph-name="five.numerator" horiz-adv-x="391" 
d="M183 264c-49 0 -91 14 -119 29c-17 9 -31 18 -44 29l60 87c9 -6 18 -12 28 -17c17 -9 39 -18 63 -18c33 0 62 18 62 49c0 29 -22 47 -66 47c-17 0 -32 -3 -43 -6c-7 -2 -12 -4 -17 -7l-65 24l20 234h278v-141h-97v47h-79l-2 -53c0 -4 0 -9 -1 -12c-1 -2 -1 -4 -1 -6l2 -1
l12 3c7 2 17 3 29 3c96 0 157 -59 157 -135c0 -75 -59 -156 -177 -156z" />
    <glyph glyph-name="six.numerator" horiz-adv-x="396" 
d="M212 264c-91 0 -183 65 -183 209c0 123 73 252 213 252c32 0 58 -5 77 -12c11 -3 21 -7 29 -12l-32 -108l-22 8c-13 4 -29 8 -44 8c-35 0 -63 -15 -76 -52h2c12 4 24 6 37 6c102 0 157 -66 157 -146c0 -77 -57 -153 -158 -153zM212 379c21 0 33 19 33 39
c0 27 -15 58 -54 58c-19 0 -34 -7 -34 -19c0 -48 27 -78 55 -78z" />
    <glyph glyph-name="seven.numerator" horiz-adv-x="379" 
d="M44 274l172 323l11 17l6 7v4l-10 -2c-7 -1 -14 -2 -21 -2h-77v-47h-97v141h337v-85l-190 -356h-131z" />
    <glyph glyph-name="eight.numerator" horiz-adv-x="405" 
d="M204 264c-87 0 -175 46 -175 139c0 49 41 88 64 106c-25 21 -43 48 -43 88c0 85 76 128 155 128c77 0 159 -44 159 -129c0 -44 -38 -89 -49 -100c33 -21 59 -51 59 -99c0 -88 -85 -133 -170 -133zM231 535c5 8 17 29 17 53c0 20 -23 31 -43 31c-19 0 -35 -8 -35 -28
c0 -27 26 -41 61 -56zM203 370c23 0 45 11 45 34c0 27 -35 41 -76 60c-11 -12 -22 -32 -22 -53c0 -27 26 -41 53 -41z" />
    <glyph glyph-name="nine.numerator" horiz-adv-x="396" 
d="M154 264c-31 0 -56 5 -75 12c-11 3 -21 7 -30 12l32 108l22 -8c13 -4 30 -8 46 -8c31 0 62 15 74 52h-2c-15 -5 -25 -6 -40 -6c-97 0 -154 69 -154 146s57 153 156 153c92 0 185 -66 185 -206c0 -127 -73 -255 -214 -255zM210 513c20 0 30 7 30 28c0 35 -27 69 -56 69
c-20 0 -32 -17 -32 -40c0 -25 14 -57 58 -57z" />
    <glyph glyph-name="zerosuperior" unicode="&#x2070;" horiz-adv-x="406" 
d="M203 413c-129 0 -170 103 -170 231s41 230 170 230s170 -102 170 -230s-41 -231 -170 -231zM203 528c34 0 43 52 43 116c0 63 -9 114 -43 114c-33 0 -43 -51 -43 -114c0 -64 10 -116 43 -116z" />
    <glyph glyph-name="foursuperior" unicode="&#x2074;" horiz-adv-x="418" 
d="M214 423v92h-197v79l171 270h150v-257h53v-92h-53v-92h-124zM126 607h88v105c0 11 2 22 3 33l2 17h-4c-1 -5 -2 -11 -5 -16c-4 -9 -8 -19 -15 -30l-69 -107v-2z" />
    <glyph glyph-name="fivesuperior" unicode="&#x2075;" horiz-adv-x="392" 
d="M184 413c-49 0 -91 14 -119 29c-17 9 -31 18 -44 29l60 87c9 -6 18 -12 28 -17c17 -9 39 -18 63 -18c33 0 62 18 62 49c0 29 -22 47 -66 47c-17 0 -32 -3 -43 -6c-7 -2 -12 -4 -17 -7l-65 24l20 234h278v-141h-97v47h-79l-2 -53c0 -4 0 -9 -1 -12c-1 -2 -1 -4 -1 -6l2 -1
l12 3c7 2 17 3 29 3c96 0 157 -59 157 -135c0 -75 -59 -156 -177 -156z" />
    <glyph glyph-name="sixsuperior" unicode="&#x2076;" horiz-adv-x="397" 
d="M212 413c-91 0 -183 65 -183 209c0 123 73 252 213 252c32 0 58 -5 77 -12c11 -3 21 -7 29 -12l-32 -108l-22 8c-13 4 -29 8 -44 8c-35 0 -63 -15 -76 -52h2c12 4 24 6 37 6c102 0 157 -66 157 -146c0 -77 -57 -153 -158 -153zM212 528c21 0 33 19 33 39
c0 27 -15 58 -54 58c-19 0 -34 -7 -34 -19c0 -48 27 -78 55 -78z" />
    <glyph glyph-name="sevensuperior" unicode="&#x2077;" horiz-adv-x="380" 
d="M44 423l172 323l11 17l6 7v4l-10 -2c-7 -1 -14 -2 -21 -2h-77v-47h-97v141h337v-85l-190 -356h-131z" />
    <glyph glyph-name="eightsuperior" unicode="&#x2078;" horiz-adv-x="406" 
d="M204 413c-87 0 -175 46 -175 139c0 49 41 88 64 106c-25 21 -43 48 -43 88c0 85 76 128 155 128c77 0 159 -44 159 -129c0 -44 -38 -89 -49 -100c33 -21 59 -51 59 -99c0 -88 -85 -133 -170 -133zM231 684c5 8 17 29 17 53c0 20 -23 31 -43 31c-19 0 -35 -8 -35 -28
c0 -27 26 -41 61 -56zM203 519c23 0 45 11 45 34c0 27 -35 41 -76 60c-11 -12 -22 -32 -22 -53c0 -27 26 -41 53 -41z" />
    <glyph glyph-name="ninesuperior" unicode="&#x2079;" horiz-adv-x="397" 
d="M154 413c-31 0 -56 5 -75 12c-11 3 -21 7 -30 12l32 108l22 -8c13 -4 30 -8 46 -8c31 0 62 15 74 52h-2c-15 -5 -25 -6 -40 -6c-97 0 -154 69 -154 146s57 153 156 153c92 0 185 -66 185 -206c0 -127 -73 -255 -214 -255zM210 662c20 0 30 7 30 28c0 35 -27 69 -56 69
c-20 0 -32 -17 -32 -40c0 -25 14 -57 58 -57z" />
    <glyph glyph-name="zeroinferior" unicode="&#x2080;" horiz-adv-x="406" 
d="M203 -167c-129 0 -170 103 -170 231s41 230 170 230s170 -102 170 -230s-41 -231 -170 -231zM203 -52c34 0 43 52 43 116c0 63 -9 114 -43 114c-33 0 -43 -51 -43 -114c0 -64 10 -116 43 -116z" />
    <glyph glyph-name="oneinferior" unicode="&#x2081;" horiz-adv-x="378" 
d="M37 -157v98h99v153c0 11 1 17 2 22l2 8h-4l-4 -5c-3 -3 -5 -8 -10 -12l-31 -27l-72 79l135 125h108v-343h100v-98h-325z" />
    <glyph glyph-name="twoinferior" unicode="&#x2082;" horiz-adv-x="400" 
d="M27 -106c0 169 204 185 204 251c0 23 -23 34 -43 34c-21 0 -39 -11 -52 -22c-7 -7 -14 -14 -21 -23l-83 71c11 17 24 32 41 45c28 23 71 44 128 44c85 0 157 -48 157 -135c0 -143 -189 -155 -201 -218h110v43h97v-141h-331l-3 19c-2 11 -3 21 -3 32z" />
    <glyph glyph-name="threeinferior" unicode="&#x2083;" horiz-adv-x="393" 
d="M36 143v141h311v-79l-88 -101c71 -15 102 -57 102 -116c0 -77 -58 -155 -173 -155c-55 0 -93 17 -120 34c-16 10 -29 21 -40 34l61 85c7 -8 15 -15 24 -22c16 -11 39 -21 67 -21c35 0 54 18 54 42c0 27 -29 36 -62 36h-31l-24 57l72 89c5 7 11 12 16 16l8 7v4l-11 -2
c-7 -1 -15 -2 -23 -2h-46v-47h-97z" />
    <glyph glyph-name="fourinferior" unicode="&#x2084;" horiz-adv-x="418" 
d="M214 -157v92h-197v79l171 270h150v-257h53v-92h-53v-92h-124zM126 27h88v105c0 11 2 22 3 33l2 17h-4c-1 -5 -2 -11 -5 -16c-4 -9 -8 -19 -15 -30l-69 -107v-2z" />
    <glyph glyph-name="fiveinferior" unicode="&#x2085;" horiz-adv-x="392" 
d="M184 -167c-49 0 -91 14 -119 29c-17 9 -31 18 -44 29l60 87c9 -7 18 -13 28 -18c17 -9 39 -17 63 -17c33 0 62 18 62 49c0 29 -22 47 -66 47c-17 0 -32 -3 -43 -6c-7 -2 -12 -4 -17 -7l-65 24l20 234h278v-141h-97v47h-79l-2 -53c0 -4 0 -9 -1 -12c-1 -2 -1 -4 -1 -6
l2 -1l12 3c7 2 17 3 29 3c96 0 157 -59 157 -135c0 -75 -59 -156 -177 -156z" />
    <glyph glyph-name="sixinferior" unicode="&#x2086;" horiz-adv-x="397" 
d="M212 -167c-91 0 -183 65 -183 209c0 123 73 252 213 252c32 0 58 -5 77 -12c11 -3 21 -7 29 -12l-32 -108l-22 8c-13 4 -29 8 -44 8c-35 0 -63 -15 -76 -52h2c12 4 24 6 37 6c102 0 157 -66 157 -146c0 -77 -57 -153 -158 -153zM212 -52c21 0 33 19 33 39
c0 27 -15 58 -54 58c-19 0 -34 -7 -34 -19c0 -48 27 -78 55 -78z" />
    <glyph glyph-name="seveninferior" unicode="&#x2087;" horiz-adv-x="380" 
d="M44 -157l172 323l11 17l6 7v4l-10 -2c-7 -1 -14 -2 -21 -2h-77v-47h-97v141h337v-85l-190 -356h-131z" />
    <glyph glyph-name="eightinferior" unicode="&#x2088;" horiz-adv-x="405" 
d="M204 -167c-87 0 -175 46 -175 139c0 49 41 88 64 106c-25 21 -43 48 -43 88c0 85 76 128 155 128c77 0 159 -44 159 -129c0 -44 -38 -89 -49 -100c33 -21 59 -51 59 -99c0 -88 -85 -133 -170 -133zM231 104c5 8 17 29 17 53c0 20 -23 31 -43 31c-19 0 -35 -8 -35 -28
c0 -27 26 -41 61 -56zM203 -61c23 0 45 11 45 34c0 27 -35 41 -76 60c-11 -12 -22 -32 -22 -53c0 -27 26 -41 53 -41z" />
    <glyph glyph-name="nineinferior" unicode="&#x2089;" horiz-adv-x="397" 
d="M154 -167c-31 0 -56 5 -75 12c-11 3 -21 7 -30 12l32 108l22 -8c13 -4 30 -8 46 -8c31 0 62 15 74 52h-2c-15 -5 -25 -6 -40 -6c-97 0 -154 69 -154 146s57 153 156 153c92 0 185 -66 185 -206c0 -127 -73 -255 -214 -255zM210 82c20 0 30 7 30 28c0 35 -27 69 -56 69
c-20 0 -32 -17 -32 -40c0 -25 14 -57 58 -57z" />
    <glyph glyph-name="zero.denominator" horiz-adv-x="406" 
d="M203 -10c-129 0 -170 103 -170 231s41 230 170 230s170 -102 170 -230s-41 -231 -170 -231zM203 105c34 0 43 52 43 116c0 63 -9 114 -43 114c-33 0 -43 -51 -43 -114c0 -64 10 -116 43 -116z" />
    <glyph glyph-name="one.denominator" horiz-adv-x="378" 
d="M37 0v98h99v153c0 11 1 17 2 22l2 8h-4l-4 -5c-3 -3 -5 -8 -10 -12l-31 -27l-72 79l135 125h108v-343h100v-98h-325z" />
    <glyph glyph-name="two.denominator" horiz-adv-x="400" 
d="M27 51c0 169 204 185 204 251c0 23 -23 34 -43 34c-21 0 -39 -11 -52 -22c-7 -7 -14 -14 -21 -23l-83 71c11 17 24 32 41 45c28 23 71 44 128 44c85 0 157 -48 157 -135c0 -143 -189 -155 -201 -218h110v43h97v-141h-331l-3 19c-2 11 -3 22 -3 32z" />
    <glyph glyph-name="three.denominator" horiz-adv-x="393" 
d="M36 300v141h311v-79l-88 -101c71 -15 102 -57 102 -116c0 -77 -58 -155 -173 -155c-55 0 -93 17 -120 34c-16 10 -29 21 -40 34l61 85c7 -7 15 -14 24 -21c16 -11 39 -22 67 -22c35 0 54 18 54 42c0 27 -29 36 -62 36h-31l-24 57l72 89c5 7 11 12 16 16l8 7v4l-11 -2
c-7 -1 -15 -2 -23 -2h-46v-47h-97z" />
    <glyph glyph-name="four.denominator" horiz-adv-x="419" 
d="M214 0v92h-197v79l171 270h150v-257h53v-92h-53v-92h-124zM126 184h88v105c0 11 2 22 3 33l2 17h-4c-1 -5 -2 -11 -5 -16c-4 -9 -8 -19 -15 -30l-69 -107v-2z" />
    <glyph glyph-name="five.denominator" horiz-adv-x="392" 
d="M184 -10c-49 0 -91 14 -119 29c-17 9 -31 18 -44 29l60 87c9 -6 18 -12 28 -17c17 -9 39 -18 63 -18c33 0 62 18 62 49c0 29 -22 47 -66 47c-17 0 -32 -3 -43 -6c-7 -2 -12 -4 -17 -7l-65 24l20 234h278v-141h-97v47h-79l-2 -53c0 -4 0 -9 -1 -12c-1 -2 -1 -4 -1 -6l2 -1
l12 3c7 2 17 3 29 3c96 0 157 -59 157 -135c0 -75 -59 -156 -177 -156z" />
    <glyph glyph-name="six.denominator" horiz-adv-x="397" 
d="M212 -10c-91 0 -183 65 -183 209c0 123 73 252 213 252c32 0 58 -5 77 -12c11 -3 21 -7 29 -12l-32 -108l-22 8c-13 4 -29 8 -44 8c-35 0 -63 -15 -76 -52h2c12 4 24 6 37 6c102 0 157 -66 157 -146c0 -77 -57 -153 -158 -153zM212 105c21 0 33 19 33 39
c0 27 -15 58 -54 58c-19 0 -34 -7 -34 -19c0 -48 27 -78 55 -78z" />
    <glyph glyph-name="seven.denominator" horiz-adv-x="379" 
d="M44 0l172 323l11 17l6 7v4l-10 -2c-7 -1 -14 -2 -21 -2h-77v-47h-97v141h337v-85l-190 -356h-131z" />
    <glyph glyph-name="eight.denominator" horiz-adv-x="406" 
d="M204 -10c-87 0 -175 46 -175 139c0 49 41 88 64 106c-25 21 -43 48 -43 88c0 85 76 128 155 128c77 0 159 -44 159 -129c0 -44 -38 -89 -49 -100c33 -21 59 -51 59 -99c0 -88 -85 -133 -170 -133zM231 261c5 8 17 29 17 53c0 20 -23 31 -43 31c-19 0 -35 -8 -35 -28
c0 -27 26 -41 61 -56zM203 96c23 0 45 11 45 34c0 27 -35 41 -76 60c-11 -12 -22 -32 -22 -53c0 -27 26 -41 53 -41z" />
    <glyph glyph-name="nine.denominator" horiz-adv-x="397" 
d="M154 -10c-31 0 -56 5 -75 12c-11 3 -21 7 -30 12l32 108l22 -8c13 -4 30 -8 46 -8c31 0 62 15 74 52h-2c-15 -5 -25 -6 -40 -6c-97 0 -154 69 -154 146s57 153 156 153c92 0 185 -66 185 -206c0 -127 -73 -255 -214 -255zM210 239c20 0 30 7 30 28c0 35 -27 69 -56 69
c-20 0 -32 -17 -32 -40c0 -25 14 -57 58 -57z" />
    <glyph glyph-name="thinspace" unicode="&#x2009;" horiz-adv-x="232" 
 />
    <glyph glyph-name="uni00AD" unicode="&#xad;" horiz-adv-x="452" 
d="M69 212v150h314v-150h-314z" />
    </font>
</defs>
</svg>
